{"glyphs":{"0":{"ha":633,"x_min":56,"x_max":578,"o":"m 317 970 q 426 947 378 970 q 508 868 475 924 q 560 717 542 812 q 578 477 578 622 q 560 236 578 331 q 508 85 542 141 q 426 6 475 28 q 317 -16 378 -16 q 207 6 256 -16 q 125 85 159 28 q 74 236 92 141 q 56 477 56 331 q 74 717 56 622 q 125 868 92 812 q 207 947 159 924 q 317 970 256 970 m 317 868 q 246 842 274 868 q 202 771 218 817 q 179 662 185 725 q 172 525 172 600 l 172 427 q 179 290 172 353 q 202 182 185 227 q 246 111 218 136 q 317 85 274 85 q 387 111 359 85 q 432 182 415 136 q 455 290 448 227 q 461 427 461 353 l 461 525 q 455 662 461 600 q 432 771 448 725 q 387 842 415 817 q 317 868 359 868 z "},"1":{"ha":633,"x_min":68,"x_max":618,"o":"m 410 101 l 618 101 l 618 0 l 70 0 l 70 101 l 296 101 l 296 779 l 68 779 l 68 852 q 135 863 98 854 q 213 885 172 872 q 293 916 253 899 q 366 953 332 933 l 410 953 l 410 101 z "},"2":{"ha":633,"x_min":54,"x_max":572,"o":"m 319 970 q 416 956 371 970 q 495 911 462 941 q 549 835 529 882 q 568 722 568 788 q 550 609 568 663 q 502 508 532 556 q 434 416 472 460 q 357 330 396 372 q 282 247 319 288 q 219 165 245 206 q 205 140 211 153 q 195 117 199 128 l 572 117 l 572 0 l 54 0 l 54 18 q 71 126 54 75 q 121 225 88 178 q 184 306 149 267 q 256 385 220 346 q 327 464 292 425 q 388 545 361 503 q 431 631 415 587 q 448 724 448 675 q 441 772 448 747 q 421 818 435 798 q 381 851 406 838 q 318 864 356 864 q 255 849 281 864 q 214 810 230 835 q 192 752 199 785 q 185 682 185 719 l 185 625 l 67 625 q 65 640 66 631 q 63 681 63 655 q 84 812 63 758 q 140 902 104 867 q 221 954 175 937 q 319 970 268 970 z "},"3":{"ha":633,"x_min":48,"x_max":578,"o":"m 313 970 q 414 953 368 970 q 493 903 460 936 q 544 821 526 869 q 562 708 562 772 q 552 633 562 666 q 526 574 543 600 q 487 529 509 549 q 437 494 464 509 l 437 489 q 493 457 468 477 q 538 408 519 437 q 567 341 557 379 q 578 256 578 303 q 558 141 578 192 q 505 56 539 91 q 422 2 470 21 q 317 -16 374 -16 q 201 4 252 -16 q 117 62 151 24 q 65 152 83 99 q 48 270 48 205 l 48 281 l 165 281 l 165 265 q 202 131 165 176 q 309 85 238 85 q 371 95 342 85 q 419 127 399 105 q 450 183 439 149 q 461 264 461 217 q 448 347 461 315 q 413 399 435 380 q 362 426 391 418 q 304 433 334 433 l 225 433 l 225 534 l 307 534 q 359 545 334 534 q 403 575 385 555 q 433 628 422 596 q 444 701 444 659 q 434 777 444 745 q 405 829 423 808 q 363 859 387 849 q 314 868 340 868 q 261 858 286 868 q 219 826 237 848 q 192 772 201 805 q 182 696 182 740 l 182 684 l 66 684 l 66 708 q 84 816 66 768 q 135 898 102 864 q 213 951 168 932 q 313 970 258 970 z "},"4":{"ha":633,"x_min":28,"x_max":607,"o":"m 391 970 q 357 839 377 905 q 312 708 336 772 q 262 585 288 644 q 213 477 237 526 q 168 391 189 428 q 134 336 148 355 l 396 336 l 396 636 q 414 684 406 661 q 429 730 422 707 q 441 776 435 752 q 454 827 448 800 l 509 827 l 509 336 l 607 336 l 607 235 l 509 235 l 509 0 l 396 0 l 396 235 l 28 235 l 28 337 q 101 483 65 406 q 168 641 136 559 q 227 805 199 722 q 275 970 254 888 l 391 970 z "},"5":{"ha":633,"x_min":56,"x_max":587,"o":"m 547 836 l 212 836 l 195 546 q 222 570 206 557 q 259 594 239 583 q 306 612 280 605 q 363 619 332 619 q 451 601 410 619 q 522 544 492 582 q 570 448 552 506 q 587 311 587 390 q 569 172 587 233 q 516 69 551 111 q 433 5 482 27 q 322 -16 384 -16 q 213 5 262 -16 q 129 67 163 26 q 75 165 94 107 q 56 296 56 222 l 174 296 q 185 208 174 247 q 217 141 197 168 q 264 98 237 113 q 322 83 291 83 q 381 97 354 83 q 427 140 408 111 q 458 211 447 168 q 469 311 469 254 q 459 399 469 361 q 431 464 449 437 q 387 503 412 490 q 332 517 362 517 q 249 487 286 517 q 191 407 211 456 l 82 425 l 114 953 l 547 953 l 547 836 z "},"6":{"ha":633,"x_min":56,"x_max":578,"o":"m 322 970 q 427 946 383 970 q 499 881 471 922 q 540 782 527 839 q 553 660 553 726 l 437 660 q 408 813 437 759 q 317 868 378 868 q 245 843 273 868 q 202 771 218 818 q 179 657 186 724 q 172 508 173 591 q 245 575 203 551 q 340 599 288 599 q 445 575 400 599 q 519 509 490 551 q 563 412 549 468 q 578 292 578 355 q 559 163 578 220 q 507 66 541 106 q 428 5 474 26 q 329 -16 382 -16 q 214 7 265 -16 q 128 84 163 30 q 74 227 93 138 q 56 449 56 317 q 74 698 56 598 q 126 859 92 798 q 210 944 160 919 q 322 970 259 970 m 322 498 q 260 482 286 498 q 216 438 233 466 q 190 372 199 410 q 182 292 182 334 q 190 211 182 249 q 216 145 199 174 q 260 101 233 117 q 322 85 286 85 q 384 101 358 85 q 428 145 410 117 q 453 211 445 174 q 461 292 461 249 q 453 372 461 334 q 428 438 445 410 q 384 482 410 466 q 322 498 358 498 z "},"7":{"ha":633,"x_min":45,"x_max":587,"o":"m 587 880 q 520 772 555 830 q 453 651 486 715 q 391 517 420 587 q 340 374 362 447 q 306 224 319 300 q 293 71 293 148 l 293 38 q 293 21 293 31 q 294 0 294 12 l 165 0 q 192 241 165 123 q 258 466 218 359 q 349 667 299 574 q 444 836 398 761 l 45 836 l 45 953 l 587 953 l 587 880 z "},"8":{"ha":633,"x_min":56,"x_max":578,"o":"m 317 970 q 422 949 376 970 q 498 892 467 928 q 544 807 528 856 q 559 704 559 759 q 533 580 559 636 q 454 489 507 524 q 549 397 519 456 q 578 261 578 338 q 563 154 578 204 q 516 65 548 103 q 435 6 485 28 q 317 -16 386 -16 q 198 6 248 -16 q 117 65 149 28 q 71 154 85 103 q 56 261 56 204 q 84 397 56 338 q 178 489 113 456 q 101 580 127 524 q 75 704 75 636 q 91 807 75 759 q 136 892 106 856 q 212 949 167 928 q 317 970 257 970 m 317 436 q 209 389 245 436 q 172 261 172 342 q 181 188 172 220 q 209 133 191 155 q 254 97 227 110 q 317 85 281 85 q 379 97 352 85 q 425 133 406 110 q 452 188 443 155 q 461 261 461 220 q 425 390 461 343 q 317 436 388 436 m 317 868 q 223 824 258 868 q 189 703 189 781 q 223 581 189 625 q 317 537 258 537 q 411 581 376 537 q 446 703 446 625 q 411 824 446 781 q 317 868 376 868 z "},"9":{"ha":633,"x_min":56,"x_max":578,"o":"m 304 970 q 419 947 368 970 q 505 869 470 924 q 559 726 541 815 q 578 504 578 636 q 560 255 578 355 q 509 95 543 155 q 427 9 475 35 q 317 -16 378 -16 q 210 7 254 -16 q 136 72 165 31 q 94 170 108 114 q 81 293 81 227 l 196 293 q 227 139 196 194 q 322 85 258 85 q 390 110 363 85 q 432 181 417 135 q 454 294 448 228 q 461 443 460 360 q 388 378 429 401 q 293 355 346 355 q 188 378 233 355 q 114 444 143 402 q 70 541 84 486 q 56 661 56 597 q 74 790 56 732 q 126 887 93 847 q 205 948 159 927 q 304 970 250 970 m 311 868 q 249 852 275 868 q 205 807 222 836 q 180 742 189 779 q 172 661 172 704 q 180 581 172 618 q 205 515 189 543 q 249 471 222 487 q 311 454 275 454 q 374 471 347 454 q 417 515 400 487 q 443 581 435 543 q 452 661 452 618 q 443 742 452 704 q 417 807 435 779 q 374 852 400 836 q 311 868 347 868 z "},"\r":{"ha":0,"x_min":0,"x_max":0,"o":""}," ":{"ha":317,"x_min":0,"x_max":0,"o":""},"!":{"ha":317,"x_min":83,"x_max":240,"o":"m 240 953 q 236 890 238 933 q 230 788 233 846 q 224 660 227 730 q 217 517 221 590 q 210 372 214 444 q 204 237 207 300 l 118 237 q 102 595 110 417 q 83 953 94 774 l 240 953 m 232 0 l 93 0 l 93 151 l 232 151 l 232 0 z "},"\"":{"ha":404,"x_min":52,"x_max":351,"o":"m 351 749 q 334 656 341 702 q 319 566 327 611 l 265 566 q 251 656 258 611 q 236 749 243 702 l 236 953 l 351 953 l 351 749 m 165 749 q 151 656 158 702 l 136 566 l 82 566 q 67 656 74 611 q 52 749 60 702 l 52 953 l 165 953 l 165 749 z "},"#":{"ha":633,"x_min":12,"x_max":615,"o":"m 532 675 l 615 675 l 615 570 l 508 570 l 461 355 l 560 355 l 560 249 l 437 249 l 382 0 l 277 0 l 332 249 l 207 249 l 152 0 l 45 0 l 101 249 l 12 249 l 12 355 l 125 355 l 172 570 l 67 570 l 67 675 l 196 675 l 261 967 l 367 967 l 301 675 l 426 675 l 492 967 l 597 967 l 532 675 m 278 570 l 231 355 l 356 355 l 403 570 l 278 570 z "},"$":{"ha":633,"x_min":74,"x_max":556,"o":"m 349 857 q 432 837 396 854 q 492 792 468 819 q 529 731 516 766 q 541 659 541 696 q 541 643 541 651 q 540 631 540 634 l 427 631 l 427 644 q 424 682 427 663 q 411 715 420 700 q 387 742 401 730 q 349 759 372 753 l 349 538 q 422 512 385 526 q 489 473 459 497 q 537 412 519 448 q 556 319 556 375 q 541 225 556 265 q 497 157 525 184 q 432 115 470 130 q 349 96 394 100 l 349 -68 l 281 -68 l 281 96 q 185 120 224 100 q 121 169 146 140 q 85 234 96 198 q 74 309 74 271 q 75 330 74 323 q 75 338 75 336 l 189 338 l 189 325 q 215 235 189 266 q 281 195 240 204 l 281 443 q 212 470 246 455 q 151 508 178 485 q 107 565 123 531 q 90 650 90 600 q 103 729 90 694 q 141 790 117 764 q 201 833 166 817 q 281 856 237 850 l 281 1004 l 349 1004 l 349 857 m 349 193 q 415 227 389 199 q 441 302 441 254 q 434 343 441 326 q 415 375 427 361 q 386 399 403 389 q 349 418 369 409 l 349 193 m 281 759 q 242 743 257 754 q 219 718 227 732 q 207 688 210 703 q 204 659 204 672 q 225 601 204 622 q 281 566 247 580 l 281 759 z "},"%":{"ha":1013,"x_min":63,"x_max":963,"o":"m 271 0 l 174 0 l 754 953 l 853 953 l 271 0 m 240 970 q 315 958 282 970 q 371 916 348 945 q 406 839 394 887 q 418 718 418 790 q 406 597 418 646 q 371 520 394 549 q 315 480 348 492 q 240 468 282 468 q 165 480 198 468 q 110 521 133 492 q 75 598 87 550 q 63 718 63 646 q 75 839 63 790 q 110 916 87 887 q 165 958 133 945 q 240 970 198 970 m 240 888 q 199 876 215 888 q 175 843 184 864 q 162 793 165 822 q 159 729 159 764 l 159 708 q 162 644 159 673 q 175 594 165 615 q 199 562 184 573 q 240 550 215 550 q 281 562 265 550 q 306 594 297 573 q 319 644 315 615 q 322 708 322 673 l 322 729 q 319 793 322 764 q 306 843 315 822 q 281 876 297 864 q 240 888 265 888 m 785 403 q 744 391 760 403 q 719 358 728 379 q 706 308 709 337 q 703 244 703 279 l 703 223 q 706 159 703 189 q 719 110 709 130 q 744 77 728 89 q 785 66 760 66 q 826 77 810 66 q 851 110 842 89 q 863 159 860 130 q 867 223 867 189 l 867 244 q 863 308 867 279 q 851 358 860 337 q 826 391 842 379 q 785 403 810 403 m 785 485 q 859 473 826 485 q 916 431 892 460 q 951 354 939 402 q 963 233 963 305 q 951 113 963 161 q 916 36 939 64 q 859 -4 892 7 q 785 -16 826 -16 q 710 -4 743 -16 q 654 36 677 7 q 619 113 631 65 q 607 233 607 161 q 619 354 607 305 q 654 431 631 402 q 710 473 677 460 q 785 485 743 485 z "},"&":{"ha":760,"x_min":48,"x_max":741,"o":"m 356 970 q 472 951 419 970 q 564 898 526 932 q 623 816 602 864 q 644 708 644 768 l 644 684 l 530 684 l 530 696 q 517 772 530 740 q 480 825 504 804 q 425 856 457 846 q 355 865 393 865 q 290 856 321 865 q 237 827 260 847 q 201 777 214 808 q 188 701 188 745 q 200 628 188 659 q 232 575 212 596 q 278 545 252 555 q 333 534 304 534 l 404 534 l 404 433 l 336 433 q 274 426 304 433 q 222 399 245 418 q 185 347 199 380 q 171 264 171 315 q 184 183 171 217 q 221 129 197 150 q 279 97 245 107 q 353 87 313 87 q 530 265 530 87 l 530 534 l 741 534 l 741 432 l 644 432 l 644 270 q 625 152 644 205 q 568 62 606 99 q 474 4 530 24 q 344 -16 418 -16 q 224 2 279 -16 q 131 56 170 21 q 70 141 92 91 q 48 256 48 192 q 59 341 48 303 q 89 408 70 379 q 133 457 107 437 q 189 489 159 477 l 189 494 q 140 529 163 509 q 101 574 117 549 q 75 633 84 600 q 66 708 66 666 q 86 821 66 772 q 145 903 107 869 q 237 953 184 936 q 356 970 291 970 z "},"'":{"ha":218,"x_min":48,"x_max":163,"o":"m 163 749 q 148 656 155 702 l 133 566 l 79 566 q 64 656 71 611 q 48 749 57 702 l 48 953 l 163 953 l 163 749 z "},"(":{"ha":379,"x_min":56,"x_max":359,"o":"m 359 1021 q 286 883 319 958 q 227 729 252 809 q 188 567 202 650 q 174 403 174 484 q 188 238 174 321 q 227 75 202 155 q 286 -80 252 -5 q 359 -218 319 -154 l 283 -218 q 186 -81 229 -154 q 115 70 144 -9 q 71 232 85 149 q 56 400 56 315 q 71 569 56 486 q 115 732 85 652 q 186 884 144 811 q 283 1021 229 957 l 359 1021 z "},")":{"ha":379,"x_min":21,"x_max":323,"o":"m 96 1021 q 193 884 151 957 q 264 732 235 811 q 308 569 293 652 q 323 400 323 486 q 308 232 323 315 q 264 70 293 149 q 193 -81 235 -9 q 96 -218 151 -154 l 21 -218 q 94 -80 60 -154 q 152 75 127 -5 q 191 238 177 155 q 205 403 205 321 q 191 567 205 484 q 152 729 177 650 q 94 883 127 809 q 21 1021 60 958 l 96 1021 z "},"*":{"ha":443,"x_min":36,"x_max":406,"o":"m 256 830 l 359 901 l 406 821 l 292 768 l 406 715 l 359 633 l 256 705 l 269 582 l 174 582 l 186 705 l 83 633 l 36 715 l 151 768 l 36 821 l 83 901 l 186 829 l 174 953 l 269 953 l 256 830 z "},"+":{"ha":665,"x_min":60,"x_max":604,"o":"m 389 412 l 604 412 l 604 296 l 389 296 l 389 0 l 274 0 l 274 296 l 60 296 l 60 412 l 274 412 l 274 709 l 389 709 l 389 412 z "},",":{"ha":317,"x_min":89,"x_max":228,"o":"m 228 12 l 161 -172 l 89 -172 l 144 0 l 89 0 l 89 151 l 228 151 l 228 12 z "},"-":{"ha":379,"x_min":14,"x_max":364,"o":"m 364 307 l 14 307 l 14 443 l 364 443 l 364 307 z "},".":{"ha":317,"x_min":89,"x_max":228,"o":"m 228 0 l 89 0 l 89 151 l 228 151 l 228 0 z "},"/":{"ha":317,"x_min":1,"x_max":317,"o":"m 100 -68 l 1 -68 l 219 1021 l 317 1021 l 100 -68 z "},":":{"ha":317,"x_min":89,"x_max":228,"o":"m 228 0 l 89 0 l 89 151 l 228 151 l 228 0 m 228 581 l 89 581 l 89 730 l 228 730 l 228 581 z "},";":{"ha":317,"x_min":89,"x_max":228,"o":"m 228 12 l 161 -172 l 89 -172 l 144 0 l 89 0 l 89 151 l 228 151 l 228 12 m 228 581 l 89 581 l 89 730 l 228 730 l 228 581 z "},"<":{"ha":665,"x_min":62,"x_max":606,"o":"m 606 575 l 174 353 l 606 130 l 606 5 l 62 278 l 62 426 l 606 700 l 606 575 z "},"=":{"ha":665,"x_min":60,"x_max":604,"o":"m 604 441 l 60 441 l 60 559 l 604 559 l 604 441 m 604 147 l 60 147 l 60 262 l 604 262 l 604 147 z "},">":{"ha":665,"x_min":62,"x_max":606,"o":"m 606 426 l 606 278 l 62 5 l 62 130 l 493 353 l 62 575 l 62 700 l 606 426 z "},"?":{"ha":633,"x_min":60,"x_max":568,"o":"m 328 970 q 423 951 379 970 q 499 901 467 933 q 550 823 532 868 q 568 722 568 777 q 555 610 568 655 q 521 532 541 565 q 478 476 501 500 q 434 429 454 452 q 401 377 414 405 q 387 307 387 349 l 387 250 l 267 250 l 267 328 q 280 408 267 374 q 312 468 293 441 q 354 519 332 495 q 396 569 377 543 q 429 628 416 595 q 441 707 441 661 q 440 732 441 716 q 434 765 439 747 q 421 800 430 782 q 399 831 413 817 q 366 854 386 845 q 318 863 346 863 q 248 842 274 863 q 208 793 222 822 q 191 731 195 764 q 186 675 186 699 l 186 660 q 187 648 186 654 q 188 637 187 642 l 64 637 q 62 656 63 647 q 60 671 60 663 q 60 686 60 680 q 76 796 60 745 q 126 886 93 848 q 210 947 160 925 q 328 970 260 970 m 396 0 l 257 0 l 257 151 l 396 151 l 396 0 z "},"@":{"ha":1156,"x_min":63,"x_max":1092,"o":"m 593 970 q 792 940 701 970 q 950 847 883 911 q 1054 685 1017 784 q 1092 446 1092 585 q 1080 306 1092 367 q 1048 198 1068 244 q 1002 120 1028 152 q 946 68 975 88 q 886 39 916 48 q 829 31 856 31 q 778 37 799 31 q 742 55 757 43 q 719 82 728 66 q 705 117 710 98 l 700 117 q 632 53 674 76 q 537 29 590 29 q 484 36 513 29 q 427 62 454 43 q 382 119 401 82 q 364 215 364 155 q 390 328 364 284 q 460 395 415 371 q 566 429 505 420 q 700 437 627 437 l 700 524 q 695 567 700 547 q 679 602 691 587 q 647 624 667 616 q 595 631 627 631 q 546 622 566 631 q 515 598 526 613 q 498 564 503 583 q 493 526 493 545 l 493 511 l 391 511 q 389 524 389 517 l 389 538 q 405 619 389 585 q 449 677 421 654 q 517 712 477 701 q 603 724 556 724 q 753 675 703 724 q 803 537 803 627 l 803 174 q 815 133 803 145 q 850 121 827 121 q 906 136 878 121 q 958 188 935 151 q 996 288 981 225 q 1011 448 1011 351 q 980 650 1011 566 q 894 788 949 734 q 762 868 839 842 q 591 893 684 893 q 405 861 488 893 q 263 762 321 828 q 174 597 205 696 q 142 363 142 497 q 242 -11 142 113 q 549 -136 342 -136 q 599 -132 570 -136 q 657 -123 628 -129 q 713 -109 687 -117 q 758 -92 740 -101 l 758 -175 q 710 -190 737 -183 q 653 -202 682 -197 q 597 -210 625 -207 q 549 -212 569 -212 q 346 -179 436 -212 q 193 -75 256 -145 q 97 105 130 -4 q 63 364 63 214 q 82 563 63 475 q 137 718 102 651 q 221 833 172 785 q 329 911 270 881 q 455 956 388 941 q 593 970 522 970 m 700 345 q 608 340 650 345 q 536 322 566 336 q 489 285 506 309 q 473 222 473 261 q 496 143 473 165 q 563 121 519 121 q 612 131 587 121 q 656 161 636 141 q 688 213 675 182 q 700 285 700 243 l 700 345 z "},"A":{"ha":760,"x_min":-1,"x_max":761,"o":"m 564 212 l 186 212 l 121 0 l -1 0 l 301 953 l 458 953 l 761 0 l 629 0 l 564 212 m 220 323 l 529 323 l 400 747 q 392 777 396 759 q 385 812 389 795 q 378 852 382 831 l 372 852 q 365 811 368 831 q 357 777 361 794 q 350 747 353 759 l 220 323 z "},"B":{"ha":760,"x_min":90,"x_max":720,"o":"m 90 953 l 452 953 q 550 936 505 953 q 627 889 595 920 q 679 815 660 859 q 697 720 697 772 q 686 643 697 678 q 655 579 675 608 q 609 531 635 551 q 551 500 582 511 l 551 494 q 617 461 587 484 q 671 409 648 439 q 707 338 694 378 q 720 253 720 298 q 698 146 720 193 q 640 66 677 99 q 555 17 604 34 q 452 0 507 0 l 90 0 l 90 953 m 212 432 l 212 111 l 435 111 q 497 121 469 111 q 547 152 526 132 q 579 201 568 172 q 591 269 591 231 q 580 331 591 302 q 547 383 568 361 q 495 419 526 406 q 427 432 465 432 l 212 432 m 212 842 l 212 543 l 415 543 q 479 555 450 543 q 528 588 507 568 q 559 635 548 608 q 570 693 570 663 q 530 805 570 768 q 424 842 490 842 l 212 842 z "},"C":{"ha":822,"x_min":58,"x_max":766,"o":"m 433 970 q 567 947 506 970 q 672 880 628 925 q 741 768 716 836 q 766 608 766 700 l 640 608 q 626 718 640 671 q 584 795 611 764 q 518 842 557 826 q 433 857 480 857 q 247 771 308 857 q 186 511 186 686 l 186 441 q 247 181 186 267 q 433 96 308 96 q 520 111 481 96 q 587 157 559 126 q 629 233 614 187 q 644 341 644 279 l 766 341 q 741 182 766 249 q 672 71 716 115 q 567 5 628 26 q 433 -16 506 -16 q 153 106 248 -16 q 58 477 58 229 q 153 847 58 724 q 433 970 248 970 z "},"D":{"ha":822,"x_min":97,"x_max":754,"o":"m 97 0 l 97 953 l 393 953 q 544 924 477 953 q 658 837 611 895 q 729 692 705 779 q 754 490 754 606 q 729 276 754 368 q 658 123 705 184 q 544 31 611 62 q 393 0 477 0 l 97 0 m 220 842 l 220 111 l 382 111 q 483 133 438 111 q 560 197 528 154 q 609 304 592 239 q 627 456 627 369 l 627 525 q 609 664 627 604 q 560 763 592 724 q 483 822 528 802 q 382 842 438 842 l 220 842 z "},"E":{"ha":760,"x_min":97,"x_max":693,"o":"m 97 0 l 97 953 l 685 953 l 685 842 l 220 842 l 220 543 l 624 543 l 624 432 l 220 432 l 220 111 l 693 111 l 693 0 l 97 0 z "},"F":{"ha":696,"x_min":97,"x_max":647,"o":"m 97 0 l 97 953 l 647 953 l 647 842 l 220 842 l 220 533 l 597 533 l 597 422 l 220 422 l 220 0 l 97 0 z "},"G":{"ha":886,"x_min":68,"x_max":796,"o":"m 689 106 q 583 12 645 41 q 443 -17 521 -17 q 283 14 353 -17 q 165 106 213 44 q 93 260 117 168 q 68 476 68 352 q 94 693 68 600 q 170 847 121 785 q 290 939 219 909 q 450 970 361 970 q 588 949 524 970 q 697 885 651 928 q 770 779 744 843 q 796 628 796 714 l 671 628 q 654 730 671 687 q 609 802 638 774 q 540 844 581 830 q 450 857 499 857 q 344 836 391 857 q 264 771 297 814 q 214 663 231 728 q 196 511 196 598 l 196 441 q 260 181 196 267 q 443 96 323 96 q 616 163 562 96 q 671 367 671 230 l 671 389 l 424 389 l 424 496 l 796 496 l 796 0 l 715 0 l 689 106 z "},"H":{"ha":822,"x_min":97,"x_max":725,"o":"m 725 0 l 603 0 l 603 432 l 220 432 l 220 0 l 97 0 l 97 953 l 220 953 l 220 543 l 603 543 l 603 953 l 725 953 l 725 0 z "},"I":{"ha":317,"x_min":97,"x_max":219,"o":"m 219 0 l 97 0 l 97 953 l 219 953 l 219 0 z "},"J":{"ha":570,"x_min":18,"x_max":479,"o":"m 479 227 q 419 45 479 107 q 249 -16 359 -16 q 78 45 139 -16 q 18 227 18 107 l 18 289 l 140 289 l 140 219 q 168 127 140 158 q 249 96 196 96 q 329 127 301 96 q 357 219 357 158 l 357 953 l 479 953 l 479 227 z "},"K":{"ha":760,"x_min":97,"x_max":743,"o":"m 220 449 l 597 953 l 733 953 l 447 568 l 743 0 l 604 0 l 372 465 l 220 296 l 220 0 l 97 0 l 97 953 l 220 953 l 220 449 z "},"L":{"ha":633,"x_min":97,"x_max":608,"o":"m 97 0 l 97 953 l 220 953 l 220 111 l 608 111 l 608 0 l 97 0 z "},"M":{"ha":949,"x_min":86,"x_max":863,"o":"m 741 0 l 741 692 q 742 729 741 704 q 745 778 743 753 q 750 839 747 806 l 745 839 q 732 778 739 806 q 722 729 727 753 q 713 692 716 704 l 522 0 l 412 0 l 222 692 q 219 706 221 696 q 215 726 217 715 q 210 750 212 737 q 205 775 207 763 q 193 839 199 804 l 187 839 q 191 776 189 805 q 194 726 193 751 q 196 692 196 702 l 196 0 l 86 0 l 86 953 l 272 953 l 440 328 q 447 298 444 315 q 453 265 450 282 q 458 230 456 248 q 463 195 461 212 q 472 114 468 155 l 478 114 q 486 196 481 156 q 496 266 490 230 q 509 328 501 302 l 677 953 l 863 953 l 863 0 l 741 0 z "},"N":{"ha":822,"x_min":97,"x_max":725,"o":"m 725 0 l 623 0 l 267 607 q 247 644 258 623 q 227 686 237 665 q 205 734 216 709 l 201 733 q 204 685 203 708 q 206 644 205 665 q 207 607 207 622 l 207 0 l 97 0 l 97 953 l 203 953 l 557 355 q 575 319 565 341 q 594 277 585 297 q 615 227 604 252 l 619 228 q 617 279 618 255 q 615 322 616 300 q 615 355 615 343 l 615 953 l 725 953 l 725 0 z "},"O":{"ha":886,"x_min":68,"x_max":818,"o":"m 443 970 q 600 939 530 970 q 718 847 670 909 q 792 693 766 785 q 818 477 818 601 q 792 260 818 353 q 718 106 766 168 q 600 14 670 45 q 443 -16 530 -16 q 286 14 355 -16 q 168 106 216 45 q 94 260 120 168 q 68 477 68 353 q 94 693 68 601 q 168 847 120 785 q 286 939 216 909 q 443 970 355 970 m 443 857 q 340 836 386 857 q 262 771 294 814 q 213 663 230 728 q 196 511 196 598 l 196 441 q 213 290 196 355 q 262 181 230 224 q 340 117 294 138 q 443 96 386 96 q 546 117 500 96 q 624 181 592 138 q 673 290 656 224 q 690 441 690 355 l 690 511 q 673 663 690 598 q 624 771 656 728 q 546 836 592 814 q 443 857 500 857 z "},"P":{"ha":760,"x_min":97,"x_max":722,"o":"m 220 393 l 220 0 l 97 0 l 97 953 l 437 953 q 561 932 508 953 q 650 876 614 912 q 704 788 686 839 q 722 675 722 736 q 703 560 722 612 q 646 471 683 509 q 556 414 609 434 q 437 393 503 393 l 220 393 m 220 842 l 220 504 l 433 504 q 499 516 470 504 q 550 551 529 528 q 583 605 572 573 q 595 675 595 636 q 553 797 595 753 q 433 842 512 842 l 220 842 z "},"Q":{"ha":886,"x_min":68,"x_max":818,"o":"m 68 476 q 94 693 68 600 q 168 847 119 785 q 286 939 216 909 q 443 970 355 970 q 600 939 530 970 q 718 847 669 909 q 792 693 766 785 q 818 476 818 600 q 758 170 818 287 q 591 9 699 53 l 789 -172 l 625 -172 l 460 -17 l 443 -17 q 286 14 355 -17 q 168 106 216 44 q 94 260 119 168 q 68 476 68 352 m 196 441 q 213 290 196 355 q 262 181 230 224 q 340 117 294 138 q 443 96 386 96 q 546 117 500 96 q 624 181 592 138 q 673 290 656 224 q 690 441 690 355 l 690 511 q 673 663 690 598 q 624 771 656 728 q 546 836 592 814 q 443 857 500 857 q 340 836 386 857 q 262 771 294 814 q 213 663 230 728 q 196 511 196 598 l 196 441 z "},"R":{"ha":822,"x_min":97,"x_max":787,"o":"m 765 689 q 721 535 765 600 q 596 443 676 471 l 787 0 l 652 0 l 475 421 l 220 421 l 220 0 l 97 0 l 97 953 l 481 953 q 604 933 551 953 q 693 880 657 914 q 747 797 729 845 q 765 689 765 748 m 220 842 l 220 532 l 476 532 q 543 543 513 532 q 593 575 572 554 q 626 625 614 595 q 637 689 637 654 q 596 801 637 760 q 476 842 555 842 l 220 842 z "},"S":{"ha":760,"x_min":57,"x_max":700,"o":"m 379 970 q 495 955 441 970 q 591 907 550 939 q 655 823 631 874 q 678 701 678 772 l 678 685 l 552 685 l 552 705 q 539 770 552 742 q 503 818 526 798 q 449 847 480 837 q 382 857 418 857 q 312 849 345 857 q 256 825 280 841 q 219 783 233 808 q 205 724 205 758 q 227 653 205 681 q 283 605 248 625 q 362 570 317 585 q 453 539 406 555 q 544 504 499 524 q 623 454 588 484 q 679 381 657 425 q 700 275 700 338 q 675 140 700 195 q 608 50 651 84 q 506 -1 565 15 q 378 -16 447 -16 q 254 -1 313 -16 q 152 48 196 14 q 83 137 109 82 q 57 270 57 191 q 58 286 57 277 q 58 297 58 294 l 185 297 q 185 293 185 296 q 184 285 184 290 q 183 276 184 281 q 183 269 183 271 q 197 192 183 224 q 237 138 212 160 q 297 106 262 117 q 372 96 332 96 q 520 136 469 96 q 572 254 572 177 q 551 329 572 299 q 495 379 530 358 q 415 414 460 399 q 325 445 371 429 q 234 480 278 460 q 154 530 189 500 q 98 605 119 561 q 77 713 77 649 q 100 828 77 779 q 165 908 124 876 q 261 955 206 939 q 379 970 317 970 z "},"T":{"ha":696,"x_min":26,"x_max":668,"o":"m 26 953 l 668 953 l 668 842 l 408 842 l 408 0 l 286 0 l 286 842 l 26 842 l 26 953 z "},"U":{"ha":822,"x_min":97,"x_max":725,"o":"m 725 310 q 704 169 725 229 q 642 66 682 108 q 543 4 601 25 q 411 -16 484 -16 q 279 4 338 -16 q 180 66 221 25 q 118 169 140 108 q 97 310 97 229 l 97 953 l 219 953 l 219 302 q 270 149 219 201 q 411 96 321 96 q 552 149 500 96 q 603 302 603 201 l 603 953 l 725 953 l 725 310 z "},"V":{"ha":760,"x_min":11,"x_max":749,"o":"m 458 0 l 301 0 l 11 953 l 146 953 l 382 134 l 387 134 l 630 953 l 749 953 l 458 0 z "},"W":{"ha":1075,"x_min":14,"x_max":1061,"o":"m 840 0 l 682 0 l 566 646 q 557 702 562 670 q 548 765 552 734 q 538 837 543 800 l 533 837 q 524 765 529 800 q 515 702 520 734 q 507 646 511 670 l 393 0 l 235 0 l 14 953 l 142 953 l 289 294 q 298 244 294 273 q 308 189 303 215 q 318 125 313 157 l 323 125 q 330 178 326 151 q 337 232 333 202 q 347 294 341 262 l 457 953 l 626 953 l 745 294 q 754 239 749 269 q 762 184 759 210 q 770 125 766 154 l 775 125 l 785 186 q 794 241 789 212 q 804 294 799 271 l 950 953 l 1061 953 l 840 0 z "},"X":{"ha":760,"x_min":5,"x_max":754,"o":"m 724 953 l 711 933 q 681 882 700 913 q 636 810 661 850 q 585 728 611 770 q 448 505 524 630 l 754 0 l 610 0 l 375 389 l 136 0 l 5 0 l 310 494 l 33 953 l 178 953 l 383 612 q 488 782 441 707 q 527 844 508 814 q 561 899 546 875 q 584 938 575 923 l 593 953 l 724 953 z "},"Y":{"ha":760,"x_min":11,"x_max":749,"o":"m 441 395 l 441 0 l 319 0 l 319 395 l 11 953 l 146 953 l 387 511 l 393 511 l 630 953 l 749 953 l 441 395 z "},"Z":{"ha":696,"x_min":28,"x_max":665,"o":"m 28 0 l 28 53 l 481 842 l 57 842 l 57 953 l 656 953 l 656 900 l 201 111 l 665 111 l 665 0 l 28 0 z "},"[":{"ha":317,"x_min":68,"x_max":289,"o":"m 289 930 l 174 930 l 174 -133 l 289 -133 l 289 -223 l 68 -223 l 68 1021 l 289 1021 l 289 930 z "},"\\":{"ha":317,"x_min":1,"x_max":317,"o":"m 317 -68 l 218 -68 l 1 1021 l 98 1021 l 317 -68 z "},"]":{"ha":317,"x_min":28,"x_max":249,"o":"m 249 -223 l 28 -223 l 28 -133 l 142 -133 l 142 930 l 28 930 l 28 1021 l 249 1021 l 249 -223 z "},"^":{"ha":534,"x_min":5,"x_max":533,"o":"m 533 408 l 408 408 l 269 846 l 130 408 l 5 408 l 195 953 l 342 953 l 533 408 z "},"_":{"ha":633,"x_min":0,"x_max":631,"o":"m 631 -172 l 0 -172 l 0 -98 l 631 -98 l 631 -172 z "},"`":{"ha":379,"x_min":37,"x_max":283,"o":"m 283 821 l 188 821 l 37 1000 l 39 1004 l 164 1004 l 283 821 z "},"a":{"ha":633,"x_min":47,"x_max":614,"o":"m 310 747 q 475 693 420 747 q 530 543 530 640 l 530 133 q 543 96 530 107 q 570 85 555 85 l 614 85 l 614 5 q 585 -5 604 0 q 538 -11 566 -11 q 464 14 494 -11 q 423 79 434 39 l 416 79 q 342 9 388 34 q 239 -16 296 -16 q 199 -13 220 -16 q 157 -2 178 -10 q 116 20 136 5 q 80 57 96 35 q 56 113 65 80 q 47 189 47 145 q 75 312 47 264 q 152 387 102 360 q 269 424 201 414 q 416 433 337 433 l 416 528 q 412 576 416 554 q 394 613 407 597 q 359 637 381 629 q 301 646 336 646 q 247 636 269 646 q 213 609 226 626 q 195 572 200 593 q 189 530 189 551 l 189 514 l 77 514 q 75 527 75 520 l 75 544 q 93 632 75 594 q 141 696 110 671 q 215 734 172 722 q 310 747 258 747 m 416 332 q 315 327 361 332 q 236 307 269 321 q 185 265 203 292 q 167 196 167 239 q 192 109 167 134 q 265 85 217 85 q 319 96 292 85 q 368 130 346 107 q 403 186 389 152 q 416 265 416 220 l 416 332 z "},"b":{"ha":633,"x_min":83,"x_max":578,"o":"m 184 85 l 170 0 l 83 0 l 83 1004 l 197 1004 l 197 661 l 204 661 q 265 725 223 702 q 359 747 307 747 q 445 725 405 747 q 514 657 485 703 q 561 538 544 610 q 578 367 578 467 q 562 193 578 266 q 516 74 546 121 q 445 5 487 27 q 351 -17 404 -17 q 259 9 301 -17 q 192 85 218 35 l 184 85 m 458 392 q 450 508 458 460 q 426 587 442 556 q 385 631 410 617 q 328 646 360 646 q 197 386 197 646 l 197 339 q 230 149 197 212 q 328 85 262 85 q 385 99 360 85 q 426 144 410 113 q 450 222 442 174 q 458 339 458 271 l 458 392 z "},"c":{"ha":570,"x_min":50,"x_max":524,"o":"m 300 747 q 402 729 359 747 q 471 673 444 710 q 511 583 498 637 q 524 460 524 530 l 406 460 q 400 542 406 507 q 383 600 395 577 q 351 635 371 623 q 300 646 330 646 q 201 583 232 646 q 170 392 170 519 l 170 338 q 200 149 170 212 q 300 85 231 85 q 352 97 330 85 q 386 133 373 109 q 405 191 399 157 q 411 271 411 226 l 524 271 q 511 162 524 214 q 472 70 499 110 q 403 7 446 31 q 300 -16 360 -16 q 188 6 235 -16 q 111 76 141 29 q 65 195 80 123 q 50 366 50 267 q 111 654 50 562 q 300 747 172 747 z "},"d":{"ha":633,"x_min":56,"x_max":550,"o":"m 550 0 l 464 0 l 449 85 l 441 85 q 374 9 416 34 q 282 -16 333 -16 q 188 6 230 -16 q 116 75 146 28 q 71 194 87 121 q 56 367 56 266 q 73 538 56 466 q 120 656 90 610 q 189 725 149 703 q 274 747 229 747 q 369 725 327 747 q 429 661 410 702 l 436 661 l 436 1004 l 550 1004 l 550 0 m 305 646 q 248 632 273 646 q 208 587 224 618 q 183 508 191 557 q 175 392 175 460 l 175 338 q 183 222 175 271 q 208 144 191 174 q 248 99 224 113 q 305 85 273 85 q 404 149 372 85 q 436 338 436 212 l 436 386 q 305 646 436 646 z "},"e":{"ha":633,"x_min":58,"x_max":574,"o":"m 333 747 q 438 728 393 747 q 513 667 484 709 q 558 561 543 626 q 574 404 574 496 l 574 332 l 178 332 q 217 144 178 204 q 337 85 256 85 q 387 96 364 85 q 426 129 410 107 q 452 180 443 150 q 461 249 461 211 l 574 249 q 556 138 574 187 q 508 55 539 89 q 432 2 476 20 q 334 -16 388 -16 q 215 5 267 -16 q 129 73 163 26 q 76 192 94 119 q 58 366 58 264 q 127 654 58 562 q 333 747 196 747 m 333 646 q 268 633 295 646 q 222 592 240 619 q 193 526 203 566 q 179 433 183 486 l 454 433 q 424 592 454 538 q 333 646 393 646 z "},"f":{"ha":317,"x_min":12,"x_max":317,"o":"m 220 1015 q 273 1010 246 1015 q 317 998 299 1005 l 317 920 l 256 920 q 207 903 223 920 q 191 853 191 886 l 191 730 l 317 730 l 317 629 l 191 629 l 191 0 l 77 0 l 77 629 l 12 629 l 12 730 l 77 730 l 77 848 q 83 909 77 879 q 107 962 90 939 q 151 1001 123 986 q 220 1015 179 1015 z "},"g":{"ha":633,"x_min":18,"x_max":619,"o":"m 606 849 q 597 788 606 817 q 573 736 589 759 q 535 697 557 713 q 484 673 512 681 q 531 599 514 642 q 549 501 549 556 q 532 399 549 445 q 485 322 515 354 q 411 274 454 291 q 315 256 368 256 l 239 256 q 213 251 224 256 q 192 237 201 245 q 177 216 182 228 q 172 191 172 204 q 178 165 172 177 q 192 144 183 153 q 213 130 201 135 q 239 125 225 125 l 448 125 q 519 111 487 125 q 573 74 551 98 q 607 20 595 51 q 619 -45 619 -11 q 605 -127 619 -89 q 564 -193 591 -165 q 497 -237 537 -220 q 406 -253 457 -253 l 199 -253 q 120 -239 154 -253 q 63 -202 86 -226 q 29 -147 41 -178 q 18 -79 18 -115 q 24 -28 18 -53 q 43 17 31 -3 q 73 53 56 37 q 113 77 91 68 q 68 124 84 94 q 53 186 53 153 q 81 263 53 231 q 156 313 109 296 q 94 392 116 345 q 71 501 71 439 q 87 604 71 559 q 135 682 104 650 q 210 730 165 713 q 310 747 254 747 q 365 740 338 747 q 415 721 392 733 q 456 749 439 734 q 482 781 472 764 q 497 814 492 798 q 505 849 503 831 l 606 849 m 216 16 q 179 10 195 16 q 152 -8 163 3 q 137 -35 142 -20 q 132 -68 132 -51 q 137 -102 132 -86 q 153 -129 142 -117 q 179 -148 163 -141 q 216 -155 195 -155 l 418 -155 q 452 -148 436 -155 q 479 -129 467 -141 q 497 -102 491 -117 q 504 -68 504 -86 q 499 -35 504 -51 q 483 -8 494 -20 q 456 10 472 3 q 418 16 440 16 l 216 16 m 309 653 q 216 612 248 653 q 185 501 185 572 q 216 389 185 428 q 309 351 248 351 q 401 391 370 351 q 433 501 433 431 q 401 614 433 575 q 309 653 370 653 z "},"h":{"ha":633,"x_min":83,"x_max":550,"o":"m 197 654 l 205 654 q 274 725 234 703 q 370 747 315 747 q 444 736 411 747 q 501 698 477 724 q 537 629 524 671 q 550 526 550 587 l 550 0 l 436 0 l 436 518 q 429 581 436 556 q 408 620 421 606 q 375 641 394 635 q 333 646 356 646 q 281 633 306 646 q 238 593 257 619 q 209 530 220 568 q 197 446 197 493 l 197 0 l 83 0 l 83 1004 l 197 1004 l 197 654 z "},"i":{"ha":253,"x_min":70,"x_max":183,"o":"m 183 0 l 70 0 l 70 730 l 183 730 l 183 0 m 183 868 l 70 868 l 70 1004 l 183 1004 l 183 868 z "},"j":{"ha":253,"x_min":-57,"x_max":183,"o":"m 183 -85 q 176 -146 183 -116 q 153 -200 170 -176 q 109 -238 136 -224 q 39 -253 81 -253 q -13 -248 14 -253 q -57 -236 -39 -242 l -57 -157 l 4 -157 q 53 -140 37 -157 q 70 -90 70 -123 l 70 730 l 183 730 l 183 -85 m 183 868 l 70 868 l 70 1004 l 183 1004 l 183 868 z "},"k":{"ha":570,"x_min":83,"x_max":571,"o":"m 197 392 l 433 730 l 560 730 l 344 431 l 571 0 l 441 0 l 275 333 l 197 249 l 197 0 l 83 0 l 83 1004 l 197 1004 l 197 392 z "},"l":{"ha":253,"x_min":70,"x_max":183,"o":"m 183 0 l 70 0 l 70 1004 l 183 1004 l 183 0 z "},"m":{"ha":949,"x_min":83,"x_max":865,"o":"m 693 747 q 763 736 732 747 q 818 698 795 724 q 853 629 840 671 q 865 526 865 587 l 865 0 l 751 0 l 751 518 q 744 581 751 556 q 724 620 737 606 q 694 641 711 635 q 657 646 677 646 q 609 633 631 646 q 569 593 586 619 q 542 530 551 568 q 532 446 532 493 l 532 0 l 418 0 l 418 518 q 411 581 418 556 q 391 620 404 606 q 361 641 378 635 q 323 646 344 646 q 275 633 298 646 q 235 593 252 619 q 208 530 218 568 q 197 446 197 493 l 197 0 l 83 0 l 83 730 l 170 730 l 185 646 l 193 646 q 265 724 222 701 q 360 747 307 747 q 455 723 414 747 q 515 642 496 698 q 593 721 545 694 q 693 747 640 747 z "},"n":{"ha":633,"x_min":83,"x_max":550,"o":"m 370 747 q 444 736 411 747 q 501 698 477 724 q 537 629 524 671 q 550 526 550 587 l 550 0 l 436 0 l 436 518 q 429 581 436 556 q 408 620 421 606 q 375 641 394 635 q 333 646 356 646 q 281 633 306 646 q 238 593 257 619 q 209 530 220 568 q 197 446 197 493 l 197 0 l 83 0 l 83 730 l 170 730 l 185 646 l 193 646 q 269 724 224 701 q 370 747 315 747 z "},"o":{"ha":633,"x_min":56,"x_max":578,"o":"m 317 747 q 511 654 445 747 q 578 366 578 562 q 511 76 578 169 q 317 -16 445 -16 q 122 76 189 -16 q 56 366 56 169 q 122 654 56 562 q 317 747 189 747 m 317 646 q 210 583 245 646 q 175 392 175 519 l 175 338 q 210 149 175 212 q 317 85 245 85 q 423 149 388 85 q 458 338 458 212 l 458 392 q 423 583 458 519 q 317 646 388 646 z "},"p":{"ha":633,"x_min":83,"x_max":578,"o":"m 352 747 q 446 725 404 747 q 517 656 488 703 q 562 537 546 609 q 578 364 578 465 q 561 193 578 264 q 514 74 544 121 q 445 6 485 28 q 360 -16 406 -16 q 265 5 307 -16 q 204 64 223 26 l 197 64 l 197 -240 l 83 -240 l 83 730 l 170 730 l 185 646 l 192 646 q 259 722 218 696 q 352 747 301 747 m 328 646 q 230 583 262 646 q 197 392 197 519 l 197 338 q 230 149 197 212 q 328 85 262 85 q 385 99 360 85 q 426 144 410 113 q 450 222 442 174 q 458 338 458 271 l 458 392 q 450 508 458 460 q 426 587 442 557 q 385 632 410 618 q 328 646 360 646 z "},"q":{"ha":633,"x_min":56,"x_max":550,"o":"m 449 646 l 464 730 l 550 730 l 550 -240 l 436 -240 l 436 64 l 429 64 q 369 4 410 26 q 273 -17 327 -17 q 188 5 228 -17 q 119 74 149 27 q 73 193 90 121 q 56 364 56 264 q 72 537 56 465 q 117 656 87 610 q 188 725 146 703 q 282 747 230 747 q 374 722 332 747 q 441 646 416 696 l 449 646 m 175 339 q 183 222 175 271 q 208 144 191 174 q 249 99 224 113 q 306 85 273 85 q 404 149 372 85 q 436 339 436 212 l 436 392 q 404 582 436 518 q 306 646 372 646 q 249 631 273 646 q 208 587 224 617 q 183 508 191 556 q 175 392 175 460 l 175 339 z "},"r":{"ha":379,"x_min":83,"x_max":371,"o":"m 317 747 q 338 745 328 747 q 355 741 347 743 l 371 736 l 371 618 l 333 618 q 281 609 306 618 q 238 580 257 600 q 209 527 220 560 q 197 446 197 494 l 197 0 l 83 0 l 83 730 l 170 730 l 185 635 l 193 635 q 210 676 200 656 q 235 712 220 696 q 270 738 250 728 q 317 747 290 747 z "},"s":{"ha":570,"x_min":45,"x_max":514,"o":"m 290 747 q 380 731 341 747 q 446 688 419 715 q 486 624 473 661 q 500 547 500 588 q 499 531 500 540 q 498 521 498 523 l 380 521 l 380 533 q 376 575 380 554 q 359 612 371 595 q 328 638 347 628 q 279 648 309 648 q 230 637 249 648 q 200 612 211 627 q 184 580 189 597 q 180 547 180 562 q 195 498 180 517 q 232 465 209 479 q 286 441 256 452 q 347 420 316 431 q 409 393 378 408 q 462 354 439 378 q 500 294 486 330 q 514 208 514 259 q 496 107 514 149 q 448 37 479 64 q 374 -3 416 9 q 281 -16 331 -16 q 173 2 218 -16 q 100 50 128 20 q 59 118 72 80 q 45 197 45 157 q 46 219 45 212 q 47 228 47 226 l 167 228 l 167 214 q 176 155 167 179 q 201 114 185 130 q 239 91 218 98 q 286 83 261 83 q 328 90 309 83 q 363 111 348 97 q 387 145 378 125 q 396 192 396 165 q 382 249 396 227 q 344 287 368 271 q 291 313 321 302 q 230 336 261 324 q 168 362 198 347 q 115 400 138 377 q 77 456 92 422 q 63 538 63 490 q 79 626 63 587 q 125 691 95 665 q 196 733 155 718 q 290 747 238 747 z "},"t":{"ha":317,"x_min":19,"x_max":294,"o":"m 196 730 l 294 730 l 294 629 l 196 629 l 196 152 q 212 102 196 119 q 261 85 229 85 l 294 85 l 294 5 q 257 -8 280 -3 q 212 -14 233 -14 q 150 1 175 -14 q 110 39 125 16 q 89 93 95 63 q 82 155 82 123 l 82 629 l 19 629 l 19 730 l 82 730 l 107 933 l 196 933 l 196 730 z "},"u":{"ha":633,"x_min":83,"x_max":550,"o":"m 550 0 l 464 0 l 449 85 l 440 85 q 364 7 410 30 q 264 -16 318 -16 q 190 -5 223 -16 q 133 33 156 7 q 96 101 109 59 q 83 204 83 143 l 83 730 l 197 730 l 197 212 q 205 150 197 174 q 226 111 212 125 q 258 91 239 96 q 300 85 277 85 q 352 98 327 85 q 395 138 376 112 q 425 200 414 163 q 436 285 436 237 l 436 730 l 550 730 l 550 0 z "},"v":{"ha":570,"x_min":14,"x_max":557,"o":"m 347 0 l 223 0 l 14 730 l 138 730 l 288 175 l 293 175 l 441 730 l 557 730 l 347 0 z "},"w":{"ha":822,"x_min":1,"x_max":819,"o":"m 637 0 l 511 0 l 435 416 q 426 475 429 445 q 418 529 422 505 q 412 585 415 557 l 407 585 q 401 529 404 557 q 394 475 397 505 q 385 416 390 445 l 310 0 l 183 0 l 1 730 l 126 730 l 218 319 q 228 267 223 297 q 237 210 233 237 q 247 146 242 178 l 253 146 q 259 204 256 174 q 266 260 262 230 q 275 319 270 291 l 349 730 l 481 730 l 556 319 q 565 261 561 291 q 572 205 568 231 q 578 146 575 175 l 583 146 q 591 201 587 172 q 600 257 595 227 q 612 319 606 288 l 704 730 l 819 730 l 637 0 z "},"x":{"ha":570,"x_min":8,"x_max":562,"o":"m 347 379 l 562 0 l 423 0 l 281 267 l 133 0 l 8 0 l 220 370 l 18 730 l 156 730 l 288 481 l 423 730 l 552 730 l 347 379 z "},"y":{"ha":570,"x_min":14,"x_max":557,"o":"m 371 37 q 334 -75 355 -22 q 284 -168 313 -128 q 219 -230 256 -207 q 134 -253 182 -253 q 91 -251 111 -253 q 53 -241 71 -248 l 53 -163 l 93 -163 q 138 -155 116 -163 q 178 -128 159 -147 q 212 -78 197 -109 q 237 0 227 -47 l 14 730 l 138 730 l 300 164 l 305 164 l 441 730 l 557 730 l 371 37 z "},"z":{"ha":570,"x_min":36,"x_max":532,"o":"m 514 678 l 192 101 l 532 101 l 532 0 l 36 0 l 36 54 l 357 629 l 58 629 l 58 730 l 514 730 l 514 678 z "},"{":{"ha":380,"x_min":28,"x_max":353,"o":"m 353 941 q 315 938 334 941 q 279 923 295 934 q 253 893 263 912 q 243 843 243 873 q 240 701 243 771 q 233 557 237 631 q 225 494 232 522 q 205 447 219 466 q 168 417 191 427 q 111 407 144 407 l 111 393 q 168 383 144 393 q 205 354 191 373 q 225 306 219 334 q 233 243 232 278 q 240 99 237 170 q 243 -43 243 29 q 253 -93 243 -73 q 279 -123 263 -112 q 315 -137 295 -134 q 353 -141 334 -141 l 353 -220 q 270 -213 310 -220 q 200 -183 231 -205 q 152 -121 170 -161 q 134 -15 134 -81 l 134 258 q 125 297 134 281 q 100 323 115 313 q 66 337 85 333 q 28 341 47 341 l 28 458 q 66 463 47 458 q 100 477 85 467 q 125 502 115 486 q 134 541 134 518 l 134 815 q 152 921 134 881 q 200 984 170 962 q 270 1013 231 1006 q 353 1021 310 1021 l 353 941 z "},"|":{"ha":296,"x_min":93,"x_max":203,"o":"m 203 -240 l 93 -240 l 93 1004 l 203 1004 l 203 -240 z "},"}":{"ha":380,"x_min":28,"x_max":353,"o":"m 28 1021 q 110 1013 71 1021 q 180 984 150 1006 q 228 921 210 962 q 245 815 245 881 l 245 541 q 255 502 245 518 q 280 477 265 486 q 315 463 296 467 q 353 458 334 458 l 353 341 q 315 337 334 341 q 280 323 296 333 q 255 297 265 313 q 245 258 245 281 l 245 -15 q 228 -121 245 -81 q 180 -183 210 -161 q 110 -213 150 -205 q 28 -220 71 -220 l 28 -141 q 66 -137 47 -141 q 101 -123 85 -134 q 127 -93 117 -112 q 137 -43 137 -73 q 140 99 137 29 q 147 243 144 170 q 155 306 149 278 q 176 354 162 334 q 213 383 191 373 q 270 393 236 393 l 270 407 q 213 417 236 407 q 176 447 191 427 q 155 494 162 466 q 147 557 149 522 q 140 701 144 631 q 137 843 137 771 q 127 893 137 873 q 101 923 117 912 q 66 938 85 934 q 28 941 47 941 l 28 1021 z "},"~":{"ha":665,"x_min":48,"x_max":616,"o":"m 453 437 q 497 445 476 437 q 536 463 518 452 q 568 486 554 473 q 593 510 583 498 q 610 528 604 521 q 616 537 615 536 l 616 411 q 576 360 600 382 q 525 326 555 341 q 453 310 494 310 q 391 323 420 310 q 334 352 362 336 q 275 381 305 368 q 212 395 245 395 q 148 379 177 395 q 96 346 118 364 q 62 311 75 327 q 48 293 50 295 l 48 420 q 90 471 66 449 q 140 506 110 490 q 212 522 171 522 q 274 509 245 522 q 332 480 303 496 q 390 451 360 464 q 453 437 420 437 z "},"€":{"ha":633,"x_min":26,"x_max":593,"o":"m 500 970 q 547 966 524 970 q 593 956 570 963 l 593 857 q 555 865 574 863 q 517 868 536 868 q 421 853 467 868 q 339 807 376 838 q 274 728 302 776 q 232 615 247 680 l 513 615 l 513 525 l 219 525 q 218 500 218 512 l 218 451 q 219 427 218 439 l 513 427 l 513 337 l 232 337 q 274 224 247 272 q 339 146 302 177 q 421 100 376 115 q 517 85 467 85 q 555 87 536 85 q 593 96 574 90 l 593 -3 q 547 -13 570 -9 q 500 -16 524 -16 q 357 7 421 -16 q 243 76 292 31 q 161 186 194 121 q 114 337 129 252 l 26 337 l 26 427 l 104 427 q 103 451 103 439 l 103 500 q 104 525 103 512 l 26 525 l 26 615 l 114 615 q 161 766 129 700 q 243 877 194 832 q 357 946 292 922 q 500 970 421 970 z "},"‚":{"ha":253,"x_min":52,"x_max":191,"o":"m 191 12 l 123 -172 l 52 -172 l 107 0 l 52 0 l 52 151 l 191 151 l 191 12 z "},"ƒ":{"ha":633,"x_min":37,"x_max":582,"o":"m 490 1015 q 541 1010 515 1015 q 582 998 566 1005 l 571 920 l 509 920 q 457 903 477 920 q 436 853 438 886 l 406 660 l 532 660 l 517 559 l 391 559 l 297 -85 q 280 -152 292 -121 q 249 -205 269 -183 q 199 -240 229 -228 q 127 -253 169 -253 q 78 -248 102 -253 q 37 -236 53 -242 l 47 -157 l 109 -157 q 160 -140 141 -157 q 182 -90 180 -123 l 277 559 l 178 559 l 193 660 l 292 660 l 321 848 q 338 915 326 884 q 369 968 349 946 q 419 1003 389 991 q 490 1015 448 1015 z "},"„":{"ha":379,"x_min":33,"x_max":349,"o":"m 349 12 l 282 -172 l 210 -172 l 265 0 l 210 0 l 210 151 l 349 151 l 349 12 m 172 12 l 106 -172 l 33 -172 l 89 0 l 33 0 l 33 151 l 172 151 l 172 12 z "},"…":{"ha":1139,"x_min":121,"x_max":1017,"o":"m 1017 0 l 878 0 l 878 151 l 1017 151 l 1017 0 m 260 0 l 121 0 l 121 151 l 260 151 l 260 0 m 639 0 l 500 0 l 500 151 l 639 151 l 639 0 z "},"†":{"ha":633,"x_min":48,"x_max":583,"o":"m 353 685 l 583 708 l 583 579 l 353 604 l 380 -236 l 250 -236 l 278 604 l 48 579 l 48 708 l 278 685 l 254 953 l 376 953 l 353 685 z "},"‡":{"ha":633,"x_min":48,"x_max":583,"o":"m 353 685 l 583 708 l 583 579 l 353 604 l 380 361 l 353 113 l 583 137 l 583 8 l 353 32 l 376 -236 l 254 -236 l 278 32 l 48 8 l 48 137 l 278 113 l 250 361 l 278 604 l 48 579 l 48 708 l 278 685 l 254 953 l 376 953 l 353 685 z "},"ˆ":{"ha":379,"x_min":14,"x_max":360,"o":"m 360 815 l 249 815 l 188 925 l 125 815 l 14 815 l 133 1003 l 241 1003 l 360 815 z "},"‰":{"ha":1139,"x_min":48,"x_max":1139,"o":"m 189 0 l 103 0 l 627 953 l 715 953 l 189 0 m 607 485 q 676 472 646 485 q 727 430 706 459 q 760 352 749 400 q 771 233 771 304 q 760 114 771 162 q 727 38 749 66 q 676 -4 706 9 q 607 -16 646 -16 q 538 -4 568 -16 q 486 38 507 9 q 454 115 465 67 q 443 233 443 163 q 454 352 443 304 q 486 430 465 400 q 538 472 507 459 q 607 485 568 485 m 607 403 q 573 391 587 403 q 552 358 559 379 q 542 308 545 337 q 538 244 538 279 l 538 223 q 542 159 538 189 q 552 110 545 130 q 573 77 559 89 q 607 66 587 66 q 641 77 628 66 q 662 110 654 89 q 672 159 669 130 q 675 223 675 189 l 675 244 q 672 308 675 279 q 662 358 669 337 q 641 391 654 379 q 607 403 628 403 m 212 970 q 281 957 251 970 q 333 915 312 944 q 365 837 354 885 q 376 718 376 789 q 365 599 376 647 q 333 522 354 551 q 281 480 312 493 q 212 468 251 468 q 143 480 174 468 q 92 523 113 493 q 59 600 71 552 q 48 718 48 648 q 59 837 48 789 q 92 915 71 885 q 143 957 113 944 q 212 970 174 970 m 212 888 q 179 876 192 888 q 158 843 165 864 q 147 793 150 822 q 144 729 144 764 l 144 708 q 147 644 144 673 q 158 594 150 615 q 179 562 165 573 q 212 550 192 550 q 247 562 233 550 q 268 594 260 573 q 278 644 275 615 q 281 708 281 673 l 281 729 q 278 793 281 764 q 268 843 275 822 q 247 876 260 864 q 212 888 233 888 m 975 485 q 1044 472 1014 485 q 1095 430 1074 459 q 1127 352 1116 400 q 1139 233 1139 304 q 1127 114 1139 162 q 1095 38 1116 66 q 1044 -4 1074 9 q 975 -16 1014 -16 q 906 -4 937 -16 q 854 38 876 9 q 822 115 833 67 q 811 233 811 163 q 822 352 811 304 q 854 430 833 400 q 906 472 876 459 q 975 485 937 485 m 975 403 q 941 391 954 403 q 920 358 928 379 q 909 308 912 337 q 907 244 907 279 l 907 223 q 909 159 907 189 q 920 110 912 130 q 941 77 928 89 q 975 66 954 66 q 1009 77 996 66 q 1030 110 1023 89 q 1041 159 1038 130 q 1044 223 1044 189 l 1044 244 q 1041 308 1044 279 q 1030 358 1038 337 q 1009 391 1023 379 q 975 403 996 403 z "},"Š":{"ha":760,"x_min":57,"x_max":700,"o":"m 379 970 q 495 955 441 970 q 591 907 550 939 q 655 823 631 874 q 678 701 678 772 l 678 685 l 552 685 l 552 705 q 539 770 552 742 q 503 818 526 798 q 449 847 480 837 q 382 857 418 857 q 312 849 345 857 q 256 825 280 841 q 219 783 233 808 q 205 724 205 758 q 227 653 205 681 q 283 605 248 625 q 362 570 317 585 q 453 539 406 555 q 544 504 499 524 q 623 454 588 484 q 679 381 657 425 q 700 275 700 338 q 675 140 700 195 q 608 50 651 84 q 506 -1 565 15 q 378 -16 447 -16 q 254 -1 313 -16 q 152 48 196 14 q 83 137 109 82 q 57 270 57 191 q 58 286 57 277 q 58 297 58 294 l 185 297 q 185 293 185 296 q 184 285 184 290 q 183 276 184 281 q 183 269 183 271 q 197 192 183 224 q 237 138 212 160 q 297 106 262 117 q 372 96 332 96 q 520 136 469 96 q 572 254 572 177 q 551 329 572 299 q 495 379 530 358 q 415 414 460 399 q 325 445 371 429 q 234 480 278 460 q 154 530 189 500 q 98 605 119 561 q 77 713 77 649 q 100 828 77 779 q 165 908 124 876 q 261 955 206 939 q 379 970 317 970 m 433 1039 l 325 1039 l 207 1227 l 318 1227 l 380 1117 l 442 1227 l 553 1227 l 433 1039 z "},"‹":{"ha":379,"x_min":40,"x_max":334,"o":"m 178 453 l 334 175 l 236 175 l 40 453 l 236 730 l 334 730 l 178 453 z "},"Œ":{"ha":1139,"x_min":68,"x_max":1089,"o":"m 590 0 l 590 94 q 379 -17 514 -17 q 248 14 306 -17 q 150 106 190 44 q 89 260 110 168 q 68 476 68 352 q 89 693 68 600 q 150 847 110 785 q 248 939 190 909 q 379 970 306 970 q 590 859 513 970 l 590 953 l 1080 953 l 1080 842 l 713 842 l 713 543 l 1018 543 l 1018 432 l 713 432 l 713 111 l 1089 111 l 1089 0 l 590 0 m 196 441 q 249 181 196 267 q 393 96 301 96 q 537 181 485 96 q 590 441 590 267 l 590 511 q 537 771 590 685 q 393 857 485 857 q 249 771 301 857 q 196 511 196 685 l 196 441 z "},"Ž":{"ha":696,"x_min":28,"x_max":665,"o":"m 401 1039 l 293 1039 l 175 1226 l 286 1226 l 347 1117 l 410 1226 l 521 1226 l 401 1039 m 28 0 l 28 53 l 481 842 l 57 842 l 57 953 l 656 953 l 656 900 l 201 111 l 665 111 l 665 0 l 28 0 z "},"‘":{"ha":253,"x_min":57,"x_max":196,"o":"m 140 781 l 196 781 l 196 630 l 57 630 l 57 768 l 123 953 l 196 953 l 140 781 z "},"’":{"ha":253,"x_min":57,"x_max":196,"o":"m 196 815 l 129 630 l 57 630 l 113 803 l 57 803 l 57 953 l 196 953 l 196 815 z "},"“":{"ha":379,"x_min":31,"x_max":345,"o":"m 114 781 l 170 781 l 170 630 l 31 630 l 31 768 l 97 953 l 170 953 l 114 781 m 290 781 l 345 781 l 345 630 l 207 630 l 207 768 l 274 953 l 345 953 l 290 781 z "},"”":{"ha":379,"x_min":33,"x_max":349,"o":"m 349 815 l 282 630 l 210 630 l 265 803 l 210 803 l 210 953 l 349 953 l 349 815 m 172 815 l 106 630 l 33 630 l 89 803 l 33 803 l 33 953 l 172 953 l 172 815 z "},"•":{"ha":399,"x_min":47,"x_max":352,"o":"m 199 631 q 258 620 231 631 q 307 587 286 608 q 340 538 328 566 q 352 478 352 510 q 340 418 352 446 q 307 369 328 390 q 258 335 286 347 q 199 322 231 322 q 140 335 168 322 q 91 369 112 347 q 59 418 71 390 q 47 478 47 446 q 59 538 47 510 q 91 587 71 566 q 140 620 112 608 q 199 631 168 631 z "},"–":{"ha":633,"x_min":0,"x_max":631,"o":"m 631 323 l 0 323 l 0 427 l 631 427 l 631 323 z "},"—":{"ha":1139,"x_min":0,"x_max":1139,"o":"m 1139 323 l 0 323 l 0 427 l 1139 427 l 1139 323 z "},"˜":{"ha":379,"x_min":-14,"x_max":392,"o":"m 392 1004 q 385 955 392 980 q 364 908 378 929 q 328 873 350 887 q 274 860 305 860 q 231 867 252 860 q 192 881 211 873 q 153 896 172 889 q 114 903 134 903 q 83 893 95 903 q 67 860 71 884 l -14 860 q -7 909 -14 884 q 14 956 0 935 q 51 991 28 977 q 104 1004 73 1004 q 147 998 127 1004 q 186 983 167 991 q 224 968 205 975 q 264 962 243 962 q 295 971 283 962 q 311 1004 308 981 l 392 1004 z "},"™":{"ha":1139,"x_min":111,"x_max":1004,"o":"m 1004 392 l 932 392 l 932 859 l 926 859 l 804 392 l 739 392 l 618 859 l 612 859 l 612 392 l 547 392 l 547 953 l 657 953 l 774 504 l 779 504 l 896 953 l 1004 953 l 1004 392 m 488 885 l 336 885 l 336 393 l 264 393 l 264 885 l 111 885 l 111 953 l 488 953 l 488 885 z "},"š":{"ha":570,"x_min":45,"x_max":514,"o":"m 290 747 q 380 731 341 747 q 446 688 419 715 q 486 624 473 661 q 500 547 500 588 q 499 531 500 540 q 498 521 498 523 l 380 521 l 380 533 q 376 575 380 554 q 359 612 371 595 q 328 638 347 628 q 279 648 309 648 q 230 637 249 648 q 200 612 211 627 q 184 580 189 597 q 180 547 180 562 q 195 498 180 517 q 232 465 209 479 q 286 441 256 452 q 347 420 316 431 q 409 393 378 408 q 462 354 439 378 q 500 294 486 330 q 514 208 514 259 q 496 107 514 149 q 448 37 479 64 q 374 -3 416 9 q 281 -16 331 -16 q 173 2 218 -16 q 100 50 128 20 q 59 118 72 80 q 45 197 45 157 q 46 219 45 212 q 47 228 47 226 l 167 228 l 167 214 q 176 155 167 179 q 201 114 185 130 q 239 91 218 98 q 286 83 261 83 q 328 90 309 83 q 363 111 348 97 q 387 145 378 125 q 396 192 396 165 q 382 249 396 227 q 344 287 368 271 q 291 313 321 302 q 230 336 261 324 q 168 362 198 347 q 115 400 138 377 q 77 456 92 422 q 63 538 63 490 q 79 626 63 587 q 125 691 95 665 q 196 733 155 718 q 290 747 238 747 m 338 817 l 230 817 l 112 1004 l 223 1004 l 285 895 l 347 1004 l 458 1004 l 338 817 z "},"›":{"ha":379,"x_min":44,"x_max":338,"o":"m 338 453 l 142 175 l 44 175 l 201 453 l 44 730 l 142 730 l 338 453 z "},"œ":{"ha":1075,"x_min":74,"x_max":994,"o":"m 754 747 q 859 728 814 747 q 934 667 904 709 q 979 561 964 626 q 994 404 994 496 l 994 332 l 599 332 q 638 144 600 204 q 759 85 677 85 q 808 96 785 85 q 847 129 831 107 q 873 180 864 150 q 882 249 882 211 l 994 249 q 977 138 994 187 q 928 55 960 89 q 853 2 897 20 q 756 -16 809 -16 q 627 8 682 -16 q 537 89 572 33 q 453 9 505 34 q 334 -16 402 -16 q 140 76 207 -16 q 74 366 74 169 q 140 654 74 562 q 334 747 207 747 q 537 640 473 747 q 754 747 606 747 m 334 646 q 228 583 263 646 q 193 392 193 519 l 193 338 q 228 149 193 212 q 334 85 263 85 q 441 149 406 85 q 477 338 477 212 l 477 392 q 441 583 477 519 q 334 646 406 646 m 754 646 q 689 633 716 646 q 643 592 661 619 q 614 526 625 566 q 600 433 604 486 l 875 433 q 844 592 875 538 q 754 646 814 646 z "},"ž":{"ha":570,"x_min":36,"x_max":532,"o":"m 514 678 l 192 101 l 532 101 l 532 0 l 36 0 l 36 54 l 357 629 l 58 629 l 58 730 l 514 730 l 514 678 m 338 817 l 230 817 l 112 1004 l 223 1004 l 285 895 l 347 1004 l 458 1004 l 338 817 z "},"Ÿ":{"ha":760,"x_min":11,"x_max":749,"o":"m 441 395 l 441 0 l 319 0 l 319 395 l 11 953 l 146 953 l 387 511 l 393 511 l 630 953 l 749 953 l 441 395 m 545 1095 l 423 1095 l 423 1227 l 545 1227 l 545 1095 m 336 1095 l 215 1095 l 215 1227 l 336 1227 l 336 1095 z "}," ":{"ha":317,"x_min":0,"x_max":0,"o":""},"¡":{"ha":379,"x_min":138,"x_max":296,"o":"m 260 493 q 267 358 263 430 q 273 213 270 286 q 280 71 277 140 q 286 -57 283 1 q 291 -159 289 -115 q 296 -222 294 -202 l 138 -222 q 158 135 150 -43 q 174 493 165 314 l 260 493 m 288 581 l 149 581 l 149 730 l 288 730 l 288 581 z "},"¢":{"ha":633,"x_min":67,"x_max":566,"o":"m 360 857 q 453 832 414 852 q 517 775 492 811 q 554 687 542 739 q 566 571 566 636 l 448 571 q 429 699 448 654 q 360 754 410 743 l 360 199 q 432 255 411 209 q 453 382 453 302 l 566 382 q 554 279 566 328 q 518 191 543 230 q 454 127 493 152 q 360 96 415 102 l 360 -68 l 292 -68 l 292 96 q 121 201 176 109 q 67 477 67 293 q 121 751 67 659 q 292 856 176 844 l 292 1004 l 360 1004 l 360 857 m 292 751 q 211 674 236 736 q 186 503 186 612 l 186 450 q 211 278 186 340 q 292 200 235 216 l 292 751 z "},"£":{"ha":633,"x_min":26,"x_max":574,"o":"m 351 970 q 443 956 401 970 q 513 909 484 941 q 558 826 542 878 q 574 700 574 774 l 574 682 l 460 682 l 460 704 q 432 828 460 789 q 351 868 404 868 q 269 831 297 868 q 241 715 241 795 l 241 522 l 426 522 l 426 422 l 240 422 l 228 110 l 574 110 l 574 0 l 41 0 l 41 110 l 126 110 l 126 422 l 26 422 l 26 522 l 126 522 l 126 693 q 185 901 126 831 q 351 970 245 970 z "},"¤":{"ha":633,"x_min":-4,"x_max":637,"o":"m 317 818 q 422 796 372 818 q 511 736 471 774 l 571 795 l 637 729 l 570 661 q 605 573 593 621 q 618 475 618 526 q 605 375 618 422 q 570 289 593 328 l 637 220 l 571 155 l 511 214 q 422 155 471 176 q 317 133 372 133 q 211 155 260 133 q 122 214 162 176 l 63 155 l -4 220 l 64 289 q 28 375 41 328 q 15 475 15 422 q 28 573 15 526 q 64 661 41 621 l -4 729 l 63 795 l 121 736 q 210 796 161 774 q 317 818 260 818 m 317 722 q 236 703 273 722 q 170 650 198 684 q 126 572 142 616 q 110 475 110 527 q 126 379 110 424 q 170 301 142 334 q 236 249 198 268 q 317 229 273 229 q 397 249 359 229 q 462 301 434 268 q 506 379 490 334 q 522 475 522 424 q 506 572 522 527 q 462 650 490 616 q 397 703 434 684 q 317 722 359 722 z "},"¥":{"ha":633,"x_min":3,"x_max":629,"o":"m 420 513 l 599 513 l 599 422 l 378 422 l 378 325 l 599 325 l 599 235 l 378 235 l 378 0 l 256 0 l 256 235 l 35 235 l 35 325 l 256 325 l 256 422 l 35 422 l 35 513 l 212 513 l 3 953 l 134 953 l 323 546 l 329 546 l 514 953 l 629 953 l 420 513 z "},"¦":{"ha":296,"x_min":93,"x_max":203,"o":"m 203 477 l 93 477 l 93 1004 l 203 1004 l 203 477 m 203 -240 l 93 -240 l 93 288 l 203 288 l 203 -240 z "},"§":{"ha":633,"x_min":94,"x_max":560,"o":"m 336 970 q 427 954 387 970 q 492 910 466 938 q 532 847 519 883 q 546 770 546 810 q 545 754 546 762 q 544 743 544 745 l 426 743 l 426 756 q 421 798 426 777 q 405 834 416 818 q 373 860 393 850 q 325 869 354 869 q 276 860 295 869 q 246 835 257 850 q 231 802 235 820 q 227 770 227 785 q 241 703 227 731 q 278 653 255 675 q 332 614 302 632 q 393 578 362 597 q 455 539 425 560 q 508 490 485 518 q 546 423 532 461 q 560 332 560 385 q 552 269 560 298 q 530 217 543 241 q 498 176 516 194 q 463 144 481 157 q 495 110 480 129 q 522 69 511 92 q 539 18 533 46 q 546 -44 546 -10 q 531 -132 546 -93 q 486 -197 515 -170 q 415 -238 457 -224 q 318 -253 372 -253 q 228 -237 267 -253 q 162 -194 189 -221 q 122 -130 136 -166 q 109 -53 109 -94 q 109 -37 109 -45 q 110 -26 110 -28 l 228 -26 l 228 -39 q 233 -81 228 -60 q 249 -117 237 -101 q 280 -143 261 -134 q 329 -153 300 -153 q 378 -143 359 -153 q 408 -118 397 -133 q 423 -85 419 -103 q 427 -53 427 -68 q 413 14 427 -14 q 375 64 399 42 q 322 103 352 85 q 261 139 292 121 q 199 178 229 157 q 146 227 170 199 q 109 294 123 256 q 94 385 94 332 q 102 447 94 418 q 124 499 111 476 q 156 540 138 522 q 192 571 174 558 q 132 647 155 602 q 109 762 109 692 q 124 848 109 810 q 168 914 139 887 q 239 955 197 941 q 336 970 281 970 m 253 526 q 218 481 231 509 q 205 414 205 452 q 223 333 205 366 q 269 276 241 300 q 331 231 296 251 q 400 189 366 211 q 435 235 422 207 q 449 302 449 264 q 431 383 449 350 q 386 440 414 416 q 322 485 357 465 q 253 526 288 505 z "},"¨":{"ha":379,"x_min":25,"x_max":355,"o":"m 355 872 l 233 872 l 233 1004 l 355 1004 l 355 872 m 146 872 l 25 872 l 25 1004 l 146 1004 l 146 872 z "},"©":{"ha":839,"x_min":29,"x_max":810,"o":"m 419 970 q 583 935 511 970 q 706 836 655 900 q 783 680 756 771 q 810 477 810 589 q 783 273 810 364 q 706 118 756 182 q 583 19 655 54 q 419 -16 511 -16 q 256 19 328 -16 q 133 118 183 54 q 56 273 83 182 q 29 477 29 364 q 56 680 29 589 q 133 836 83 771 q 256 935 183 900 q 419 970 328 970 m 422 775 q 500 762 465 775 q 563 722 536 749 q 603 656 589 696 q 618 563 618 616 l 537 563 q 506 668 537 634 q 422 703 475 703 q 317 654 351 703 q 283 505 283 605 l 283 464 q 317 315 283 364 q 422 265 351 265 q 508 300 475 265 q 540 404 540 334 l 618 404 q 603 310 618 350 q 563 244 589 271 q 500 206 536 218 q 422 193 465 193 q 257 266 313 193 q 201 484 201 338 q 257 703 201 631 q 422 775 313 775 m 419 904 q 283 874 343 904 q 180 788 222 844 q 115 653 138 732 q 93 477 93 574 q 115 300 93 379 q 180 164 138 220 q 283 78 222 109 q 419 48 343 48 q 556 78 495 48 q 659 164 616 109 q 723 300 701 220 q 746 477 746 379 q 723 653 746 574 q 659 788 701 732 q 556 874 616 844 q 419 904 495 904 z "},"ª":{"ha":421,"x_min":28,"x_max":414,"o":"m 207 1021 q 321 984 283 1021 q 359 882 359 948 l 359 607 q 366 583 359 590 q 382 576 374 576 l 414 576 l 414 519 q 393 510 406 514 q 361 507 379 507 q 310 523 331 507 q 281 567 289 539 q 230 519 261 536 q 160 503 199 503 q 118 508 141 503 q 75 528 95 513 q 41 570 55 543 q 28 643 28 597 q 46 728 28 695 q 98 779 65 761 q 177 804 132 798 q 277 811 222 811 l 277 871 q 273 902 277 888 q 261 927 270 916 q 239 943 253 937 q 203 949 224 949 q 168 942 182 949 q 145 924 153 935 q 133 900 136 913 q 129 872 129 886 l 129 859 l 47 859 l 47 882 q 59 943 47 917 q 92 986 71 968 q 143 1012 113 1003 q 207 1021 172 1021 m 277 737 q 211 734 241 737 q 159 721 180 730 q 126 693 138 711 q 114 648 114 675 q 130 592 114 608 q 178 576 146 576 q 212 584 195 576 q 244 606 230 591 q 268 643 258 621 q 277 694 277 665 l 277 737 z "},"«":{"ha":633,"x_min":75,"x_max":579,"o":"m 423 453 l 579 175 l 482 175 l 285 453 l 482 730 l 579 730 l 423 453 m 212 453 l 370 175 l 271 175 l 75 453 l 271 730 l 370 730 l 212 453 z "},"¬":{"ha":665,"x_min":54,"x_max":604,"o":"m 604 274 l 488 274 l 488 500 l 54 500 l 54 629 l 604 629 l 604 274 z "},"­":{"ha":379,"x_min":14,"x_max":364,"o":"m 364 307 l 14 307 l 14 443 l 364 443 l 364 307 z "},"®":{"ha":839,"x_min":29,"x_max":810,"o":"m 419 970 q 583 935 511 970 q 706 836 655 900 q 783 680 756 771 q 810 477 810 589 q 783 273 810 364 q 706 118 756 182 q 583 19 655 54 q 419 -16 511 -16 q 256 19 328 -16 q 133 118 183 54 q 56 273 83 182 q 29 477 29 364 q 56 680 29 589 q 133 836 83 771 q 256 935 183 900 q 419 970 328 970 m 419 904 q 283 874 343 904 q 180 788 222 844 q 115 653 138 732 q 93 477 93 574 q 115 300 93 379 q 180 164 138 220 q 283 78 222 109 q 419 48 343 48 q 556 78 495 48 q 659 164 616 109 q 723 300 701 220 q 746 477 746 379 q 723 653 746 574 q 659 788 701 732 q 556 874 616 844 q 419 904 495 904 m 465 764 q 522 754 496 764 q 568 725 549 744 q 597 681 587 707 q 608 623 608 654 q 602 577 608 599 q 583 539 595 556 q 555 511 571 523 q 521 493 539 499 l 521 488 q 541 476 527 485 q 569 451 555 468 q 593 406 583 433 q 604 338 604 378 q 607 290 604 309 q 614 260 609 271 q 626 242 619 248 q 643 232 633 235 l 643 208 q 626 204 637 206 q 603 201 614 201 q 573 207 587 201 q 548 224 559 212 q 530 256 536 236 q 524 307 524 277 q 515 377 524 350 q 493 421 506 405 q 464 443 479 437 q 433 449 448 449 l 321 449 l 321 205 l 241 205 l 241 764 l 465 764 m 321 690 l 321 522 l 436 522 q 502 547 478 522 q 526 608 526 571 q 503 669 526 648 q 440 690 479 690 l 321 690 z "},"¯":{"ha":379,"x_min":16,"x_max":364,"o":"m 364 831 l 16 831 l 16 932 l 364 932 l 364 831 z "},"°":{"ha":555,"x_min":87,"x_max":463,"o":"m 275 970 q 348 955 314 970 q 408 915 382 941 q 448 856 433 890 q 463 782 463 821 q 448 709 463 743 q 408 649 433 675 q 348 609 382 624 q 275 595 314 595 q 202 609 236 595 q 142 649 168 624 q 102 709 117 675 q 87 782 87 743 q 102 856 87 821 q 142 915 117 890 q 202 955 168 941 q 275 970 236 970 m 275 895 q 231 886 252 895 q 195 862 210 877 q 170 826 179 846 q 161 782 161 806 q 170 738 161 758 q 195 702 179 717 q 231 677 210 686 q 275 668 252 668 q 319 677 298 668 q 354 702 339 686 q 378 738 370 717 q 387 782 387 758 q 378 826 387 806 q 354 862 370 846 q 319 886 339 877 q 275 895 298 895 z "},"±":{"ha":762,"x_min":109,"x_max":653,"o":"m 437 547 l 653 547 l 653 431 l 437 431 l 437 176 l 322 176 l 322 431 l 109 431 l 109 547 l 322 547 l 322 803 l 437 803 l 437 547 m 653 0 l 109 0 l 109 115 l 653 115 l 653 0 z "},"²":{"ha":379,"x_min":33,"x_max":351,"o":"m 196 1021 q 255 1012 227 1021 q 304 986 283 1004 q 337 939 325 968 q 349 869 349 910 q 337 803 349 835 q 306 741 325 770 q 263 683 287 711 q 218 631 240 656 q 176 586 198 610 q 140 534 153 563 l 351 534 l 351 448 l 33 448 l 33 469 q 50 548 33 512 q 91 616 66 585 q 145 678 116 648 q 199 738 174 708 q 240 800 224 768 q 257 869 257 832 q 254 893 257 881 q 244 916 252 905 q 225 932 237 926 q 195 939 213 939 q 164 931 177 939 q 144 912 152 924 q 133 883 136 899 q 129 848 129 866 l 129 804 l 41 804 q 40 818 41 810 q 39 831 39 824 q 39 846 39 839 q 52 926 39 892 q 86 980 64 959 q 136 1011 108 1001 q 196 1021 165 1021 z "},"³":{"ha":379,"x_min":32,"x_max":355,"o":"m 193 1021 q 256 1010 228 1021 q 303 980 283 1000 q 334 930 323 960 q 345 861 345 900 q 328 786 345 814 q 279 737 311 758 q 333 687 312 721 q 355 604 355 653 q 343 534 355 565 q 310 483 331 504 q 260 450 289 461 q 196 439 231 439 q 74 485 116 439 q 32 612 32 532 l 32 627 l 121 627 l 121 610 q 191 518 121 518 q 246 540 225 518 q 267 608 267 562 q 261 651 267 634 q 243 677 254 667 q 218 691 233 687 q 189 694 204 694 l 140 694 l 140 774 l 191 774 q 238 794 218 774 q 258 857 258 814 q 239 921 258 901 q 195 941 220 941 q 148 920 168 941 q 129 854 129 899 l 129 836 l 41 836 l 41 861 q 53 927 41 898 q 84 977 64 956 q 132 1009 104 998 q 193 1021 160 1021 z "},"´":{"ha":379,"x_min":94,"x_max":340,"o":"m 340 1000 l 191 821 l 94 821 l 214 1004 l 338 1004 l 340 1000 z "},"µ":{"ha":633,"x_min":83,"x_max":550,"o":"m 550 0 l 464 0 l 449 85 l 440 85 q 364 7 410 30 q 264 -16 318 -16 q 228 -14 245 -16 q 197 -7 212 -12 l 197 -240 l 83 -240 l 83 730 l 197 730 l 197 197 q 205 142 197 164 q 227 108 213 121 q 259 90 240 95 q 300 85 278 85 q 352 98 327 85 q 395 138 376 112 q 425 200 414 163 q 436 285 436 237 l 436 730 l 550 730 l 550 0 z "},"¶":{"ha":611,"x_min":25,"x_max":582,"o":"m 582 868 l 515 868 l 515 -240 l 423 -240 l 423 868 l 351 868 l 351 -240 l 260 -240 l 260 347 q 167 379 210 353 q 93 446 124 406 q 43 538 61 486 q 25 649 25 590 q 46 767 25 712 q 102 864 66 823 q 187 929 138 905 q 292 953 235 953 l 582 953 l 582 868 z "},"·":{"ha":317,"x_min":87,"x_max":228,"o":"m 228 400 l 87 400 l 87 555 l 228 555 l 228 400 z "},"¸":{"ha":379,"x_min":50,"x_max":311,"o":"m 199 -50 q 241 -57 221 -52 q 277 -73 262 -62 q 302 -100 293 -83 q 311 -140 311 -116 q 297 -197 311 -175 q 260 -232 282 -219 q 213 -249 238 -244 q 167 -253 188 -253 q 106 -250 137 -253 q 50 -241 75 -247 l 50 -174 l 156 -174 q 192 -167 179 -174 q 205 -140 205 -160 q 196 -115 205 -123 q 159 -107 186 -107 l 113 -107 l 132 15 l 208 15 l 199 -50 z "},"¹":{"ha":379,"x_min":54,"x_max":353,"o":"m 252 528 l 353 528 l 353 448 l 56 448 l 56 528 l 165 528 l 165 886 l 54 886 l 54 946 q 91 954 71 948 q 133 967 111 959 q 174 985 154 975 q 211 1006 195 995 l 252 1006 l 252 528 z "},"º":{"ha":415,"x_min":29,"x_max":385,"o":"m 207 1021 q 339 958 294 1021 q 385 762 385 895 q 340 564 385 627 q 207 501 295 501 q 75 564 120 501 q 29 762 29 627 q 75 958 29 895 q 207 1021 120 1021 m 207 947 q 138 905 160 947 q 115 779 115 863 l 115 743 q 138 617 115 659 q 207 575 160 575 q 300 743 300 575 l 300 779 q 207 947 300 947 z "},"»":{"ha":633,"x_min":54,"x_max":559,"o":"m 559 453 l 363 175 l 264 175 l 420 453 l 264 730 l 363 730 l 559 453 m 349 453 l 152 175 l 54 175 l 210 453 l 54 730 l 152 730 l 349 453 z "},"¼":{"ha":950,"x_min":43,"x_max":892,"o":"m 247 -16 l 160 -16 l 737 970 l 823 970 l 247 -16 m 240 475 l 341 475 l 341 395 l 44 395 l 44 475 l 155 475 l 155 833 l 43 833 l 43 893 q 80 901 59 895 q 122 914 100 906 q 163 932 143 922 q 200 953 184 942 l 240 953 l 240 475 m 771 574 q 741 466 760 521 q 703 363 723 412 q 664 275 684 314 q 631 212 645 235 l 750 212 l 750 338 q 762 369 755 351 q 775 408 768 387 q 788 451 782 429 q 799 493 795 473 l 836 493 l 836 212 l 892 212 l 892 133 l 836 133 l 836 0 l 750 0 l 750 133 l 540 133 l 540 205 q 622 381 585 286 q 685 574 659 477 l 771 574 z "},"½":{"ha":950,"x_min":43,"x_max":890,"o":"m 232 -16 l 144 -16 l 722 970 l 808 970 l 232 -16 m 240 475 l 341 475 l 341 395 l 44 395 l 44 475 l 155 475 l 155 833 l 43 833 l 43 893 q 80 901 59 895 q 122 914 100 906 q 163 932 143 922 q 200 953 184 942 l 240 953 l 240 475 m 736 574 q 795 565 767 574 q 844 538 823 557 q 877 491 865 520 q 889 422 889 463 q 877 355 889 387 q 846 294 865 323 q 804 237 827 264 q 759 185 781 210 q 716 139 739 163 q 681 87 693 115 l 890 87 l 890 0 l 574 0 l 574 22 q 590 101 574 65 q 632 170 607 138 q 686 231 656 201 q 740 291 715 261 q 781 353 764 321 q 798 422 798 385 q 795 446 798 433 q 785 469 792 458 q 766 485 778 479 q 734 492 753 492 q 705 485 717 492 q 685 465 692 477 q 673 436 677 452 q 669 400 669 419 l 669 357 l 582 357 q 581 371 581 363 q 579 384 580 377 q 579 399 579 391 q 592 478 579 445 q 627 533 605 511 q 676 564 648 554 q 736 574 705 574 z "},"¾":{"ha":950,"x_min":37,"x_max":892,"o":"m 236 -16 l 149 -16 l 726 970 l 812 970 l 236 -16 m 199 970 q 261 959 233 970 q 310 928 290 949 q 341 878 330 908 q 352 810 352 848 q 334 734 352 763 q 285 686 316 706 q 339 636 317 669 q 360 553 360 602 q 348 483 360 514 q 315 431 336 452 q 265 398 294 410 q 201 387 236 387 q 79 434 121 387 q 37 562 37 481 l 37 576 l 126 576 l 126 559 q 196 467 126 467 q 252 488 231 467 q 273 557 273 510 q 266 599 273 583 q 249 625 260 616 q 224 639 238 635 q 195 643 210 643 l 146 643 l 146 722 l 196 722 q 243 743 223 722 q 264 806 264 763 q 244 870 264 850 q 200 890 225 890 q 154 869 173 890 q 134 803 134 848 l 134 785 l 47 785 l 47 810 q 58 876 47 846 q 90 926 69 905 q 138 958 110 947 q 199 970 165 970 m 771 574 q 741 466 760 521 q 703 363 723 412 q 664 275 684 314 q 631 212 645 235 l 750 212 l 750 338 q 762 369 755 351 q 775 408 768 387 q 788 451 782 429 q 799 493 795 473 l 836 493 l 836 212 l 892 212 l 892 133 l 836 133 l 836 0 l 750 0 l 750 133 l 540 133 l 540 205 q 622 381 585 286 q 685 574 659 477 l 771 574 z "},"¿":{"ha":696,"x_min":97,"x_max":606,"o":"m 399 403 q 386 321 399 355 q 353 260 373 288 q 311 209 334 233 q 269 158 288 184 q 236 97 249 131 q 223 18 223 64 q 225 -6 223 8 q 231 -37 227 -21 q 245 -71 236 -54 q 268 -101 254 -87 q 304 -123 283 -115 q 355 -132 326 -132 q 421 -112 397 -132 q 459 -62 446 -92 q 476 -1 472 -33 q 479 56 479 31 q 479 71 479 64 q 479 83 479 77 q 478 93 478 89 l 602 93 q 604 75 602 84 q 605 59 604 68 q 606 44 606 51 q 589 -69 606 -17 q 541 -158 573 -121 q 459 -217 508 -196 q 344 -239 410 -239 q 246 -221 291 -239 q 168 -172 201 -203 q 116 -95 134 -140 q 97 3 97 -51 q 111 112 97 67 q 144 189 124 156 q 188 247 164 222 q 231 297 211 271 q 264 352 251 322 q 278 423 278 381 l 278 481 l 399 481 l 399 403 m 408 581 l 270 581 l 270 730 l 408 730 l 408 581 z "},"À":{"ha":760,"x_min":-1,"x_max":761,"o":"m 367 1043 l 216 1222 l 218 1226 l 343 1226 l 463 1043 l 367 1043 m 564 212 l 186 212 l 121 0 l -1 0 l 301 953 l 458 953 l 761 0 l 629 0 l 564 212 m 220 323 l 529 323 l 400 747 q 392 777 396 759 q 385 812 389 795 q 378 852 382 831 l 372 852 q 365 811 368 831 q 357 777 361 794 q 350 747 353 759 l 220 323 z "},"Á":{"ha":760,"x_min":-1,"x_max":761,"o":"m 393 1043 l 297 1043 l 416 1226 l 542 1226 l 543 1222 l 393 1043 m 564 212 l 186 212 l 121 0 l -1 0 l 301 953 l 458 953 l 761 0 l 629 0 l 564 212 m 220 323 l 529 323 l 400 747 q 392 777 396 759 q 385 812 389 795 q 378 852 382 831 l 372 852 q 365 811 368 831 q 357 777 361 794 q 350 747 353 759 l 220 323 z "},"Â":{"ha":760,"x_min":-1,"x_max":761,"o":"m 553 1038 l 441 1038 l 380 1147 l 318 1038 l 207 1038 l 326 1225 l 435 1225 l 553 1038 m 564 212 l 186 212 l 121 0 l -1 0 l 301 953 l 458 953 l 761 0 l 629 0 l 564 212 m 220 323 l 529 323 l 400 747 q 392 777 396 759 q 385 812 389 795 q 378 852 382 831 l 372 852 q 365 811 368 831 q 357 777 361 794 q 350 747 353 759 l 220 323 z "},"Ã":{"ha":760,"x_min":-1,"x_max":761,"o":"m 582 1226 q 575 1177 582 1202 q 555 1130 569 1151 q 518 1095 541 1109 q 464 1082 496 1082 q 421 1088 441 1082 q 382 1103 401 1095 q 344 1118 363 1112 q 304 1125 325 1125 q 273 1115 286 1125 q 258 1082 260 1105 l 176 1082 q 183 1132 176 1106 q 204 1178 190 1157 q 241 1213 218 1199 q 294 1226 263 1226 q 337 1220 317 1226 q 376 1205 357 1213 q 415 1191 395 1198 q 454 1185 434 1185 q 486 1194 473 1185 q 501 1226 498 1202 l 582 1226 m 564 212 l 186 212 l 121 0 l -1 0 l 301 953 l 458 953 l 761 0 l 629 0 l 564 212 m 220 323 l 529 323 l 400 747 q 392 777 396 759 q 385 812 389 795 q 378 852 382 831 l 372 852 q 365 811 368 831 q 357 777 361 794 q 350 747 353 759 l 220 323 z "},"Ä":{"ha":760,"x_min":-1,"x_max":761,"o":"m 545 1095 l 424 1095 l 424 1226 l 545 1226 l 545 1095 m 336 1095 l 215 1095 l 215 1226 l 336 1226 l 336 1095 m 564 212 l 186 212 l 121 0 l -1 0 l 301 953 l 458 953 l 761 0 l 629 0 l 564 212 m 220 323 l 529 323 l 400 747 q 392 777 396 759 q 385 812 389 795 q 378 852 382 831 l 372 852 q 365 811 368 831 q 357 777 361 794 q 350 747 353 759 l 220 323 z "},"Å":{"ha":760,"x_min":-1,"x_max":761,"o":"m 379 1271 q 432 1260 408 1271 q 475 1232 457 1250 q 503 1189 492 1213 q 513 1137 513 1164 q 503 1085 513 1109 q 474 1043 492 1061 q 432 1015 456 1025 q 379 1004 408 1004 q 328 1015 352 1004 q 286 1043 304 1025 q 256 1085 267 1061 q 245 1137 245 1109 q 256 1190 245 1165 q 285 1232 267 1214 q 327 1260 303 1250 q 379 1271 351 1271 m 379 1208 q 352 1203 365 1208 q 330 1187 340 1197 q 314 1165 320 1178 q 309 1137 309 1152 q 314 1110 309 1123 q 330 1087 320 1097 q 352 1072 340 1078 q 379 1067 365 1067 q 406 1072 393 1067 q 429 1087 419 1078 q 445 1110 439 1097 q 450 1137 450 1123 q 445 1165 450 1152 q 429 1187 439 1178 q 406 1203 419 1197 q 379 1208 393 1208 m 564 212 l 186 212 l 121 0 l -1 0 l 301 953 l 458 953 l 761 0 l 629 0 l 564 212 m 220 323 l 529 323 l 400 747 q 392 777 396 759 q 385 812 389 795 q 378 852 382 831 l 372 852 q 365 811 368 831 q 357 777 361 794 q 350 747 353 759 l 220 323 z "},"Æ":{"ha":1139,"x_min":-1,"x_max":1088,"o":"m 629 0 l 582 212 l 203 212 l 121 0 l -1 0 l 387 953 l 1079 953 l 1079 842 l 570 842 l 637 543 l 1018 543 l 1018 432 l 663 432 l 734 111 l 1088 111 l 1088 0 l 629 0 m 245 323 l 558 323 l 464 754 q 458 781 460 766 q 453 809 455 795 q 449 840 450 825 l 443 840 q 433 808 438 824 q 423 780 428 795 q 414 754 418 766 l 245 323 z "},"Ç":{"ha":822,"x_min":58,"x_max":766,"o":"m 433 970 q 567 947 506 970 q 672 880 628 925 q 741 768 716 836 q 766 608 766 700 l 640 608 q 626 718 640 671 q 584 795 611 764 q 518 842 557 826 q 433 857 480 857 q 247 771 308 857 q 186 511 186 686 l 186 441 q 247 181 186 267 q 433 96 308 96 q 520 111 481 96 q 587 157 559 126 q 629 233 614 187 q 644 341 644 279 l 766 341 q 741 182 766 249 q 672 71 716 115 q 567 5 628 26 q 434 -16 507 -16 l 429 -50 q 472 -57 452 -52 q 508 -73 492 -62 q 533 -100 524 -83 q 542 -140 542 -116 q 527 -197 542 -175 q 491 -232 513 -219 q 444 -249 469 -244 q 397 -253 418 -253 q 337 -250 368 -253 q 281 -241 306 -247 l 281 -174 l 387 -174 q 423 -167 410 -174 q 436 -140 436 -160 q 426 -115 436 -123 q 389 -107 416 -107 l 343 -107 l 358 -11 q 134 134 210 12 q 58 477 58 255 q 153 847 58 724 q 433 970 248 970 z "},"È":{"ha":760,"x_min":97,"x_max":693,"o":"m 367 1043 l 216 1222 l 218 1226 l 343 1226 l 463 1043 l 367 1043 m 97 0 l 97 953 l 685 953 l 685 842 l 220 842 l 220 543 l 624 543 l 624 432 l 220 432 l 220 111 l 693 111 l 693 0 l 97 0 z "},"É":{"ha":760,"x_min":97,"x_max":693,"o":"m 393 1043 l 297 1043 l 416 1226 l 542 1226 l 543 1222 l 393 1043 m 97 0 l 97 953 l 685 953 l 685 842 l 220 842 l 220 543 l 624 543 l 624 432 l 220 432 l 220 111 l 693 111 l 693 0 l 97 0 z "},"Ê":{"ha":760,"x_min":97,"x_max":693,"o":"m 553 1038 l 441 1038 l 380 1147 l 318 1038 l 207 1038 l 326 1225 l 435 1225 l 553 1038 m 97 0 l 97 953 l 685 953 l 685 842 l 220 842 l 220 543 l 624 543 l 624 432 l 220 432 l 220 111 l 693 111 l 693 0 l 97 0 z "},"Ë":{"ha":760,"x_min":97,"x_max":693,"o":"m 545 1095 l 424 1095 l 424 1226 l 545 1226 l 545 1095 m 336 1095 l 215 1095 l 215 1226 l 336 1226 l 336 1095 m 97 0 l 97 953 l 685 953 l 685 842 l 220 842 l 220 543 l 624 543 l 624 432 l 220 432 l 220 111 l 693 111 l 693 0 l 97 0 z "},"Ì":{"ha":317,"x_min":-5,"x_max":241,"o":"m 97 0 l 97 953 l 219 953 l 219 0 l 97 0 m 146 1043 l -5 1222 l -3 1227 l 122 1227 l 241 1043 l 146 1043 z "},"Í":{"ha":317,"x_min":76,"x_max":321,"o":"m 97 0 l 97 953 l 219 953 l 219 0 l 97 0 m 172 1043 l 76 1043 l 195 1227 l 320 1227 l 321 1222 l 172 1043 z "},"Î":{"ha":317,"x_min":-15,"x_max":332,"o":"m 219 0 l 97 0 l 97 953 l 219 953 l 219 0 m 332 1038 l 221 1038 l 160 1147 l 97 1038 l -15 1038 l 105 1225 l 214 1225 l 332 1038 z "},"Ï":{"ha":317,"x_min":-6,"x_max":323,"o":"m 219 0 l 97 0 l 97 953 l 219 953 l 219 0 m 323 1095 l 202 1095 l 202 1227 l 323 1227 l 323 1095 m 115 1095 l -6 1095 l -6 1227 l 115 1227 l 115 1095 z "},"Ð":{"ha":822,"x_min":7,"x_max":754,"o":"m 7 538 l 97 538 l 97 953 l 393 953 q 544 924 477 953 q 658 837 611 895 q 729 692 705 779 q 754 490 754 606 q 729 276 754 368 q 658 123 705 184 q 544 31 611 62 q 393 0 477 0 l 97 0 l 97 449 l 7 449 l 7 538 m 220 842 l 220 538 l 437 538 l 437 449 l 220 449 l 220 111 l 382 111 q 483 133 438 111 q 560 197 528 154 q 609 304 592 239 q 627 456 627 369 l 627 525 q 609 664 627 604 q 560 763 592 724 q 483 822 528 802 q 382 842 438 842 l 220 842 z "},"Ñ":{"ha":822,"x_min":97,"x_max":725,"o":"m 725 0 l 623 0 l 267 607 q 247 644 258 623 q 227 686 237 665 q 205 734 216 709 l 201 733 q 204 685 203 708 q 206 644 205 665 q 207 607 207 622 l 207 0 l 97 0 l 97 953 l 203 953 l 557 355 q 575 319 565 341 q 594 277 585 297 q 615 227 604 252 l 619 228 q 617 279 618 255 q 615 322 616 300 q 615 355 615 343 l 615 953 l 725 953 l 725 0 m 614 1227 q 607 1177 614 1202 q 586 1131 600 1152 q 549 1096 572 1109 q 496 1082 527 1082 q 453 1089 473 1082 q 413 1104 433 1096 q 375 1118 394 1112 q 336 1125 356 1125 q 304 1116 317 1125 q 289 1082 292 1106 l 208 1082 q 215 1132 208 1106 q 236 1179 222 1158 q 273 1213 250 1200 q 326 1227 295 1227 q 369 1220 349 1227 q 408 1205 389 1213 q 446 1191 427 1198 q 486 1184 465 1184 q 517 1194 505 1184 q 533 1227 530 1203 l 614 1227 z "},"Ò":{"ha":886,"x_min":68,"x_max":818,"o":"m 443 970 q 600 939 530 970 q 718 847 670 909 q 792 693 766 785 q 818 477 818 601 q 792 260 818 353 q 718 106 766 168 q 600 14 670 45 q 443 -16 530 -16 q 286 14 355 -16 q 168 106 216 45 q 94 260 120 168 q 68 477 68 353 q 94 693 68 601 q 168 847 120 785 q 286 939 216 909 q 443 970 355 970 m 443 857 q 340 836 386 857 q 262 771 294 814 q 213 663 230 728 q 196 511 196 598 l 196 441 q 213 290 196 355 q 262 181 230 224 q 340 117 294 138 q 443 96 386 96 q 546 117 500 96 q 624 181 592 138 q 673 290 656 224 q 690 441 690 355 l 690 511 q 673 663 690 598 q 624 771 656 728 q 546 836 592 814 q 443 857 500 857 m 431 1043 l 280 1222 l 281 1227 l 407 1227 l 526 1043 l 431 1043 z "},"Ó":{"ha":886,"x_min":68,"x_max":818,"o":"m 443 970 q 600 939 530 970 q 718 847 670 909 q 792 693 766 785 q 818 477 818 601 q 792 260 818 353 q 718 106 766 168 q 600 14 670 45 q 443 -16 530 -16 q 286 14 355 -16 q 168 106 216 45 q 94 260 120 168 q 68 477 68 353 q 94 693 68 601 q 168 847 120 785 q 286 939 216 909 q 443 970 355 970 m 443 857 q 340 836 386 857 q 262 771 294 814 q 213 663 230 728 q 196 511 196 598 l 196 441 q 213 290 196 355 q 262 181 230 224 q 340 117 294 138 q 443 96 386 96 q 546 117 500 96 q 624 181 592 138 q 673 290 656 224 q 690 441 690 355 l 690 511 q 673 663 690 598 q 624 771 656 728 q 546 836 592 814 q 443 857 500 857 m 457 1043 l 361 1043 l 480 1227 l 605 1227 l 606 1222 l 457 1043 z "},"Ô":{"ha":886,"x_min":68,"x_max":818,"o":"m 443 970 q 600 939 530 970 q 718 847 670 909 q 792 693 766 785 q 818 477 818 601 q 792 260 818 353 q 718 106 766 168 q 600 14 670 45 q 443 -16 530 -16 q 286 14 355 -16 q 168 106 216 45 q 94 260 120 168 q 68 477 68 353 q 94 693 68 601 q 168 847 120 785 q 286 939 216 909 q 443 970 355 970 m 443 857 q 340 836 386 857 q 262 771 294 814 q 213 663 230 728 q 196 511 196 598 l 196 441 q 213 290 196 355 q 262 181 230 224 q 340 117 294 138 q 443 96 386 96 q 546 117 500 96 q 624 181 592 138 q 673 290 656 224 q 690 441 690 355 l 690 511 q 673 663 690 598 q 624 771 656 728 q 546 836 592 814 q 443 857 500 857 m 617 1038 l 506 1038 l 445 1147 l 382 1038 l 271 1038 l 390 1225 l 498 1225 l 617 1038 z "},"Õ":{"ha":886,"x_min":68,"x_max":818,"o":"m 443 970 q 600 939 530 970 q 718 847 670 909 q 792 693 766 785 q 818 477 818 601 q 792 260 818 353 q 718 106 766 168 q 600 14 670 45 q 443 -16 530 -16 q 286 14 355 -16 q 168 106 216 45 q 94 260 120 168 q 68 477 68 353 q 94 693 68 601 q 168 847 120 785 q 286 939 216 909 q 443 970 355 970 m 443 857 q 340 836 386 857 q 262 771 294 814 q 213 663 230 728 q 196 511 196 598 l 196 441 q 213 290 196 355 q 262 181 230 224 q 340 117 294 138 q 443 96 386 96 q 546 117 500 96 q 624 181 592 138 q 673 290 656 224 q 690 441 690 355 l 690 511 q 673 663 690 598 q 624 771 656 728 q 546 836 592 814 q 443 857 500 857 m 646 1227 q 640 1177 646 1202 q 618 1131 633 1152 q 582 1096 604 1109 q 528 1082 559 1082 q 486 1089 506 1082 q 446 1104 465 1096 q 408 1118 427 1112 q 368 1125 389 1125 q 337 1116 349 1125 q 321 1082 325 1106 l 241 1082 q 248 1132 241 1106 q 269 1179 254 1158 q 305 1213 283 1200 q 359 1227 328 1227 q 401 1220 381 1227 q 440 1205 421 1213 q 479 1191 460 1198 q 518 1184 498 1184 q 550 1194 537 1184 q 566 1227 562 1203 l 646 1227 z "},"Ö":{"ha":886,"x_min":68,"x_max":818,"o":"m 443 970 q 600 939 530 970 q 718 847 670 909 q 792 693 766 785 q 818 477 818 601 q 792 260 818 353 q 718 106 766 168 q 600 14 670 45 q 443 -16 530 -16 q 286 14 355 -16 q 168 106 216 45 q 94 260 120 168 q 68 477 68 353 q 94 693 68 601 q 168 847 120 785 q 286 939 216 909 q 443 970 355 970 m 443 857 q 340 836 386 857 q 262 771 294 814 q 213 663 230 728 q 196 511 196 598 l 196 441 q 213 290 196 355 q 262 181 230 224 q 340 117 294 138 q 443 96 386 96 q 546 117 500 96 q 624 181 592 138 q 673 290 656 224 q 690 441 690 355 l 690 511 q 673 663 690 598 q 624 771 656 728 q 546 836 592 814 q 443 857 500 857 m 608 1095 l 487 1095 l 487 1227 l 608 1227 l 608 1095 m 399 1095 l 279 1095 l 279 1227 l 399 1227 l 399 1095 z "},"×":{"ha":665,"x_min":53,"x_max":631,"o":"m 556 648 q 594 606 576 626 q 631 566 613 587 l 419 355 l 631 144 q 593 103 612 123 q 556 63 574 83 q 449 166 503 115 q 342 271 395 218 l 129 63 q 92 103 111 83 q 53 144 73 123 l 265 355 l 53 566 q 92 606 73 587 q 129 648 111 626 l 342 436 l 556 648 z "},"Ø":{"ha":886,"x_min":68,"x_max":818,"o":"m 718 846 q 792 692 766 785 q 818 477 818 600 q 792 260 818 353 q 718 106 766 168 q 600 14 670 45 q 443 -16 530 -16 q 322 0 377 -16 q 222 52 267 17 l 159 -52 l 70 -52 l 168 106 q 94 260 119 168 q 68 477 68 352 q 94 693 68 601 q 168 847 120 785 q 286 939 216 909 q 443 970 355 970 q 664 900 576 970 l 729 1004 l 818 1004 l 718 846 m 286 155 q 443 96 346 96 q 546 117 500 96 q 624 181 592 138 q 673 290 656 224 q 690 441 690 355 l 690 511 q 680 635 690 581 q 648 732 669 690 l 286 155 m 443 857 q 340 836 386 857 q 262 771 294 814 q 213 663 230 728 q 196 511 196 598 l 196 441 q 207 317 196 372 q 239 219 218 262 l 600 798 q 443 857 537 857 z "},"Ù":{"ha":822,"x_min":97,"x_max":725,"o":"m 725 310 q 704 169 725 229 q 642 66 682 108 q 543 4 601 25 q 411 -16 484 -16 q 279 4 338 -16 q 180 66 221 25 q 118 169 140 108 q 97 310 97 229 l 97 953 l 219 953 l 219 302 q 270 149 219 201 q 411 96 321 96 q 552 149 500 96 q 603 302 603 201 l 603 953 l 725 953 l 725 310 m 398 1043 l 248 1222 l 249 1227 l 374 1227 l 494 1043 l 398 1043 z "},"Ú":{"ha":822,"x_min":97,"x_max":725,"o":"m 725 310 q 704 169 725 229 q 642 66 682 108 q 543 4 601 25 q 411 -16 484 -16 q 279 4 338 -16 q 180 66 221 25 q 118 169 140 108 q 97 310 97 229 l 97 953 l 219 953 l 219 302 q 270 149 219 201 q 411 96 321 96 q 552 149 500 96 q 603 302 603 201 l 603 953 l 725 953 l 725 310 m 425 1043 l 328 1043 l 448 1227 l 572 1227 l 574 1222 l 425 1043 z "},"Û":{"ha":822,"x_min":97,"x_max":725,"o":"m 725 310 q 704 169 725 229 q 642 66 682 108 q 543 4 601 25 q 411 -16 484 -16 q 279 4 338 -16 q 180 66 221 25 q 118 169 140 108 q 97 310 97 229 l 97 953 l 219 953 l 219 302 q 270 149 219 201 q 411 96 321 96 q 552 149 500 96 q 603 302 603 201 l 603 953 l 725 953 l 725 310 m 585 1038 l 473 1038 l 412 1147 l 349 1038 l 238 1038 l 357 1225 l 466 1225 l 585 1038 z "},"Ü":{"ha":822,"x_min":97,"x_max":725,"o":"m 725 310 q 704 169 725 229 q 642 66 682 108 q 543 4 601 25 q 411 -16 484 -16 q 279 4 338 -16 q 180 66 221 25 q 118 169 140 108 q 97 310 97 229 l 97 953 l 219 953 l 219 302 q 270 149 219 201 q 411 96 321 96 q 552 149 500 96 q 603 302 603 201 l 603 953 l 725 953 l 725 310 m 576 1095 l 454 1095 l 454 1227 l 576 1227 l 576 1095 m 367 1095 l 246 1095 l 246 1227 l 367 1227 l 367 1095 z "},"Ý":{"ha":760,"x_min":11,"x_max":749,"o":"m 441 0 l 319 0 l 319 395 l 11 953 l 146 953 l 387 511 l 393 511 l 630 953 l 749 953 l 441 395 l 441 0 m 393 1043 l 297 1043 l 416 1227 l 541 1227 l 543 1222 l 393 1043 z "},"Þ":{"ha":760,"x_min":97,"x_max":722,"o":"m 220 764 l 437 764 q 561 744 508 764 q 650 687 614 724 q 704 599 686 650 q 722 486 722 548 q 703 371 722 423 q 646 282 683 319 q 556 224 609 245 q 437 204 503 204 l 220 204 l 220 0 l 97 0 l 97 953 l 220 953 l 220 764 m 220 653 l 220 315 l 433 315 q 499 328 470 315 q 550 362 529 340 q 583 416 572 385 q 595 486 595 448 q 553 608 595 564 q 433 653 512 653 l 220 653 z "},"ß":{"ha":696,"x_min":70,"x_max":643,"o":"m 353 1021 q 457 1003 409 1021 q 539 952 505 985 q 594 870 574 918 q 614 762 614 823 q 604 694 614 727 q 577 632 595 661 q 536 582 560 604 q 482 549 511 560 l 482 543 q 547 505 517 530 q 598 447 576 479 q 631 376 619 414 q 643 297 643 337 q 622 175 643 230 q 563 81 600 120 q 474 21 525 43 q 366 0 424 0 l 261 0 l 261 103 l 355 103 q 422 118 391 103 q 476 160 453 134 q 513 222 500 186 q 526 298 526 258 q 513 371 526 337 q 476 431 500 406 q 422 471 453 456 q 355 486 391 486 l 261 486 l 261 587 l 342 587 q 402 601 374 587 q 452 638 431 614 q 485 692 473 661 q 497 758 497 723 q 487 824 497 794 q 458 875 477 854 q 411 908 439 897 q 345 920 382 920 q 278 907 309 920 q 227 869 248 895 q 195 807 206 844 q 183 720 183 769 l 183 0 l 70 0 l 70 717 q 92 856 70 798 q 152 950 114 913 q 242 1004 191 987 q 353 1021 294 1021 z "},"à":{"ha":633,"x_min":47,"x_max":614,"o":"m 310 747 q 475 693 420 747 q 530 543 530 640 l 530 133 q 543 96 530 107 q 570 85 555 85 l 614 85 l 614 5 q 585 -5 604 0 q 538 -11 566 -11 q 464 14 494 -11 q 423 79 434 39 l 416 79 q 342 9 388 34 q 239 -16 296 -16 q 199 -13 220 -16 q 157 -2 178 -10 q 116 20 136 5 q 80 57 96 35 q 56 113 65 80 q 47 189 47 145 q 75 312 47 264 q 152 387 102 360 q 269 424 201 414 q 416 433 337 433 l 416 528 q 412 576 416 554 q 394 613 407 597 q 359 637 381 629 q 301 646 336 646 q 247 636 269 646 q 213 609 226 626 q 195 572 200 593 q 189 530 189 551 l 189 514 l 77 514 q 75 527 75 520 l 75 544 q 93 632 75 594 q 141 696 110 671 q 215 734 172 722 q 310 747 258 747 m 416 332 q 315 327 361 332 q 236 307 269 321 q 185 265 203 292 q 167 196 167 239 q 192 109 167 134 q 265 85 217 85 q 319 96 292 85 q 368 130 346 107 q 403 186 389 152 q 416 265 416 220 l 416 332 m 298 821 l 147 1000 l 149 1004 l 274 1004 l 393 821 l 298 821 z "},"á":{"ha":633,"x_min":47,"x_max":614,"o":"m 310 747 q 475 693 420 747 q 530 543 530 640 l 530 133 q 543 96 530 107 q 570 85 555 85 l 614 85 l 614 5 q 585 -5 604 0 q 538 -11 566 -11 q 464 14 494 -11 q 423 79 434 39 l 416 79 q 342 9 388 34 q 239 -16 296 -16 q 199 -13 220 -16 q 157 -2 178 -10 q 116 20 136 5 q 80 57 96 35 q 56 113 65 80 q 47 189 47 145 q 75 312 47 264 q 152 387 102 360 q 269 424 201 414 q 416 433 337 433 l 416 528 q 412 576 416 554 q 394 613 407 597 q 359 637 381 629 q 301 646 336 646 q 247 636 269 646 q 213 609 226 626 q 195 572 200 593 q 189 530 189 551 l 189 514 l 77 514 q 75 527 75 520 l 75 544 q 93 632 75 594 q 141 696 110 671 q 215 734 172 722 q 310 747 258 747 m 416 332 q 315 327 361 332 q 236 307 269 321 q 185 265 203 292 q 167 196 167 239 q 192 109 167 134 q 265 85 217 85 q 319 96 292 85 q 368 130 346 107 q 403 186 389 152 q 416 265 416 220 l 416 332 m 324 821 l 228 821 l 347 1004 l 472 1004 l 473 1000 l 324 821 z "},"â":{"ha":633,"x_min":47,"x_max":614,"o":"m 310 747 q 475 693 420 747 q 530 543 530 640 l 530 133 q 543 96 530 107 q 570 85 555 85 l 614 85 l 614 5 q 585 -5 604 0 q 538 -11 566 -11 q 464 14 494 -11 q 423 79 434 39 l 416 79 q 342 9 388 34 q 239 -16 296 -16 q 199 -13 220 -16 q 157 -2 178 -10 q 116 20 136 5 q 80 57 96 35 q 56 113 65 80 q 47 189 47 145 q 75 312 47 264 q 152 387 102 360 q 269 424 201 414 q 416 433 337 433 l 416 528 q 412 576 416 554 q 394 613 407 597 q 359 637 381 629 q 301 646 336 646 q 247 636 269 646 q 213 609 226 626 q 195 572 200 593 q 189 530 189 551 l 189 514 l 77 514 q 75 527 75 520 l 75 544 q 93 632 75 594 q 141 696 110 671 q 215 734 172 722 q 310 747 258 747 m 416 332 q 315 327 361 332 q 236 307 269 321 q 185 265 203 292 q 167 196 167 239 q 192 109 167 134 q 265 85 217 85 q 319 96 292 85 q 368 130 346 107 q 403 186 389 152 q 416 265 416 220 l 416 332 m 490 815 l 379 815 l 318 925 l 255 815 l 144 815 l 263 1003 l 372 1003 l 490 815 z "},"ã":{"ha":633,"x_min":47,"x_max":614,"o":"m 310 747 q 475 693 420 747 q 530 543 530 640 l 530 133 q 543 96 530 107 q 570 85 555 85 l 614 85 l 614 5 q 585 -5 604 0 q 538 -11 566 -11 q 464 14 494 -11 q 423 79 434 39 l 416 79 q 342 9 388 34 q 239 -16 296 -16 q 199 -13 220 -16 q 157 -2 178 -10 q 116 20 136 5 q 80 57 96 35 q 56 113 65 80 q 47 189 47 145 q 75 312 47 264 q 152 387 102 360 q 269 424 201 414 q 416 433 337 433 l 416 528 q 412 576 416 554 q 394 613 407 597 q 359 637 381 629 q 301 646 336 646 q 247 636 269 646 q 213 609 226 626 q 195 572 200 593 q 189 530 189 551 l 189 514 l 77 514 q 75 527 75 520 l 75 544 q 93 632 75 594 q 141 696 110 671 q 215 734 172 722 q 310 747 258 747 m 416 332 q 315 327 361 332 q 236 307 269 321 q 185 265 203 292 q 167 196 167 239 q 192 109 167 134 q 265 85 217 85 q 319 96 292 85 q 368 130 346 107 q 403 186 389 152 q 416 265 416 220 l 416 332 m 519 1004 q 513 955 519 980 q 492 908 506 929 q 455 873 477 887 q 401 860 433 860 q 359 867 379 860 q 319 881 338 873 q 281 896 300 889 q 241 903 262 903 q 210 893 222 903 q 195 860 198 884 l 114 860 q 121 909 114 884 q 142 956 127 935 q 178 991 156 977 q 232 1004 201 1004 q 274 998 254 1004 q 314 983 294 991 q 352 968 333 975 q 391 962 371 962 q 423 971 410 962 q 439 1004 435 981 l 519 1004 z "},"ä":{"ha":633,"x_min":47,"x_max":614,"o":"m 310 747 q 475 693 420 747 q 530 543 530 640 l 530 133 q 543 96 530 107 q 570 85 555 85 l 614 85 l 614 5 q 585 -5 604 0 q 538 -11 566 -11 q 464 14 494 -11 q 423 79 434 39 l 416 79 q 342 9 388 34 q 239 -16 296 -16 q 199 -13 220 -16 q 157 -2 178 -10 q 116 20 136 5 q 80 57 96 35 q 56 113 65 80 q 47 189 47 145 q 75 312 47 264 q 152 387 102 360 q 269 424 201 414 q 416 433 337 433 l 416 528 q 412 576 416 554 q 394 613 407 597 q 359 637 381 629 q 301 646 336 646 q 247 636 269 646 q 213 609 226 626 q 195 572 200 593 q 189 530 189 551 l 189 514 l 77 514 q 75 527 75 520 l 75 544 q 93 632 75 594 q 141 696 110 671 q 215 734 172 722 q 310 747 258 747 m 416 332 q 315 327 361 332 q 236 307 269 321 q 185 265 203 292 q 167 196 167 239 q 192 109 167 134 q 265 85 217 85 q 319 96 292 85 q 368 130 346 107 q 403 186 389 152 q 416 265 416 220 l 416 332 m 481 872 l 360 872 l 360 1004 l 481 1004 l 481 872 m 273 872 l 152 872 l 152 1004 l 273 1004 l 273 872 z "},"å":{"ha":633,"x_min":47,"x_max":614,"o":"m 310 747 q 475 693 420 747 q 530 543 530 640 l 530 133 q 543 96 530 107 q 570 85 555 85 l 614 85 l 614 5 q 585 -5 604 0 q 538 -11 566 -11 q 464 14 494 -11 q 423 79 434 39 l 416 79 q 342 9 388 34 q 239 -16 296 -16 q 199 -13 220 -16 q 157 -2 178 -10 q 116 20 136 5 q 80 57 96 35 q 56 113 65 80 q 47 189 47 145 q 75 312 47 264 q 152 387 102 360 q 269 424 201 414 q 416 433 337 433 l 416 528 q 412 576 416 554 q 394 613 407 597 q 359 637 381 629 q 301 646 336 646 q 247 636 269 646 q 213 609 226 626 q 195 572 200 593 q 189 530 189 551 l 189 514 l 77 514 q 75 527 75 520 l 75 544 q 93 632 75 594 q 141 696 110 671 q 215 734 172 722 q 310 747 258 747 m 317 1048 q 369 1037 345 1048 q 411 1008 393 1027 q 439 966 429 990 q 450 915 450 942 q 439 863 450 887 q 411 820 429 838 q 369 792 393 802 q 317 781 345 781 q 265 791 290 781 q 222 820 241 802 q 194 862 204 838 q 183 915 183 886 q 194 967 183 943 q 222 1009 204 991 q 264 1037 240 1027 q 317 1048 289 1048 m 416 332 q 315 327 361 332 q 236 307 269 321 q 185 265 203 292 q 167 196 167 239 q 192 109 167 134 q 265 85 217 85 q 319 96 292 85 q 368 130 346 107 q 403 186 389 152 q 416 265 416 220 l 416 332 m 317 985 q 289 980 302 985 q 267 965 276 975 q 251 942 257 955 q 245 915 245 929 q 251 887 245 901 q 267 865 257 874 q 289 849 276 855 q 317 844 302 844 q 343 849 331 844 q 366 865 356 855 q 381 887 376 874 q 387 915 387 901 q 381 942 387 929 q 366 965 376 955 q 343 980 356 975 q 317 985 331 985 z "},"æ":{"ha":1013,"x_min":56,"x_max":940,"o":"m 700 747 q 805 728 760 747 q 880 667 850 709 q 925 561 910 626 q 940 404 940 496 l 940 332 l 544 332 q 584 144 545 203 q 704 85 623 85 q 754 96 731 85 q 793 129 777 107 q 818 180 809 150 q 827 249 827 211 l 940 249 q 923 138 940 187 q 874 55 905 89 q 798 2 842 20 q 701 -16 754 -16 q 570 9 625 -16 q 479 94 514 35 q 386 14 440 43 q 269 -16 332 -16 q 197 -9 235 -16 q 128 20 159 -2 q 76 82 96 42 q 56 189 56 123 q 83 312 56 264 q 160 387 111 360 q 277 424 210 414 q 425 433 345 433 l 425 528 q 420 576 425 554 q 402 613 415 597 q 367 637 389 629 q 310 646 345 646 q 256 636 277 646 q 221 609 234 626 q 203 572 208 593 q 197 530 197 551 l 197 514 l 85 514 q 83 527 83 520 l 83 544 q 101 632 83 594 q 149 696 118 671 q 223 734 180 722 q 318 747 267 747 q 432 726 385 747 q 505 664 479 705 q 588 727 541 707 q 700 747 636 747 m 425 332 q 323 327 369 332 q 244 307 277 321 q 193 265 212 292 q 175 196 175 239 q 200 109 175 134 q 274 85 226 85 q 328 95 300 85 q 376 127 355 106 q 411 180 397 148 q 425 254 425 212 l 425 332 m 700 646 q 634 633 662 646 q 589 592 607 619 q 560 526 570 566 q 546 433 550 486 l 821 433 q 790 592 821 538 q 700 646 760 646 z "},"ç":{"ha":570,"x_min":50,"x_max":524,"o":"m 300 747 q 402 729 359 747 q 471 673 444 710 q 511 583 498 637 q 524 460 524 530 l 406 460 q 400 542 406 507 q 383 600 395 577 q 351 635 371 623 q 300 646 330 646 q 201 583 232 646 q 170 392 170 519 l 170 338 q 200 149 170 212 q 300 85 231 85 q 352 97 330 85 q 386 133 373 109 q 405 191 399 157 q 411 271 411 226 l 524 271 q 512 164 524 215 q 474 73 500 113 q 407 10 448 34 q 308 -16 366 -14 l 303 -50 q 346 -57 326 -52 q 382 -73 366 -62 q 407 -100 397 -83 q 416 -140 416 -116 q 401 -197 416 -175 q 365 -232 387 -219 q 317 -249 342 -244 q 271 -253 292 -253 q 211 -250 241 -253 q 155 -241 180 -247 l 155 -174 l 260 -174 q 297 -167 283 -174 q 310 -140 310 -160 q 300 -115 310 -123 q 263 -107 290 -107 l 217 -107 l 232 -9 q 94 105 138 13 q 50 366 50 197 q 111 654 50 562 q 300 747 172 747 z "},"è":{"ha":633,"x_min":58,"x_max":574,"o":"m 333 747 q 438 728 393 747 q 513 667 484 709 q 558 561 543 626 q 574 404 574 496 l 574 332 l 178 332 q 217 144 178 204 q 337 85 256 85 q 387 96 364 85 q 426 129 410 107 q 452 180 443 150 q 461 249 461 211 l 574 249 q 556 138 574 187 q 508 55 539 89 q 432 2 476 20 q 334 -16 388 -16 q 215 5 267 -16 q 129 73 163 26 q 76 192 94 119 q 58 366 58 264 q 127 654 58 562 q 333 747 196 747 m 333 646 q 268 633 295 646 q 222 592 240 619 q 193 526 203 566 q 179 433 183 486 l 454 433 q 424 592 454 538 q 333 646 393 646 m 320 821 l 170 1000 l 171 1004 l 296 1004 l 416 821 l 320 821 z "},"é":{"ha":633,"x_min":58,"x_max":574,"o":"m 333 747 q 438 728 393 747 q 513 667 484 709 q 558 561 543 626 q 574 404 574 496 l 574 332 l 178 332 q 217 144 178 204 q 337 85 256 85 q 387 96 364 85 q 426 129 410 107 q 452 180 443 150 q 461 249 461 211 l 574 249 q 556 138 574 187 q 508 55 539 89 q 432 2 476 20 q 334 -16 388 -16 q 215 5 267 -16 q 129 73 163 26 q 76 192 94 119 q 58 366 58 264 q 127 654 58 562 q 333 747 196 747 m 333 646 q 268 633 295 646 q 222 592 240 619 q 193 526 203 566 q 179 433 183 486 l 454 433 q 424 592 454 538 q 333 646 393 646 m 347 821 l 250 821 l 370 1004 l 494 1004 l 496 1000 l 347 821 z "},"ê":{"ha":633,"x_min":58,"x_max":574,"o":"m 333 747 q 438 728 393 747 q 513 667 484 709 q 558 561 543 626 q 574 404 574 496 l 574 332 l 178 332 q 217 144 178 204 q 337 85 256 85 q 387 96 364 85 q 426 129 410 107 q 452 180 443 150 q 461 249 461 211 l 574 249 q 556 138 574 187 q 508 55 539 89 q 432 2 476 20 q 334 -16 388 -16 q 215 5 267 -16 q 129 73 163 26 q 76 192 94 119 q 58 366 58 264 q 127 654 58 562 q 333 747 196 747 m 333 646 q 268 633 295 646 q 222 592 240 619 q 193 526 203 566 q 179 433 183 486 l 454 433 q 424 592 454 538 q 333 646 393 646 m 490 815 l 379 815 l 318 925 l 255 815 l 144 815 l 263 1003 l 372 1003 l 490 815 z "},"ë":{"ha":633,"x_min":58,"x_max":574,"o":"m 333 747 q 438 728 393 747 q 513 667 484 709 q 558 561 543 626 q 574 404 574 496 l 574 332 l 178 332 q 217 144 178 204 q 337 85 256 85 q 387 96 364 85 q 426 129 410 107 q 452 180 443 150 q 461 249 461 211 l 574 249 q 556 138 574 187 q 508 55 539 89 q 432 2 476 20 q 334 -16 388 -16 q 215 5 267 -16 q 129 73 163 26 q 76 192 94 119 q 58 366 58 264 q 127 654 58 562 q 333 747 196 747 m 333 646 q 268 633 295 646 q 222 592 240 619 q 193 526 203 566 q 179 433 183 486 l 454 433 q 424 592 454 538 q 333 646 393 646 m 481 872 l 360 872 l 360 1004 l 481 1004 l 481 872 m 273 872 l 152 872 l 152 1004 l 273 1004 l 273 872 z "},"ì":{"ha":317,"x_min":-5,"x_max":241,"o":"m 101 0 l 101 730 l 215 730 l 215 0 l 101 0 m 146 821 l -5 1000 l -3 1004 l 122 1004 l 241 821 l 146 821 z "},"í":{"ha":317,"x_min":76,"x_max":321,"o":"m 101 0 l 101 730 l 215 730 l 215 0 l 101 0 m 172 821 l 76 821 l 195 1004 l 320 1004 l 321 1000 l 172 821 z "},"î":{"ha":317,"x_min":-15,"x_max":332,"o":"m 215 0 l 101 0 l 101 730 l 215 730 l 215 0 m 332 815 l 221 815 l 160 925 l 97 815 l -15 815 l 105 1003 l 214 1003 l 332 815 z "},"ï":{"ha":317,"x_min":-6,"x_max":323,"o":"m 215 0 l 101 0 l 101 730 l 215 730 l 215 0 m 323 872 l 202 872 l 202 1004 l 323 1004 l 323 872 m 115 872 l -6 872 l -6 1004 l 115 1004 l 115 872 z "},"ð":{"ha":633,"x_min":56,"x_max":578,"o":"m 288 1004 q 319 970 303 987 q 351 936 335 954 l 513 951 l 513 868 l 414 859 q 481 753 451 808 q 533 637 511 698 q 566 508 554 576 q 578 366 578 441 q 511 76 578 169 q 317 -16 445 -16 q 122 76 189 -16 q 56 366 56 169 q 74 539 56 467 q 125 657 92 611 q 202 726 157 704 q 301 747 248 747 q 338 743 320 747 q 371 730 355 738 q 335 789 355 761 q 293 848 315 818 l 129 833 l 129 916 l 228 925 q 196 961 212 943 q 163 998 180 980 l 165 1004 l 288 1004 m 317 646 q 210 583 245 646 q 175 392 175 519 l 175 338 q 210 149 175 212 q 317 85 245 85 q 423 149 388 85 q 458 338 458 212 l 458 392 q 422 583 458 519 q 317 646 387 646 z "},"ñ":{"ha":633,"x_min":83,"x_max":550,"o":"m 370 747 q 444 736 411 747 q 501 698 477 724 q 537 629 524 671 q 550 526 550 587 l 550 0 l 436 0 l 436 518 q 429 581 436 556 q 408 620 421 606 q 375 641 394 635 q 333 646 356 646 q 281 633 306 646 q 238 593 257 619 q 209 530 220 568 q 197 446 197 493 l 197 0 l 83 0 l 83 730 l 170 730 l 185 646 l 193 646 q 269 724 224 701 q 370 747 315 747 m 519 1004 q 513 955 519 980 q 492 908 506 929 q 455 873 477 887 q 401 860 433 860 q 359 867 379 860 q 319 881 338 873 q 281 896 300 889 q 241 903 262 903 q 210 893 222 903 q 195 860 198 884 l 114 860 q 121 909 114 884 q 142 956 127 935 q 178 991 156 977 q 232 1004 201 1004 q 274 998 254 1004 q 314 983 294 991 q 352 968 333 975 q 391 962 371 962 q 423 971 410 962 q 439 1004 435 981 l 519 1004 z "},"ò":{"ha":633,"x_min":56,"x_max":578,"o":"m 317 747 q 511 654 445 747 q 578 366 578 562 q 511 76 578 169 q 317 -16 445 -16 q 122 76 189 -16 q 56 366 56 169 q 122 654 56 562 q 317 747 189 747 m 317 646 q 210 583 245 646 q 175 392 175 519 l 175 338 q 210 149 175 212 q 317 85 245 85 q 423 149 388 85 q 458 338 458 212 l 458 392 q 423 583 458 519 q 317 646 388 646 m 304 821 l 153 1000 l 155 1004 l 280 1004 l 399 821 l 304 821 z "},"ó":{"ha":633,"x_min":56,"x_max":578,"o":"m 317 747 q 511 654 445 747 q 578 366 578 562 q 511 76 578 169 q 317 -16 445 -16 q 122 76 189 -16 q 56 366 56 169 q 122 654 56 562 q 317 747 189 747 m 317 646 q 210 583 245 646 q 175 392 175 519 l 175 338 q 210 149 175 212 q 317 85 245 85 q 423 149 388 85 q 458 338 458 212 l 458 392 q 423 583 458 519 q 317 646 388 646 m 330 821 l 234 821 l 353 1004 l 478 1004 l 479 1000 l 330 821 z "},"ô":{"ha":633,"x_min":56,"x_max":578,"o":"m 317 747 q 511 654 445 747 q 578 366 578 562 q 511 76 578 169 q 317 -16 445 -16 q 122 76 189 -16 q 56 366 56 169 q 122 654 56 562 q 317 747 189 747 m 317 646 q 210 583 245 646 q 175 392 175 519 l 175 338 q 210 149 175 212 q 317 85 245 85 q 423 149 388 85 q 458 338 458 212 l 458 392 q 423 583 458 519 q 317 646 388 646 m 490 815 l 379 815 l 318 925 l 255 815 l 144 815 l 263 1003 l 372 1003 l 490 815 z "},"õ":{"ha":633,"x_min":56,"x_max":578,"o":"m 317 747 q 511 654 445 747 q 578 366 578 562 q 511 76 578 169 q 317 -16 445 -16 q 122 76 189 -16 q 56 366 56 169 q 122 654 56 562 q 317 747 189 747 m 317 646 q 210 583 245 646 q 175 392 175 519 l 175 338 q 210 149 175 212 q 317 85 245 85 q 423 149 388 85 q 458 338 458 212 l 458 392 q 423 583 458 519 q 317 646 388 646 m 519 1004 q 513 955 519 980 q 492 908 506 929 q 455 873 477 887 q 401 860 433 860 q 359 867 379 860 q 319 881 338 873 q 281 896 300 889 q 241 903 262 903 q 210 893 222 903 q 195 860 198 884 l 114 860 q 121 909 114 884 q 142 956 127 935 q 178 991 156 977 q 232 1004 201 1004 q 274 998 254 1004 q 314 983 294 991 q 352 968 333 975 q 391 962 371 962 q 423 971 410 962 q 439 1004 435 981 l 519 1004 z "},"ö":{"ha":633,"x_min":56,"x_max":578,"o":"m 317 747 q 511 654 445 747 q 578 366 578 562 q 511 76 578 169 q 317 -16 445 -16 q 122 76 189 -16 q 56 366 56 169 q 122 654 56 562 q 317 747 189 747 m 317 646 q 210 583 245 646 q 175 392 175 519 l 175 338 q 210 149 175 212 q 317 85 245 85 q 423 149 388 85 q 458 338 458 212 l 458 392 q 423 583 458 519 q 317 646 388 646 m 481 872 l 360 872 l 360 1004 l 481 1004 l 481 872 m 273 872 l 152 872 l 152 1004 l 273 1004 l 273 872 z "},"÷":{"ha":762,"x_min":60,"x_max":701,"o":"m 701 296 l 60 296 l 60 412 l 701 412 l 701 296 m 439 71 l 322 71 l 322 196 l 439 196 l 439 71 m 439 513 l 322 513 l 322 639 l 439 639 l 439 513 z "},"ø":{"ha":696,"x_min":86,"x_max":608,"o":"m 541 654 q 608 366 608 559 q 542 76 608 169 q 347 -16 475 -16 q 266 -6 303 -16 q 200 26 229 5 l 163 -44 l 86 -44 l 152 77 q 103 195 119 123 q 86 366 86 266 q 153 654 86 562 q 347 747 219 747 q 493 704 435 747 l 532 775 l 608 775 l 541 654 m 256 126 q 347 85 289 85 q 454 149 418 85 q 489 338 489 212 l 489 392 q 485 467 489 433 q 474 528 481 500 l 256 126 m 347 646 q 241 583 276 646 q 205 392 205 519 l 205 338 q 209 264 205 298 q 219 201 212 230 l 439 604 q 347 646 402 646 z "},"ù":{"ha":633,"x_min":83,"x_max":550,"o":"m 464 0 l 449 85 l 440 85 q 364 7 410 30 q 264 -16 318 -16 q 190 -5 223 -16 q 133 33 156 7 q 96 101 109 59 q 83 204 83 143 l 83 730 l 197 730 l 197 212 q 205 150 197 174 q 226 111 212 125 q 258 91 239 96 q 300 85 277 85 q 352 98 327 85 q 395 138 376 112 q 425 200 414 163 q 436 285 436 237 l 436 730 l 550 730 l 550 0 l 464 0 m 304 821 l 153 1000 l 155 1004 l 280 1004 l 399 821 l 304 821 z "},"ú":{"ha":633,"x_min":83,"x_max":550,"o":"m 464 0 l 449 85 l 440 85 q 364 7 410 30 q 264 -16 318 -16 q 190 -5 223 -16 q 133 33 156 7 q 96 101 109 59 q 83 204 83 143 l 83 730 l 197 730 l 197 212 q 205 150 197 174 q 226 111 212 125 q 258 91 239 96 q 300 85 277 85 q 352 98 327 85 q 395 138 376 112 q 425 200 414 163 q 436 285 436 237 l 436 730 l 550 730 l 550 0 l 464 0 m 330 821 l 234 821 l 353 1004 l 478 1004 l 479 1000 l 330 821 z "},"û":{"ha":633,"x_min":83,"x_max":550,"o":"m 550 0 l 464 0 l 449 85 l 440 85 q 364 7 410 30 q 264 -16 318 -16 q 190 -5 223 -16 q 133 33 156 7 q 96 101 109 59 q 83 204 83 143 l 83 730 l 197 730 l 197 212 q 205 150 197 174 q 226 111 212 125 q 258 91 239 96 q 300 85 277 85 q 352 98 327 85 q 395 138 376 112 q 425 200 414 163 q 436 285 436 237 l 436 730 l 550 730 l 550 0 m 490 815 l 379 815 l 318 925 l 255 815 l 144 815 l 263 1003 l 372 1003 l 490 815 z "},"ü":{"ha":633,"x_min":83,"x_max":550,"o":"m 550 0 l 464 0 l 449 85 l 440 85 q 364 7 410 30 q 264 -16 318 -16 q 190 -5 223 -16 q 133 33 156 7 q 96 101 109 59 q 83 204 83 143 l 83 730 l 197 730 l 197 212 q 205 150 197 174 q 226 111 212 125 q 258 91 239 96 q 300 85 277 85 q 352 98 327 85 q 395 138 376 112 q 425 200 414 163 q 436 285 436 237 l 436 730 l 550 730 l 550 0 m 481 872 l 360 872 l 360 1004 l 481 1004 l 481 872 m 273 872 l 152 872 l 152 1004 l 273 1004 l 273 872 z "},"ý":{"ha":570,"x_min":14,"x_max":557,"o":"m 371 37 q 334 -75 355 -22 q 284 -168 313 -128 q 219 -230 256 -207 q 134 -253 182 -253 q 91 -251 111 -253 q 53 -241 71 -248 l 53 -163 l 93 -163 q 138 -155 116 -163 q 178 -128 159 -147 q 212 -78 197 -109 q 237 0 227 -47 l 14 730 l 138 730 l 300 164 l 305 164 l 441 730 l 557 730 l 371 37 m 298 821 l 202 821 l 321 1004 l 446 1004 l 448 1000 l 298 821 z "},"þ":{"ha":633,"x_min":83,"x_max":578,"o":"m 197 667 l 203 665 q 264 725 224 703 q 352 747 303 747 q 446 725 404 747 q 517 656 488 703 q 562 537 546 609 q 578 364 578 465 q 561 193 578 264 q 514 74 544 121 q 445 6 485 28 q 360 -16 406 -16 q 265 5 307 -16 q 204 64 223 26 l 197 64 l 197 -240 l 83 -240 l 83 1004 l 197 1004 l 197 667 m 328 646 q 230 583 262 646 q 197 392 197 519 l 197 338 q 230 149 197 212 q 328 85 262 85 q 385 99 360 85 q 426 144 410 113 q 450 222 442 174 q 458 338 458 271 l 458 392 q 450 508 458 460 q 426 587 442 557 q 385 632 410 618 q 328 646 360 646 z "},"ÿ":{"ha":570,"x_min":14,"x_max":557,"o":"m 371 37 q 334 -75 355 -22 q 284 -168 313 -128 q 219 -230 256 -207 q 134 -253 182 -253 q 91 -251 111 -253 q 53 -241 71 -248 l 53 -163 l 93 -163 q 138 -155 116 -163 q 178 -128 159 -147 q 212 -78 197 -109 q 237 0 227 -47 l 14 730 l 138 730 l 300 164 l 305 164 l 441 730 l 557 730 l 371 37 m 450 872 l 328 872 l 328 1004 l 450 1004 l 450 872 m 241 872 l 120 872 l 120 1004 l 241 1004 l 241 872 z "},"Ă":{"ha":760,"x_min":-1,"x_max":761,"o":"m 551 1226 q 539 1179 551 1202 q 505 1136 528 1155 q 451 1104 483 1116 q 379 1092 419 1092 q 308 1104 339 1092 q 254 1136 276 1116 q 220 1179 232 1155 q 208 1226 208 1202 l 297 1226 q 305 1211 298 1219 q 322 1196 312 1203 q 348 1185 333 1190 q 379 1181 362 1181 q 412 1185 397 1181 q 438 1196 427 1190 q 455 1211 449 1203 q 463 1226 462 1219 l 551 1226 m 564 212 l 186 212 l 121 0 l -1 0 l 301 953 l 458 953 l 761 0 l 629 0 l 564 212 m 220 323 l 529 323 l 400 747 q 392 777 396 759 q 385 812 389 795 q 378 852 382 831 l 372 852 q 365 811 368 831 q 357 777 361 794 q 350 747 353 759 l 220 323 z "},"Ā":{"ha":760,"x_min":-1,"x_max":761,"o":"m 554 1054 l 205 1054 l 205 1154 l 554 1154 l 554 1054 m 564 212 l 186 212 l 121 0 l -1 0 l 301 953 l 458 953 l 761 0 l 629 0 l 564 212 m 220 323 l 529 323 l 400 747 q 392 777 396 759 q 385 812 389 795 q 378 852 382 831 l 372 852 q 365 811 368 831 q 357 777 361 794 q 350 747 353 759 l 220 323 z "},"Ą":{"ha":760,"x_min":-1,"x_max":793,"o":"m 761 0 l 720 0 q 697 -38 708 -16 q 686 -86 686 -61 q 690 -114 686 -100 q 701 -139 693 -128 q 720 -156 708 -150 q 750 -163 732 -163 l 793 -163 l 793 -233 q 750 -248 771 -243 q 708 -253 729 -253 q 663 -247 686 -253 q 621 -226 640 -241 q 590 -188 602 -212 q 578 -127 578 -163 q 593 -54 578 -83 q 629 0 608 -24 l 564 212 l 186 212 l 121 0 l -1 0 l 301 953 l 458 953 l 761 0 m 372 852 q 365 811 368 831 q 357 777 361 794 q 350 747 353 759 l 220 323 l 529 323 l 400 747 q 392 777 396 759 q 385 812 389 795 q 378 852 382 831 l 372 852 z "},"Ǻ":{"ha":760,"x_min":-1,"x_max":761,"o":"m 380 1140 q 433 1130 409 1140 q 476 1102 458 1120 q 504 1062 494 1085 q 514 1013 514 1038 q 502 959 514 983 q 469 917 489 935 l 761 0 l 629 0 l 564 212 l 186 212 l 121 0 l -1 0 l 290 918 q 259 959 271 935 q 248 1013 248 983 q 258 1062 248 1039 q 287 1102 269 1085 q 329 1130 304 1120 q 380 1140 353 1140 m 372 852 q 365 811 368 831 q 357 777 361 794 q 350 747 353 759 l 220 323 l 529 323 l 400 747 q 392 777 396 759 q 385 812 389 795 q 378 852 382 831 l 372 852 m 562 1324 l 433 1178 l 338 1178 l 436 1329 l 561 1329 l 562 1324 m 380 1080 q 353 1075 366 1080 q 331 1060 340 1069 q 315 1039 321 1051 q 310 1013 310 1027 q 315 986 310 998 q 331 965 321 974 q 353 950 340 956 q 380 945 366 945 q 408 950 395 945 q 430 965 420 956 q 446 986 440 974 q 452 1013 452 998 q 446 1039 452 1027 q 430 1060 440 1051 q 408 1075 420 1069 q 380 1080 395 1080 z "},"Ć":{"ha":822,"x_min":58,"x_max":766,"o":"m 433 970 q 567 947 506 970 q 672 880 628 925 q 741 768 716 836 q 766 608 766 700 l 640 608 q 626 718 640 671 q 584 795 611 764 q 518 842 557 826 q 433 857 480 857 q 247 771 308 857 q 186 511 186 686 l 186 441 q 247 181 186 267 q 433 96 308 96 q 520 111 481 96 q 587 157 559 126 q 629 233 614 187 q 644 341 644 279 l 766 341 q 741 182 766 249 q 672 71 716 115 q 567 5 628 26 q 433 -16 506 -16 q 153 106 248 -16 q 58 477 58 229 q 153 847 58 724 q 433 970 248 970 m 445 1043 l 349 1043 l 468 1227 l 593 1227 l 594 1222 l 445 1043 z "},"Č":{"ha":822,"x_min":58,"x_max":766,"o":"m 433 970 q 567 947 506 970 q 672 880 628 925 q 741 768 716 836 q 766 608 766 700 l 640 608 q 626 718 640 671 q 584 795 611 764 q 518 842 557 826 q 433 857 480 857 q 247 771 308 857 q 186 511 186 686 l 186 441 q 247 181 186 267 q 433 96 308 96 q 520 111 481 96 q 587 157 559 126 q 629 233 614 187 q 644 341 644 279 l 766 341 q 741 182 766 249 q 672 71 716 115 q 567 5 628 26 q 433 -16 506 -16 q 153 106 248 -16 q 58 477 58 229 q 153 847 58 724 q 433 970 248 970 m 465 1039 l 356 1039 l 238 1227 l 349 1227 l 411 1117 l 473 1227 l 585 1227 l 465 1039 z "},"Ĉ":{"ha":822,"x_min":58,"x_max":766,"o":"m 433 970 q 567 947 506 970 q 672 880 628 925 q 741 768 716 836 q 766 608 766 700 l 640 608 q 626 718 640 671 q 584 795 611 764 q 518 842 557 826 q 433 857 480 857 q 247 771 308 857 q 186 511 186 686 l 186 441 q 247 181 186 267 q 433 96 308 96 q 520 111 481 96 q 587 157 559 126 q 629 233 614 187 q 644 341 644 279 l 766 341 q 741 182 766 249 q 672 71 716 115 q 567 5 628 26 q 433 -16 506 -16 q 153 106 248 -16 q 58 477 58 229 q 153 847 58 724 q 433 970 248 970 m 585 1038 l 473 1038 l 412 1147 l 349 1038 l 238 1038 l 357 1225 l 466 1225 l 585 1038 z "},"Ċ":{"ha":822,"x_min":58,"x_max":766,"o":"m 433 970 q 567 947 506 970 q 672 880 628 925 q 741 768 716 836 q 766 608 766 700 l 640 608 q 626 718 640 671 q 584 795 611 764 q 518 842 557 826 q 433 857 480 857 q 247 771 308 857 q 186 511 186 686 l 186 441 q 247 181 186 267 q 433 96 308 96 q 520 111 481 96 q 587 157 559 126 q 629 233 614 187 q 644 341 644 279 l 766 341 q 741 182 766 249 q 672 71 716 115 q 567 5 628 26 q 433 -16 506 -16 q 153 106 248 -16 q 58 477 58 229 q 153 847 58 724 q 433 970 248 970 m 472 1095 l 351 1095 l 351 1227 l 472 1227 l 472 1095 z "},"Ď":{"ha":822,"x_min":97,"x_max":754,"o":"m 464 1039 l 355 1039 l 237 1226 l 349 1226 l 411 1117 l 473 1226 l 585 1226 l 464 1039 m 97 0 l 97 953 l 393 953 q 544 924 477 953 q 658 837 611 895 q 729 692 705 779 q 754 490 754 606 q 729 276 754 368 q 658 123 705 184 q 544 31 611 62 q 393 0 477 0 l 97 0 m 220 842 l 220 111 l 382 111 q 483 133 438 111 q 560 197 528 154 q 609 304 592 239 q 627 456 627 369 l 627 525 q 609 664 627 604 q 560 763 592 724 q 483 822 528 802 q 382 842 438 842 l 220 842 z "},"Đ":{"ha":822,"x_min":7,"x_max":754,"o":"m 7 538 l 97 538 l 97 953 l 393 953 q 544 924 477 953 q 658 837 611 895 q 729 692 705 779 q 754 490 754 606 q 729 276 754 368 q 658 123 705 184 q 544 31 611 62 q 393 0 477 0 l 97 0 l 97 449 l 7 449 l 7 538 m 220 842 l 220 538 l 437 538 l 437 449 l 220 449 l 220 111 l 382 111 q 483 133 438 111 q 560 197 528 154 q 609 304 592 239 q 627 456 627 369 l 627 525 q 609 664 627 604 q 560 763 592 724 q 483 822 528 802 q 382 842 438 842 l 220 842 z "},"Ĕ":{"ha":760,"x_min":97,"x_max":693,"o":"m 551 1226 q 539 1179 551 1202 q 505 1136 528 1155 q 451 1104 483 1116 q 379 1092 419 1092 q 308 1104 339 1092 q 254 1136 276 1116 q 220 1179 232 1155 q 208 1226 208 1202 l 297 1226 q 305 1211 298 1219 q 322 1196 312 1203 q 348 1185 333 1190 q 379 1181 362 1181 q 412 1185 397 1181 q 438 1196 427 1190 q 455 1211 449 1203 q 463 1226 462 1219 l 551 1226 m 97 0 l 97 953 l 685 953 l 685 842 l 220 842 l 220 543 l 624 543 l 624 432 l 220 432 l 220 111 l 693 111 l 693 0 l 97 0 z "},"Ě":{"ha":760,"x_min":97,"x_max":693,"o":"m 433 1039 l 325 1039 l 207 1226 l 318 1226 l 379 1117 l 441 1226 l 553 1226 l 433 1039 m 97 0 l 97 953 l 685 953 l 685 842 l 220 842 l 220 543 l 624 543 l 624 432 l 220 432 l 220 111 l 693 111 l 693 0 l 97 0 z "},"Ė":{"ha":760,"x_min":97,"x_max":693,"o":"m 440 1095 l 319 1095 l 319 1226 l 440 1226 l 440 1095 m 97 0 l 97 953 l 685 953 l 685 842 l 220 842 l 220 543 l 624 543 l 624 432 l 220 432 l 220 111 l 693 111 l 693 0 l 97 0 z "},"Ē":{"ha":760,"x_min":97,"x_max":693,"o":"m 554 1054 l 205 1054 l 205 1154 l 554 1154 l 554 1054 m 97 0 l 97 953 l 685 953 l 685 842 l 220 842 l 220 543 l 624 543 l 624 432 l 220 432 l 220 111 l 693 111 l 693 0 l 97 0 z "},"Ŋ":{"ha":822,"x_min":97,"x_max":725,"o":"m 725 -85 q 718 -146 725 -116 q 694 -200 711 -176 q 650 -238 677 -224 q 581 -253 622 -253 q 529 -248 555 -253 q 485 -236 503 -242 l 485 -157 l 546 -157 q 611 -90 611 -157 l 611 21 l 267 607 q 247 644 257 622 q 227 686 237 665 q 205 734 216 709 l 201 733 q 204 684 203 707 q 206 643 205 665 q 207 607 207 621 l 207 0 l 97 0 l 97 953 l 203 953 l 557 354 q 574 319 564 340 q 594 277 585 297 q 615 227 605 253 l 619 228 q 617 279 618 255 q 615 321 616 300 q 615 354 615 342 l 611 953 l 725 953 l 725 -85 z "},"Ę":{"ha":760,"x_min":97,"x_max":766,"o":"m 685 842 l 220 842 l 220 543 l 624 543 l 624 432 l 220 432 l 220 111 l 693 111 l 693 0 q 671 -38 682 -16 q 660 -86 660 -61 q 663 -114 660 -100 q 674 -139 667 -128 q 694 -156 682 -150 q 724 -163 706 -163 l 766 -163 l 766 -233 q 724 -248 745 -243 q 682 -253 703 -253 q 636 -247 660 -253 q 594 -226 613 -241 q 564 -188 576 -212 q 551 -127 551 -163 q 566 -54 551 -83 q 603 0 581 -24 l 97 0 l 97 953 l 685 953 l 685 842 z "},"Ğ":{"ha":886,"x_min":68,"x_max":796,"o":"m 615 1226 q 603 1179 615 1202 q 569 1136 591 1155 q 515 1104 547 1116 q 443 1092 483 1092 q 372 1104 404 1092 q 318 1136 340 1116 q 284 1179 296 1155 q 272 1226 272 1202 l 361 1226 q 369 1211 363 1219 q 387 1196 376 1203 q 412 1185 397 1190 q 443 1181 426 1181 q 475 1185 460 1181 q 501 1196 490 1190 q 518 1211 512 1203 q 526 1226 525 1219 l 615 1226 m 689 106 q 583 12 645 41 q 443 -17 521 -17 q 283 14 353 -17 q 165 106 213 44 q 93 260 117 168 q 68 476 68 352 q 94 693 68 600 q 170 847 121 785 q 290 939 219 909 q 450 970 361 970 q 588 949 524 970 q 697 885 651 928 q 770 779 744 843 q 796 628 796 714 l 671 628 q 654 730 671 687 q 609 802 638 774 q 540 844 581 830 q 450 857 499 857 q 344 836 391 857 q 264 771 297 814 q 214 663 231 728 q 196 511 196 598 l 196 441 q 260 181 196 267 q 443 96 323 96 q 616 163 562 96 q 671 367 671 230 l 671 389 l 424 389 l 424 496 l 796 496 l 796 0 l 715 0 l 689 106 z "},"Ĝ":{"ha":886,"x_min":68,"x_max":796,"o":"m 616 1038 l 505 1038 l 444 1147 l 382 1038 l 271 1038 l 390 1225 l 498 1225 l 616 1038 m 689 106 q 583 12 645 41 q 443 -17 521 -17 q 283 14 353 -17 q 165 106 213 44 q 93 260 117 168 q 68 476 68 352 q 94 693 68 600 q 170 847 121 785 q 290 939 219 909 q 450 970 361 970 q 588 949 524 970 q 697 885 651 928 q 770 779 744 843 q 796 628 796 714 l 671 628 q 654 730 671 687 q 609 802 638 774 q 540 844 581 830 q 450 857 499 857 q 344 836 391 857 q 264 771 297 814 q 214 663 231 728 q 196 511 196 598 l 196 441 q 260 181 196 267 q 443 96 323 96 q 616 163 562 96 q 671 367 671 230 l 671 389 l 424 389 l 424 496 l 796 496 l 796 0 l 715 0 l 689 106 z "},"Ģ":{"ha":886,"x_min":68,"x_max":796,"o":"m 503 -200 l 463 -309 l 401 -309 l 432 -210 l 385 -210 l 385 -83 l 503 -83 l 503 -200 m 689 106 q 583 12 645 41 q 443 -17 521 -17 q 283 14 353 -17 q 165 106 213 44 q 93 260 117 168 q 68 476 68 352 q 94 693 68 600 q 170 847 121 785 q 290 939 219 909 q 450 970 361 970 q 588 949 524 970 q 697 885 651 928 q 770 779 744 843 q 796 628 796 714 l 671 628 q 654 730 671 687 q 609 802 638 774 q 540 844 581 830 q 450 857 499 857 q 344 836 391 857 q 264 771 297 814 q 214 663 231 728 q 196 511 196 598 l 196 441 q 260 181 196 267 q 443 96 323 96 q 616 163 562 96 q 671 367 671 230 l 671 389 l 424 389 l 424 496 l 796 496 l 796 0 l 715 0 l 689 106 z "},"Ġ":{"ha":886,"x_min":68,"x_max":796,"o":"m 504 1095 l 383 1095 l 383 1226 l 504 1226 l 504 1095 m 689 106 q 583 12 645 41 q 443 -17 521 -17 q 283 14 353 -17 q 165 106 213 44 q 93 260 117 168 q 68 476 68 352 q 94 693 68 600 q 170 847 121 785 q 290 939 219 909 q 450 970 361 970 q 588 949 524 970 q 697 885 651 928 q 770 779 744 843 q 796 628 796 714 l 671 628 q 654 730 671 687 q 609 802 638 774 q 540 844 581 830 q 450 857 499 857 q 344 836 391 857 q 264 771 297 814 q 214 663 231 728 q 196 511 196 598 l 196 441 q 260 181 196 267 q 443 96 323 96 q 616 163 562 96 q 671 367 671 230 l 671 389 l 424 389 l 424 496 l 796 496 l 796 0 l 715 0 l 689 106 z "},"Ħ":{"ha":822,"x_min":28,"x_max":794,"o":"m 794 681 l 725 681 l 725 0 l 603 0 l 603 425 l 220 425 l 220 0 l 97 0 l 97 681 l 28 681 l 28 781 l 97 781 l 97 953 l 220 953 l 220 781 l 603 781 l 603 953 l 725 953 l 725 781 l 794 781 l 794 681 m 603 536 l 603 681 l 220 681 l 220 536 l 603 536 z "},"Ĥ":{"ha":822,"x_min":97,"x_max":725,"o":"m 585 1038 l 473 1038 l 412 1147 l 349 1038 l 237 1038 l 357 1225 l 465 1225 l 585 1038 m 725 0 l 603 0 l 603 432 l 220 432 l 220 0 l 97 0 l 97 953 l 220 953 l 220 543 l 603 543 l 603 953 l 725 953 l 725 0 z "},"Ĳ":{"ha":886,"x_min":97,"x_max":796,"o":"m 219 0 l 97 0 l 97 953 l 219 953 l 219 0 m 796 227 q 736 45 796 107 q 566 -16 675 -16 q 395 45 456 -16 q 334 227 334 107 l 334 289 l 456 289 l 456 219 q 485 127 456 158 q 566 96 513 96 q 646 127 618 96 q 674 219 674 158 l 674 953 l 796 953 l 796 227 z "},"Ĭ":{"ha":317,"x_min":-14,"x_max":331,"o":"m 219 0 l 97 0 l 97 953 l 219 953 l 219 0 m 331 1227 q 319 1179 331 1203 q 285 1136 307 1155 q 231 1104 262 1116 q 159 1092 199 1092 q 87 1104 119 1092 q 33 1136 55 1116 q -2 1179 10 1155 q -14 1227 -14 1203 l 77 1227 q 84 1211 78 1219 q 102 1196 91 1203 q 127 1185 113 1190 q 159 1181 141 1181 q 191 1185 176 1181 q 217 1196 206 1190 q 234 1211 228 1203 q 242 1227 241 1219 l 331 1227 z "},"İ":{"ha":317,"x_min":97,"x_max":220,"o":"m 219 0 l 97 0 l 97 953 l 219 953 l 219 0 m 220 1095 l 98 1095 l 98 1227 l 220 1227 l 220 1095 z "},"Ī":{"ha":317,"x_min":-16,"x_max":333,"o":"m 219 0 l 97 0 l 97 953 l 219 953 l 219 0 m 333 1054 l -16 1054 l -16 1154 l 333 1154 l 333 1054 z "},"Į":{"ha":317,"x_min":68,"x_max":284,"o":"m 219 0 l 210 0 q 188 -38 198 -16 q 177 -86 177 -61 q 180 -114 177 -100 q 191 -139 184 -128 q 211 -156 199 -150 q 240 -163 222 -163 l 284 -163 l 284 -233 q 241 -248 262 -243 q 199 -253 220 -253 q 154 -247 177 -253 q 112 -226 130 -241 q 81 -188 93 -212 q 68 -127 68 -163 q 83 -54 68 -84 q 120 0 98 -24 l 97 0 l 97 953 l 219 953 l 219 0 z "},"Ĩ":{"ha":317,"x_min":-44,"x_max":361,"o":"m 219 0 l 97 0 l 97 953 l 219 953 l 219 0 m 361 1227 q 355 1177 361 1202 q 334 1131 348 1152 q 297 1096 319 1109 q 243 1082 275 1082 q 201 1089 221 1082 q 161 1104 180 1096 q 123 1118 142 1112 q 83 1125 104 1125 q 52 1116 64 1125 q 37 1082 40 1106 l -44 1082 q -37 1132 -44 1106 q -16 1179 -31 1158 q 20 1213 -2 1200 q 74 1227 43 1227 q 116 1220 96 1227 q 156 1205 136 1213 q 194 1191 175 1198 q 233 1184 213 1184 q 265 1194 252 1184 q 281 1227 277 1203 l 361 1227 z "},"Ĵ":{"ha":570,"x_min":18,"x_max":593,"o":"m 479 227 q 419 45 479 107 q 249 -16 359 -16 q 78 45 139 -16 q 18 227 18 107 l 18 289 l 140 289 l 140 219 q 168 127 140 158 q 249 96 196 96 q 329 127 301 96 q 357 219 357 158 l 357 953 l 479 953 l 479 227 m 593 1038 l 481 1038 l 420 1147 l 357 1038 l 246 1038 l 366 1225 l 474 1225 l 593 1038 z "},"Ķ":{"ha":760,"x_min":97,"x_max":743,"o":"m 439 -200 l 399 -309 l 338 -309 l 368 -210 l 321 -210 l 321 -83 l 439 -83 l 439 -200 m 220 449 l 597 953 l 733 953 l 447 568 l 743 0 l 604 0 l 372 465 l 220 296 l 220 0 l 97 0 l 97 953 l 220 953 l 220 449 z "},"Ĺ":{"ha":633,"x_min":71,"x_max":608,"o":"m 168 1043 l 71 1043 l 191 1226 l 315 1226 l 317 1222 l 168 1043 m 97 0 l 97 953 l 220 953 l 220 111 l 608 111 l 608 0 l 97 0 z "},"Ľ":{"ha":633,"x_min":97,"x_max":608,"o":"m 582 815 l 515 631 l 443 631 l 498 803 l 443 803 l 443 953 l 582 953 l 582 815 m 97 0 l 97 953 l 220 953 l 220 111 l 608 111 l 608 0 l 97 0 z "},"Ļ":{"ha":633,"x_min":97,"x_max":608,"o":"m 376 -200 l 336 -309 l 273 -309 l 306 -210 l 258 -210 l 258 -83 l 376 -83 l 376 -200 m 97 0 l 97 953 l 220 953 l 220 111 l 608 111 l 608 0 l 97 0 z "},"Ŀ":{"ha":633,"x_min":97,"x_max":608,"o":"m 550 575 l 410 575 l 410 729 l 550 729 l 550 575 m 97 0 l 97 953 l 220 953 l 220 111 l 608 111 l 608 0 l 97 0 z "},"Ł":{"ha":633,"x_min":0,"x_max":608,"o":"m 220 549 l 410 718 l 410 616 l 220 449 l 220 111 l 608 111 l 608 0 l 97 0 l 97 340 l 0 256 l 0 354 l 97 440 l 97 953 l 220 953 l 220 549 z "},"Ń":{"ha":822,"x_min":97,"x_max":725,"o":"m 623 0 l 267 607 q 247 644 258 623 q 227 686 237 665 q 205 734 216 709 l 201 733 q 204 685 203 708 q 206 644 205 665 q 207 607 207 622 l 207 0 l 97 0 l 97 953 l 203 953 l 557 355 q 575 319 565 341 q 594 277 585 297 q 615 227 604 252 l 619 228 q 617 279 618 255 q 615 322 616 300 q 615 355 615 343 l 615 953 l 725 953 l 725 0 l 623 0 m 425 1043 l 328 1043 l 448 1227 l 572 1227 l 574 1222 l 425 1043 z "},"Ň":{"ha":822,"x_min":97,"x_max":725,"o":"m 725 0 l 623 0 l 267 607 q 247 644 258 623 q 227 686 237 665 q 205 734 216 709 l 201 733 q 204 685 203 708 q 206 644 205 665 q 207 607 207 622 l 207 0 l 97 0 l 97 953 l 203 953 l 557 355 q 575 319 565 341 q 594 277 585 297 q 615 227 604 252 l 619 228 q 617 279 618 255 q 615 322 616 300 q 615 355 615 343 l 615 953 l 725 953 l 725 0 m 465 1039 l 356 1039 l 238 1227 l 349 1227 l 411 1117 l 473 1227 l 585 1227 l 465 1039 z "},"Ņ":{"ha":822,"x_min":97,"x_max":725,"o":"m 725 0 l 623 0 l 267 607 q 247 644 258 623 q 227 686 237 665 q 205 734 216 709 l 201 733 q 204 685 203 708 q 206 644 205 665 q 207 607 207 622 l 207 0 l 97 0 l 97 953 l 203 953 l 557 355 q 575 319 565 341 q 594 277 585 297 q 615 227 604 252 l 619 228 q 617 279 618 255 q 615 322 616 300 q 615 355 615 343 l 615 953 l 725 953 l 725 0 m 471 -200 l 430 -308 l 368 -308 l 399 -210 l 352 -210 l 352 -83 l 471 -83 l 471 -200 z "},"Ŏ":{"ha":886,"x_min":68,"x_max":818,"o":"m 443 970 q 600 939 530 970 q 718 847 670 909 q 792 693 766 785 q 818 477 818 601 q 792 260 818 353 q 718 106 766 168 q 600 14 670 45 q 443 -16 530 -16 q 286 14 355 -16 q 168 106 216 45 q 94 260 120 168 q 68 477 68 353 q 94 693 68 601 q 168 847 120 785 q 286 939 216 909 q 443 970 355 970 m 443 857 q 340 836 386 857 q 262 771 294 814 q 213 663 230 728 q 196 511 196 598 l 196 441 q 213 290 196 355 q 262 181 230 224 q 340 117 294 138 q 443 96 386 96 q 546 117 500 96 q 624 181 592 138 q 673 290 656 224 q 690 441 690 355 l 690 511 q 673 663 690 598 q 624 771 656 728 q 546 836 592 814 q 443 857 500 857 m 616 1227 q 604 1179 616 1203 q 570 1136 592 1155 q 515 1104 547 1116 q 444 1092 484 1092 q 372 1104 404 1092 q 318 1136 340 1116 q 284 1179 296 1155 q 272 1227 272 1203 l 361 1227 q 369 1211 363 1219 q 387 1196 376 1203 q 412 1185 397 1190 q 444 1181 426 1181 q 476 1185 461 1181 q 502 1196 491 1190 q 519 1211 513 1203 q 527 1227 526 1219 l 616 1227 z "},"Ő":{"ha":886,"x_min":68,"x_max":818,"o":"m 443 970 q 600 939 530 970 q 718 847 670 909 q 792 693 766 785 q 818 477 818 601 q 792 260 818 353 q 718 106 766 168 q 600 14 670 45 q 443 -16 530 -16 q 286 14 355 -16 q 168 106 216 45 q 94 260 120 168 q 68 477 68 353 q 94 693 68 601 q 168 847 120 785 q 286 939 216 909 q 443 970 355 970 m 443 857 q 340 836 386 857 q 262 771 294 814 q 213 663 230 728 q 196 511 196 598 l 196 441 q 213 290 196 355 q 262 181 230 224 q 340 117 294 138 q 443 96 386 96 q 546 117 500 96 q 624 181 592 138 q 673 290 656 224 q 690 441 690 355 l 690 511 q 673 663 690 598 q 624 771 656 728 q 546 836 592 814 q 443 857 500 857 m 704 1222 l 587 1043 l 492 1043 l 578 1227 l 703 1227 l 704 1222 m 523 1222 l 406 1043 l 311 1043 l 397 1227 l 522 1227 l 523 1222 z "},"Ō":{"ha":886,"x_min":68,"x_max":818,"o":"m 443 970 q 600 939 530 970 q 718 847 670 909 q 792 693 766 785 q 818 477 818 601 q 792 260 818 353 q 718 106 766 168 q 600 14 670 45 q 443 -16 530 -16 q 286 14 355 -16 q 168 106 216 45 q 94 260 120 168 q 68 477 68 353 q 94 693 68 601 q 168 847 120 785 q 286 939 216 909 q 443 970 355 970 m 443 857 q 340 836 386 857 q 262 771 294 814 q 213 663 230 728 q 196 511 196 598 l 196 441 q 213 290 196 355 q 262 181 230 224 q 340 117 294 138 q 443 96 386 96 q 546 117 500 96 q 624 181 592 138 q 673 290 656 224 q 690 441 690 355 l 690 511 q 673 663 690 598 q 624 771 656 728 q 546 836 592 814 q 443 857 500 857 m 618 1054 l 270 1054 l 270 1154 l 618 1154 l 618 1054 z "},"Ǿ":{"ha":886,"x_min":68,"x_max":818,"o":"m 718 846 q 792 692 766 785 q 818 477 818 600 q 792 260 818 353 q 718 106 766 168 q 600 14 670 45 q 443 -16 530 -16 q 322 0 377 -16 q 222 52 267 17 l 159 -52 l 70 -52 l 168 106 q 94 260 119 168 q 68 477 68 352 q 94 693 68 601 q 168 847 120 785 q 286 939 216 909 q 443 970 355 970 q 664 900 576 970 l 729 1004 l 818 1004 l 718 846 m 286 155 q 443 96 346 96 q 546 117 500 96 q 624 181 592 138 q 673 290 656 224 q 690 441 690 355 l 690 511 q 680 635 690 581 q 648 732 669 690 l 286 155 m 443 857 q 340 836 386 857 q 262 771 294 814 q 213 663 230 728 q 196 511 196 598 l 196 441 q 207 317 196 372 q 239 219 218 262 l 600 798 q 443 857 537 857 m 457 1043 l 361 1043 l 480 1227 l 605 1227 l 606 1222 l 457 1043 z "},"Ŕ":{"ha":822,"x_min":97,"x_max":787,"o":"m 395 1043 l 297 1043 l 416 1226 l 542 1226 l 543 1222 l 395 1043 m 765 689 q 721 535 765 600 q 596 443 676 471 l 787 0 l 652 0 l 475 421 l 220 421 l 220 0 l 97 0 l 97 953 l 481 953 q 604 933 551 953 q 693 880 657 914 q 747 797 729 845 q 765 689 765 748 m 220 842 l 220 532 l 476 532 q 543 543 513 532 q 593 575 572 554 q 626 625 614 595 q 637 689 637 654 q 596 801 637 760 q 476 842 555 842 l 220 842 z "},"Ř":{"ha":822,"x_min":97,"x_max":787,"o":"m 464 1039 l 355 1039 l 237 1226 l 349 1226 l 411 1117 l 473 1226 l 585 1226 l 464 1039 m 765 689 q 721 535 765 600 q 596 443 676 471 l 787 0 l 652 0 l 475 421 l 220 421 l 220 0 l 97 0 l 97 953 l 481 953 q 604 933 551 953 q 693 880 657 914 q 747 797 729 845 q 765 689 765 748 m 220 842 l 220 532 l 476 532 q 543 543 513 532 q 593 575 572 554 q 626 625 614 595 q 637 689 637 654 q 596 801 637 760 q 476 842 555 842 l 220 842 z "},"Ŗ":{"ha":822,"x_min":97,"x_max":787,"o":"m 471 -200 l 431 -309 l 368 -309 l 400 -210 l 351 -210 l 351 -83 l 471 -83 l 471 -200 m 765 689 q 721 535 765 600 q 596 443 676 471 l 787 0 l 652 0 l 475 421 l 220 421 l 220 0 l 97 0 l 97 953 l 481 953 q 604 933 551 953 q 693 880 657 914 q 747 797 729 845 q 765 689 765 748 m 220 842 l 220 532 l 476 532 q 543 543 513 532 q 593 575 572 554 q 626 625 614 595 q 637 689 637 654 q 596 801 637 760 q 476 842 555 842 l 220 842 z "},"Ś":{"ha":760,"x_min":57,"x_max":700,"o":"m 379 970 q 495 955 441 970 q 591 907 550 939 q 655 823 631 874 q 678 701 678 772 l 678 685 l 552 685 l 552 705 q 539 770 552 742 q 503 818 526 798 q 449 847 480 837 q 382 857 418 857 q 312 849 345 857 q 256 825 280 841 q 219 783 233 808 q 205 724 205 758 q 227 653 205 681 q 283 605 248 625 q 362 570 317 585 q 453 539 406 555 q 544 504 499 524 q 623 454 588 484 q 679 381 657 425 q 700 275 700 338 q 675 140 700 195 q 608 50 651 84 q 506 -1 565 15 q 378 -16 447 -16 q 254 -1 313 -16 q 152 48 196 14 q 83 137 109 82 q 57 270 57 191 q 58 286 57 277 q 58 297 58 294 l 185 297 q 185 293 185 296 q 184 285 184 290 q 183 276 184 281 q 183 269 183 271 q 197 192 183 224 q 237 138 212 160 q 297 106 262 117 q 372 96 332 96 q 520 136 469 96 q 572 254 572 177 q 551 329 572 299 q 495 379 530 358 q 415 414 460 399 q 325 445 371 429 q 234 480 278 460 q 154 530 189 500 q 98 605 119 561 q 77 713 77 649 q 100 828 77 779 q 165 908 124 876 q 261 955 206 939 q 379 970 317 970 m 393 1043 l 297 1043 l 416 1227 l 541 1227 l 543 1222 l 393 1043 z "},"Ş":{"ha":760,"x_min":57,"x_max":700,"o":"m 379 970 q 495 955 441 970 q 591 907 550 939 q 655 823 631 874 q 678 701 678 772 l 678 685 l 552 685 l 552 705 q 539 770 552 742 q 503 818 526 798 q 449 847 480 837 q 382 857 418 857 q 312 849 345 857 q 256 825 280 841 q 219 783 233 808 q 205 724 205 758 q 227 653 205 681 q 283 605 248 625 q 362 570 317 585 q 453 539 406 555 q 544 504 499 524 q 623 454 588 484 q 679 381 657 425 q 700 275 700 338 q 678 145 700 199 q 616 56 656 91 q 522 4 576 22 q 403 -16 467 -13 l 398 -50 q 441 -57 420 -52 q 477 -73 461 -62 q 502 -100 492 -83 q 511 -140 511 -116 q 496 -197 511 -175 q 459 -232 481 -219 q 412 -249 437 -244 q 366 -253 387 -253 q 306 -250 336 -253 q 250 -241 275 -247 l 250 -174 l 355 -174 q 392 -167 378 -174 q 405 -140 405 -160 q 395 -115 405 -123 q 358 -107 385 -107 l 312 -107 l 326 -14 q 221 10 270 -9 q 135 62 172 28 q 78 148 99 96 q 57 270 57 199 q 58 286 57 277 q 58 297 58 294 l 185 297 q 185 293 185 296 q 184 285 184 290 q 183 276 184 281 q 183 269 183 271 q 197 192 183 224 q 237 138 212 160 q 297 106 262 117 q 372 96 332 96 q 520 136 469 96 q 572 254 572 177 q 551 329 572 299 q 495 379 530 358 q 415 414 460 399 q 325 445 371 429 q 234 480 278 460 q 154 530 189 500 q 98 605 119 561 q 77 713 77 649 q 100 828 77 779 q 165 908 124 876 q 261 955 206 939 q 379 970 317 970 z "},"Ŝ":{"ha":760,"x_min":57,"x_max":700,"o":"m 379 970 q 495 955 441 970 q 591 907 550 939 q 655 823 631 874 q 678 701 678 772 l 678 685 l 552 685 l 552 705 q 539 770 552 742 q 503 818 526 798 q 449 847 480 837 q 382 857 418 857 q 312 849 345 857 q 256 825 280 841 q 219 783 233 808 q 205 724 205 758 q 227 653 205 681 q 283 605 248 625 q 362 570 317 585 q 453 539 406 555 q 544 504 499 524 q 623 454 588 484 q 679 381 657 425 q 700 275 700 338 q 675 140 700 195 q 608 50 651 84 q 506 -1 565 15 q 378 -16 447 -16 q 254 -1 313 -16 q 152 48 196 14 q 83 137 109 82 q 57 270 57 191 q 58 286 57 277 q 58 297 58 294 l 185 297 q 185 293 185 296 q 184 285 184 290 q 183 276 184 281 q 183 269 183 271 q 197 192 183 224 q 237 138 212 160 q 297 106 262 117 q 372 96 332 96 q 520 136 469 96 q 572 254 572 177 q 551 329 572 299 q 495 379 530 358 q 415 414 460 399 q 325 445 371 429 q 234 480 278 460 q 154 530 189 500 q 98 605 119 561 q 77 713 77 649 q 100 828 77 779 q 165 908 124 876 q 261 955 206 939 q 379 970 317 970 m 553 1038 l 442 1038 l 381 1147 l 318 1038 l 207 1038 l 326 1225 l 435 1225 l 553 1038 z "},"Ŧ":{"ha":696,"x_min":26,"x_max":668,"o":"m 668 842 l 408 842 l 408 546 l 590 546 l 590 444 l 408 444 l 408 0 l 286 0 l 286 444 l 107 444 l 107 546 l 286 546 l 286 842 l 26 842 l 26 953 l 668 953 l 668 842 z "},"Ť":{"ha":696,"x_min":26,"x_max":668,"o":"m 401 1039 l 293 1039 l 175 1226 l 286 1226 l 347 1117 l 410 1226 l 521 1226 l 401 1039 m 26 953 l 668 953 l 668 842 l 408 842 l 408 0 l 286 0 l 286 842 l 26 842 l 26 953 z "},"Ţ":{"ha":696,"x_min":26,"x_max":668,"o":"m 407 -200 l 367 -309 l 306 -309 l 336 -210 l 289 -210 l 289 -83 l 407 -83 l 407 -200 m 26 953 l 668 953 l 668 842 l 408 842 l 408 0 l 286 0 l 286 842 l 26 842 l 26 953 z "},"Ŭ":{"ha":822,"x_min":97,"x_max":725,"o":"m 725 310 q 704 169 725 229 q 642 66 682 108 q 543 4 601 25 q 411 -16 484 -16 q 279 4 338 -16 q 180 66 221 25 q 118 169 140 108 q 97 310 97 229 l 97 953 l 219 953 l 219 302 q 270 149 219 201 q 411 96 321 96 q 552 149 500 96 q 603 302 603 201 l 603 953 l 725 953 l 725 310 m 583 1227 q 571 1179 583 1203 q 537 1136 559 1155 q 483 1104 515 1116 q 411 1092 451 1092 q 339 1104 371 1092 q 286 1136 308 1116 q 251 1179 263 1155 q 239 1227 239 1203 l 329 1227 q 337 1211 330 1219 q 354 1196 343 1203 q 379 1185 365 1190 q 411 1181 393 1181 q 444 1185 429 1181 q 469 1196 458 1190 q 487 1211 480 1203 q 494 1227 493 1219 l 583 1227 z "},"Ű":{"ha":822,"x_min":97,"x_max":725,"o":"m 725 310 q 704 169 725 229 q 642 66 682 108 q 543 4 601 25 q 411 -16 484 -16 q 279 4 338 -16 q 180 66 221 25 q 118 169 140 108 q 97 310 97 229 l 97 953 l 219 953 l 219 302 q 270 149 219 201 q 411 96 321 96 q 552 149 500 96 q 603 302 603 201 l 603 953 l 725 953 l 725 310 m 671 1222 l 555 1043 l 459 1043 l 545 1227 l 670 1227 l 671 1222 m 490 1222 l 374 1043 l 278 1043 l 364 1227 l 489 1227 l 490 1222 z "},"Ū":{"ha":822,"x_min":97,"x_max":725,"o":"m 725 310 q 704 169 725 229 q 642 66 682 108 q 543 4 601 25 q 411 -16 484 -16 q 279 4 338 -16 q 180 66 221 25 q 118 169 140 108 q 97 310 97 229 l 97 953 l 219 953 l 219 302 q 270 149 219 201 q 411 96 321 96 q 552 149 500 96 q 603 302 603 201 l 603 953 l 725 953 l 725 310 m 585 1054 l 237 1054 l 237 1154 l 585 1154 l 585 1054 z "},"Ų":{"ha":822,"x_min":97,"x_max":725,"o":"m 725 310 q 681 117 725 193 q 554 9 636 42 q 541 -9 548 1 q 528 -32 534 -20 q 518 -58 522 -44 q 514 -86 514 -72 q 517 -114 514 -100 q 528 -139 521 -128 q 548 -156 536 -150 q 577 -163 559 -163 l 621 -163 l 621 -233 q 578 -248 600 -243 q 536 -253 557 -253 q 491 -247 514 -253 q 449 -226 467 -241 q 418 -188 430 -212 q 406 -127 406 -163 q 416 -64 406 -91 q 444 -15 427 -37 q 428 -16 436 -16 q 411 -16 420 -16 q 279 4 338 -16 q 180 66 221 25 q 118 169 140 108 q 97 310 97 229 l 97 953 l 219 953 l 219 302 q 270 149 219 201 q 411 96 321 96 q 552 149 500 96 q 603 302 603 201 l 603 953 l 725 953 l 725 310 z "},"Ů":{"ha":822,"x_min":97,"x_max":725,"o":"m 725 310 q 704 169 725 229 q 642 66 682 108 q 543 4 601 25 q 411 -16 484 -16 q 279 4 338 -16 q 180 66 221 25 q 118 169 140 108 q 97 310 97 229 l 97 953 l 219 953 l 219 302 q 270 149 219 201 q 411 96 321 96 q 552 149 500 96 q 603 302 603 201 l 603 953 l 725 953 l 725 310 m 411 1270 q 464 1260 439 1270 q 506 1231 488 1249 q 534 1188 524 1213 q 544 1137 544 1164 q 533 1085 544 1109 q 505 1043 523 1061 q 463 1014 487 1025 q 411 1004 439 1004 q 359 1014 384 1004 q 317 1042 335 1024 q 288 1084 298 1060 q 277 1137 277 1109 q 288 1189 277 1165 q 316 1231 298 1213 q 359 1260 334 1249 q 411 1270 383 1270 m 411 1208 q 384 1202 397 1208 q 361 1187 370 1197 q 346 1164 351 1177 q 340 1137 340 1152 q 346 1110 340 1123 q 361 1087 351 1097 q 384 1072 370 1078 q 411 1066 397 1066 q 438 1072 425 1066 q 460 1087 450 1078 q 476 1110 470 1097 q 481 1137 481 1123 q 476 1164 481 1152 q 460 1187 470 1177 q 438 1202 450 1197 q 411 1208 425 1208 z "},"Ũ":{"ha":822,"x_min":97,"x_max":725,"o":"m 725 310 q 704 169 725 229 q 642 66 682 108 q 543 4 601 25 q 411 -16 484 -16 q 279 4 338 -16 q 180 66 221 25 q 118 169 140 108 q 97 310 97 229 l 97 953 l 219 953 l 219 302 q 270 149 219 201 q 411 96 321 96 q 552 149 500 96 q 603 302 603 201 l 603 953 l 725 953 l 725 310 m 614 1227 q 607 1177 614 1202 q 586 1131 600 1152 q 549 1096 572 1109 q 496 1082 527 1082 q 453 1089 473 1082 q 413 1104 433 1096 q 375 1118 394 1112 q 336 1125 356 1125 q 304 1116 317 1125 q 289 1082 292 1106 l 208 1082 q 215 1132 208 1106 q 236 1179 222 1158 q 273 1213 250 1200 q 326 1227 295 1227 q 369 1220 349 1227 q 408 1205 389 1213 q 446 1191 427 1198 q 486 1184 465 1184 q 517 1194 505 1184 q 533 1227 530 1203 l 614 1227 z "},"Ẃ":{"ha":1075,"x_min":14,"x_max":1061,"o":"m 682 0 l 566 646 q 557 702 562 670 q 548 765 552 734 q 538 837 543 800 l 533 837 q 524 765 529 800 q 515 702 520 734 q 507 646 511 670 l 393 0 l 235 0 l 14 953 l 142 953 l 289 294 q 298 244 294 273 q 308 189 303 215 q 318 125 313 157 l 323 125 q 330 178 326 151 q 337 232 333 202 q 347 294 341 262 l 457 953 l 626 953 l 745 294 q 754 239 749 269 q 762 184 759 210 q 770 125 766 154 l 775 125 l 785 186 q 794 241 789 212 q 804 294 799 271 l 950 953 l 1061 953 l 840 0 l 682 0 m 551 1043 l 455 1043 l 574 1227 l 699 1227 l 701 1222 l 551 1043 z "},"Ŵ":{"ha":1075,"x_min":14,"x_max":1061,"o":"m 840 0 l 682 0 l 566 646 q 557 702 562 670 q 548 765 552 734 q 538 837 543 800 l 533 837 q 524 765 529 800 q 515 702 520 734 q 507 646 511 670 l 393 0 l 235 0 l 14 953 l 142 953 l 289 294 q 298 244 294 273 q 308 189 303 215 q 318 125 313 157 l 323 125 q 330 178 326 151 q 337 232 333 202 q 347 294 341 262 l 457 953 l 626 953 l 745 294 q 754 239 749 269 q 762 184 759 210 q 770 125 766 154 l 775 125 l 785 186 q 794 241 789 212 q 804 294 799 271 l 950 953 l 1061 953 l 840 0 m 711 1038 l 600 1038 l 539 1147 l 476 1038 l 365 1038 l 484 1225 l 593 1225 l 711 1038 z "},"Ẅ":{"ha":1075,"x_min":14,"x_max":1061,"o":"m 840 0 l 682 0 l 566 646 q 557 702 562 670 q 548 765 552 734 q 538 837 543 800 l 533 837 q 524 765 529 800 q 515 702 520 734 q 507 646 511 670 l 393 0 l 235 0 l 14 953 l 142 953 l 289 294 q 298 244 294 273 q 308 189 303 215 q 318 125 313 157 l 323 125 q 330 178 326 151 q 337 232 333 202 q 347 294 341 262 l 457 953 l 626 953 l 745 294 q 754 239 749 269 q 762 184 759 210 q 770 125 766 154 l 775 125 l 785 186 q 794 241 789 212 q 804 294 799 271 l 950 953 l 1061 953 l 840 0 m 703 1095 l 581 1095 l 581 1227 l 703 1227 l 703 1095 m 494 1095 l 373 1095 l 373 1227 l 494 1227 l 494 1095 z "},"Ẁ":{"ha":1075,"x_min":14,"x_max":1061,"o":"m 682 0 l 566 646 q 557 702 562 670 q 548 765 552 734 q 538 837 543 800 l 533 837 q 524 765 529 800 q 515 702 520 734 q 507 646 511 670 l 393 0 l 235 0 l 14 953 l 142 953 l 289 294 q 298 244 294 273 q 308 189 303 215 q 318 125 313 157 l 323 125 q 330 178 326 151 q 337 232 333 202 q 347 294 341 262 l 457 953 l 626 953 l 745 294 q 754 239 749 269 q 762 184 759 210 q 770 125 766 154 l 775 125 l 785 186 q 794 241 789 212 q 804 294 799 271 l 950 953 l 1061 953 l 840 0 l 682 0 m 525 1043 l 374 1222 l 376 1227 l 501 1227 l 621 1043 l 525 1043 z "},"Ŷ":{"ha":760,"x_min":11,"x_max":749,"o":"m 441 395 l 441 0 l 319 0 l 319 395 l 11 953 l 146 953 l 387 511 l 393 511 l 630 953 l 749 953 l 441 395 m 553 1038 l 442 1038 l 381 1147 l 318 1038 l 207 1038 l 326 1225 l 435 1225 l 553 1038 z "},"Ỳ":{"ha":760,"x_min":11,"x_max":749,"o":"m 441 0 l 319 0 l 319 395 l 11 953 l 146 953 l 387 511 l 393 511 l 630 953 l 749 953 l 441 395 l 441 0 m 367 1043 l 216 1222 l 218 1227 l 343 1227 l 463 1043 l 367 1043 z "},"Ź":{"ha":696,"x_min":28,"x_max":665,"o":"m 361 1043 l 265 1043 l 385 1226 l 510 1226 l 511 1222 l 361 1043 m 28 0 l 28 53 l 481 842 l 57 842 l 57 953 l 656 953 l 656 900 l 201 111 l 665 111 l 665 0 l 28 0 z "},"Ż":{"ha":696,"x_min":28,"x_max":665,"o":"m 408 1095 l 288 1095 l 288 1226 l 408 1226 l 408 1095 m 28 0 l 28 53 l 481 842 l 57 842 l 57 953 l 656 953 l 656 900 l 201 111 l 665 111 l 665 0 l 28 0 z "},"ă":{"ha":633,"x_min":47,"x_max":614,"o":"m 310 747 q 475 693 420 747 q 530 543 530 640 l 530 133 q 543 96 530 107 q 570 85 555 85 l 614 85 l 614 5 q 585 -5 604 0 q 538 -11 566 -11 q 464 14 494 -11 q 423 79 434 39 l 416 79 q 342 9 388 34 q 239 -16 296 -16 q 199 -13 220 -16 q 157 -2 178 -10 q 116 20 136 5 q 80 57 96 35 q 56 113 65 80 q 47 189 47 145 q 75 312 47 264 q 152 387 102 360 q 269 424 201 414 q 416 433 337 433 l 416 528 q 412 576 416 554 q 394 613 407 597 q 359 637 381 629 q 301 646 336 646 q 247 636 269 646 q 213 609 226 626 q 195 572 200 593 q 189 530 189 551 l 189 514 l 77 514 q 75 527 75 520 l 75 544 q 93 632 75 594 q 141 696 110 671 q 215 734 172 722 q 310 747 258 747 m 416 332 q 315 327 361 332 q 236 307 269 321 q 185 265 203 292 q 167 196 167 239 q 192 109 167 134 q 265 85 217 85 q 319 96 292 85 q 368 130 346 107 q 403 186 389 152 q 416 265 416 220 l 416 332 m 489 1004 q 477 957 489 981 q 443 913 465 932 q 389 882 420 894 q 317 869 357 869 q 245 882 277 869 q 191 913 214 894 q 157 957 169 932 q 145 1004 145 981 l 235 1004 q 242 989 236 997 q 260 974 249 981 q 285 963 271 967 q 317 958 299 958 q 349 963 334 958 q 375 974 364 967 q 392 989 386 981 q 400 1004 399 997 l 489 1004 z "},"ǽ":{"ha":1013,"x_min":56,"x_max":940,"o":"m 700 747 q 805 728 760 747 q 880 667 850 709 q 925 561 910 626 q 940 404 940 496 l 940 332 l 544 332 q 584 144 545 203 q 704 85 623 85 q 754 96 731 85 q 793 129 777 107 q 818 180 809 150 q 827 249 827 211 l 940 249 q 923 138 940 187 q 874 55 905 89 q 798 2 842 20 q 701 -16 754 -16 q 570 9 625 -16 q 479 94 514 35 q 386 14 440 43 q 269 -16 332 -16 q 197 -9 235 -16 q 128 20 159 -2 q 76 82 96 42 q 56 189 56 123 q 83 312 56 264 q 160 387 111 360 q 277 424 210 414 q 425 433 345 433 l 425 528 q 420 576 425 554 q 402 613 415 597 q 367 637 389 629 q 310 646 345 646 q 256 636 277 646 q 221 609 234 626 q 203 572 208 593 q 197 530 197 551 l 197 514 l 85 514 q 83 527 83 520 l 83 544 q 101 632 83 594 q 149 696 118 671 q 223 734 180 722 q 318 747 267 747 q 432 726 385 747 q 505 664 479 705 q 588 727 541 707 q 700 747 636 747 m 425 332 q 323 327 369 332 q 244 307 277 321 q 193 265 212 292 q 175 196 175 239 q 200 109 175 134 q 274 85 226 85 q 328 95 300 85 q 376 127 355 106 q 411 180 397 148 q 425 254 425 212 l 425 332 m 700 646 q 634 633 662 646 q 589 592 607 619 q 560 526 570 566 q 546 433 550 486 l 821 433 q 790 592 821 538 q 700 646 760 646 m 520 821 l 424 821 l 543 1004 l 668 1004 l 669 1000 l 520 821 z "},"ā":{"ha":633,"x_min":47,"x_max":614,"o":"m 310 747 q 475 693 420 747 q 530 543 530 640 l 530 133 q 543 96 530 107 q 570 85 555 85 l 614 85 l 614 5 q 585 -5 604 0 q 538 -11 566 -11 q 464 14 494 -11 q 423 79 434 39 l 416 79 q 342 9 388 34 q 239 -16 296 -16 q 199 -13 220 -16 q 157 -2 178 -10 q 116 20 136 5 q 80 57 96 35 q 56 113 65 80 q 47 189 47 145 q 75 312 47 264 q 152 387 102 360 q 269 424 201 414 q 416 433 337 433 l 416 528 q 412 576 416 554 q 394 613 407 597 q 359 637 381 629 q 301 646 336 646 q 247 636 269 646 q 213 609 226 626 q 195 572 200 593 q 189 530 189 551 l 189 514 l 77 514 q 75 527 75 520 l 75 544 q 93 632 75 594 q 141 696 110 671 q 215 734 172 722 q 310 747 258 747 m 416 332 q 315 327 361 332 q 236 307 269 321 q 185 265 203 292 q 167 196 167 239 q 192 109 167 134 q 265 85 217 85 q 319 96 292 85 q 368 130 346 107 q 403 186 389 152 q 416 265 416 220 l 416 332 m 491 831 l 143 831 l 143 932 l 491 932 l 491 831 z "},"ą":{"ha":633,"x_min":47,"x_max":677,"o":"m 310 747 q 475 693 420 747 q 530 543 530 640 l 530 133 q 543 96 530 107 q 570 85 555 85 l 614 85 l 614 5 q 609 3 612 4 q 603 0 606 1 q 581 -38 591 -16 q 570 -86 570 -61 q 573 -114 570 -100 q 584 -139 576 -128 q 603 -156 591 -150 q 633 -163 615 -163 l 677 -163 l 677 -233 q 634 -248 655 -243 q 592 -253 613 -253 q 546 -247 570 -253 q 504 -226 523 -241 q 473 -188 486 -212 q 461 -127 461 -163 q 474 -58 461 -87 q 507 -7 487 -30 q 453 23 475 1 q 423 79 432 46 l 416 79 q 342 9 388 34 q 239 -16 296 -16 q 199 -13 220 -16 q 157 -2 178 -10 q 116 20 136 5 q 80 57 96 35 q 56 113 65 80 q 47 189 47 145 q 75 312 47 264 q 152 387 102 360 q 269 424 201 414 q 416 433 337 433 l 416 528 q 412 576 416 554 q 394 613 407 597 q 359 637 381 629 q 301 646 336 646 q 247 636 269 646 q 213 609 226 626 q 195 572 200 593 q 189 530 189 551 l 189 514 l 77 514 q 75 527 75 520 l 75 544 q 93 632 75 594 q 141 696 110 671 q 215 734 172 722 q 310 747 258 747 m 416 332 q 315 327 361 332 q 236 307 269 321 q 185 265 203 292 q 167 196 167 239 q 192 109 167 134 q 265 85 217 85 q 319 96 292 85 q 368 130 346 107 q 403 186 389 152 q 416 265 416 220 l 416 332 z "},"ǻ":{"ha":633,"x_min":47,"x_max":614,"o":"m 310 747 q 475 693 420 747 q 530 543 530 640 l 530 133 q 543 96 530 107 q 570 85 555 85 l 614 85 l 614 5 q 585 -5 604 0 q 538 -11 566 -11 q 464 14 494 -11 q 423 79 434 39 l 416 79 q 342 9 388 34 q 239 -16 296 -16 q 199 -13 220 -16 q 157 -2 178 -10 q 116 20 136 5 q 80 57 96 35 q 56 113 65 80 q 47 189 47 145 q 75 312 47 264 q 152 387 102 360 q 269 424 201 414 q 416 433 337 433 l 416 528 q 412 576 416 554 q 394 613 407 597 q 359 637 381 629 q 301 646 336 646 q 247 636 269 646 q 213 609 226 626 q 195 572 200 593 q 189 530 189 551 l 189 514 l 77 514 q 75 527 75 520 l 75 544 q 93 632 75 594 q 141 696 110 671 q 215 734 172 722 q 310 747 258 747 m 317 1034 q 370 1024 346 1034 q 412 998 394 1015 q 440 958 430 981 q 450 909 450 935 q 440 860 450 883 q 411 820 429 837 q 369 794 393 804 q 317 785 345 785 q 266 794 290 785 q 223 820 241 803 q 194 859 205 836 q 184 909 184 882 q 194 959 184 936 q 223 999 205 982 q 265 1025 241 1015 q 317 1034 290 1034 m 416 332 q 315 327 361 332 q 236 307 269 321 q 185 265 203 292 q 167 196 167 239 q 192 109 167 134 q 265 85 217 85 q 319 96 292 85 q 368 130 346 107 q 403 186 389 152 q 416 265 416 220 l 416 332 m 503 1222 l 368 1067 l 272 1067 l 377 1227 l 502 1227 l 503 1222 m 317 974 q 290 969 303 974 q 267 956 277 964 q 252 935 258 947 q 246 909 246 924 q 252 883 246 895 q 267 863 258 871 q 290 849 277 854 q 317 844 303 844 q 344 849 332 844 q 367 863 357 854 q 382 883 376 871 q 388 909 388 895 q 382 935 388 924 q 367 956 376 947 q 344 969 357 964 q 317 974 332 974 z "},"ć":{"ha":570,"x_min":50,"x_max":524,"o":"m 300 747 q 402 729 359 747 q 471 673 444 710 q 511 583 498 637 q 524 460 524 530 l 406 460 q 400 542 406 507 q 383 600 395 577 q 351 635 371 623 q 300 646 330 646 q 201 583 232 646 q 170 392 170 519 l 170 338 q 200 149 170 212 q 300 85 231 85 q 352 97 330 85 q 386 133 373 109 q 405 191 399 157 q 411 271 411 226 l 524 271 q 511 162 524 214 q 472 70 499 110 q 403 7 446 31 q 300 -16 360 -16 q 188 6 235 -16 q 111 76 141 29 q 65 195 80 123 q 50 366 50 267 q 111 654 50 562 q 300 747 172 747 m 312 821 l 216 821 l 335 1004 l 460 1004 l 461 1000 l 312 821 z "},"č":{"ha":570,"x_min":50,"x_max":524,"o":"m 300 747 q 402 729 359 747 q 471 673 444 710 q 511 583 498 637 q 524 460 524 530 l 406 460 q 400 542 406 507 q 383 600 395 577 q 351 635 371 623 q 300 646 330 646 q 201 583 232 646 q 170 392 170 519 l 170 338 q 200 149 170 212 q 300 85 231 85 q 352 97 330 85 q 386 133 373 109 q 405 191 399 157 q 411 271 411 226 l 524 271 q 511 162 524 214 q 472 70 499 110 q 403 7 446 31 q 300 -16 360 -16 q 188 6 235 -16 q 111 76 141 29 q 65 195 80 123 q 50 366 50 267 q 111 654 50 562 q 300 747 172 747 m 338 817 l 230 817 l 112 1004 l 223 1004 l 285 895 l 347 1004 l 458 1004 l 338 817 z "},"ĉ":{"ha":570,"x_min":50,"x_max":524,"o":"m 300 747 q 402 729 359 747 q 471 673 444 710 q 511 583 498 637 q 524 460 524 530 l 406 460 q 400 542 406 507 q 383 600 395 577 q 351 635 371 623 q 300 646 330 646 q 201 583 232 646 q 170 392 170 519 l 170 338 q 200 149 170 212 q 300 85 231 85 q 352 97 330 85 q 386 133 373 109 q 405 191 399 157 q 411 271 411 226 l 524 271 q 511 162 524 214 q 472 70 499 110 q 403 7 446 31 q 300 -16 360 -16 q 188 6 235 -16 q 111 76 141 29 q 65 195 80 123 q 50 366 50 267 q 111 654 50 562 q 300 747 172 747 m 458 815 l 347 815 l 286 925 l 223 815 l 112 815 l 231 1003 l 340 1003 l 458 815 z "},"ċ":{"ha":570,"x_min":50,"x_max":524,"o":"m 300 747 q 402 729 359 747 q 471 673 444 710 q 511 583 498 637 q 524 460 524 530 l 406 460 q 400 542 406 507 q 383 600 395 577 q 351 635 371 623 q 300 646 330 646 q 201 583 232 646 q 170 392 170 519 l 170 338 q 200 149 170 212 q 300 85 231 85 q 352 97 330 85 q 386 133 373 109 q 405 191 399 157 q 411 271 411 226 l 524 271 q 511 162 524 214 q 472 70 499 110 q 403 7 446 31 q 300 -16 360 -16 q 188 6 235 -16 q 111 76 141 29 q 65 195 80 123 q 50 366 50 267 q 111 654 50 562 q 300 747 172 747 m 346 872 l 224 872 l 224 1004 l 346 1004 l 346 872 z "},"ď":{"ha":700,"x_min":56,"x_max":744,"o":"m 550 0 l 464 0 l 449 85 l 441 85 q 374 9 416 34 q 282 -16 333 -16 q 188 6 230 -16 q 116 75 146 28 q 71 194 87 121 q 56 367 56 266 q 73 538 56 466 q 120 656 90 610 q 189 725 149 703 q 274 747 229 747 q 369 725 327 747 q 429 661 410 702 l 436 661 l 436 1004 l 550 1004 l 550 0 m 305 646 q 248 632 273 646 q 208 587 224 618 q 183 508 191 557 q 175 392 175 460 l 175 338 q 183 222 175 271 q 208 144 191 174 q 248 99 224 113 q 305 85 273 85 q 404 149 372 85 q 436 338 436 212 l 436 386 q 305 646 436 646 m 744 815 l 677 630 l 605 630 l 661 803 l 605 803 l 605 953 l 744 953 l 744 815 z "},"đ":{"ha":629,"x_min":56,"x_max":630,"o":"m 550 904 l 630 904 l 630 810 l 550 810 l 550 0 l 464 0 l 449 85 l 441 85 q 374 9 416 34 q 282 -16 333 -16 q 188 6 230 -16 q 116 75 146 28 q 71 194 87 121 q 56 367 56 266 q 73 538 56 466 q 120 656 90 610 q 189 725 149 703 q 274 747 229 747 q 369 725 327 747 q 429 661 410 702 l 436 661 l 436 810 l 282 810 l 282 904 l 436 904 l 436 1004 l 550 1004 l 550 904 m 305 646 q 248 632 273 646 q 208 587 224 618 q 183 508 191 557 q 175 392 175 460 l 175 338 q 183 222 175 271 q 208 144 191 174 q 248 99 224 113 q 305 85 273 85 q 404 149 372 85 q 436 338 436 212 l 436 386 q 305 646 436 646 z "},"ı":{"ha":317,"x_min":101,"x_max":215,"o":"m 215 0 l 101 0 l 101 730 l 215 730 l 215 0 z "},"ĕ":{"ha":633,"x_min":58,"x_max":574,"o":"m 333 747 q 438 728 393 747 q 513 667 484 709 q 558 561 543 626 q 574 404 574 496 l 574 332 l 178 332 q 217 144 178 204 q 337 85 256 85 q 387 96 364 85 q 426 129 410 107 q 452 180 443 150 q 461 249 461 211 l 574 249 q 556 138 574 187 q 508 55 539 89 q 432 2 476 20 q 334 -16 388 -16 q 215 5 267 -16 q 129 73 163 26 q 76 192 94 119 q 58 366 58 264 q 127 654 58 562 q 333 747 196 747 m 333 646 q 268 633 295 646 q 222 592 240 619 q 193 526 203 566 q 179 433 183 486 l 454 433 q 424 592 454 538 q 333 646 393 646 m 489 1004 q 477 957 489 981 q 443 913 465 932 q 389 882 420 894 q 317 869 357 869 q 245 882 277 869 q 191 913 214 894 q 157 957 169 932 q 145 1004 145 981 l 235 1004 q 242 989 236 997 q 260 974 249 981 q 285 963 271 967 q 317 958 299 958 q 349 963 334 958 q 375 974 364 967 q 392 989 386 981 q 400 1004 399 997 l 489 1004 z "},"ě":{"ha":633,"x_min":58,"x_max":574,"o":"m 333 747 q 438 728 393 747 q 513 667 484 709 q 558 561 543 626 q 574 404 574 496 l 574 332 l 178 332 q 217 144 178 204 q 337 85 256 85 q 387 96 364 85 q 426 129 410 107 q 452 180 443 150 q 461 249 461 211 l 574 249 q 556 138 574 187 q 508 55 539 89 q 432 2 476 20 q 334 -16 388 -16 q 215 5 267 -16 q 129 73 163 26 q 76 192 94 119 q 58 366 58 264 q 127 654 58 562 q 333 747 196 747 m 333 646 q 268 633 295 646 q 222 592 240 619 q 193 526 203 566 q 179 433 183 486 l 454 433 q 424 592 454 538 q 333 646 393 646 m 370 817 l 262 817 l 144 1004 l 255 1004 l 317 895 l 379 1004 l 490 1004 l 370 817 z "},"ė":{"ha":633,"x_min":58,"x_max":574,"o":"m 333 747 q 438 728 393 747 q 513 667 484 709 q 558 561 543 626 q 574 404 574 496 l 574 332 l 178 332 q 217 144 178 204 q 337 85 256 85 q 387 96 364 85 q 426 129 410 107 q 452 180 443 150 q 461 249 461 211 l 574 249 q 556 138 574 187 q 508 55 539 89 q 432 2 476 20 q 334 -16 388 -16 q 215 5 267 -16 q 129 73 163 26 q 76 192 94 119 q 58 366 58 264 q 127 654 58 562 q 333 747 196 747 m 333 646 q 268 633 295 646 q 222 592 240 619 q 193 526 203 566 q 179 433 183 486 l 454 433 q 424 592 454 538 q 333 646 393 646 m 378 872 l 256 872 l 256 1004 l 378 1004 l 378 872 z "},"ē":{"ha":633,"x_min":58,"x_max":574,"o":"m 333 747 q 438 728 393 747 q 513 667 484 709 q 558 561 543 626 q 574 404 574 496 l 574 332 l 178 332 q 217 144 178 204 q 337 85 256 85 q 387 96 364 85 q 426 129 410 107 q 452 180 443 150 q 461 249 461 211 l 574 249 q 556 138 574 187 q 508 55 539 89 q 432 2 476 20 q 334 -16 388 -16 q 215 5 267 -16 q 129 73 163 26 q 76 192 94 119 q 58 366 58 264 q 127 654 58 562 q 333 747 196 747 m 333 646 q 268 633 295 646 q 222 592 240 619 q 193 526 203 566 q 179 433 183 486 l 454 433 q 424 592 454 538 q 333 646 393 646 m 491 831 l 143 831 l 143 932 l 491 932 l 491 831 z "},"ŋ":{"ha":633,"x_min":83,"x_max":550,"o":"m 370 747 q 444 736 411 747 q 501 698 477 724 q 537 629 524 671 q 550 526 550 587 l 550 -85 q 543 -146 550 -116 q 519 -200 536 -176 q 475 -238 503 -224 q 406 -253 447 -253 q 354 -248 380 -253 q 310 -236 328 -242 l 310 -157 l 371 -157 q 420 -140 404 -157 q 436 -90 436 -123 l 436 518 q 429 581 436 556 q 408 620 421 606 q 375 641 394 635 q 333 646 356 646 q 281 633 306 646 q 238 593 257 619 q 209 530 220 568 q 197 446 197 493 l 197 0 l 83 0 l 83 730 l 170 730 l 185 646 l 193 646 q 269 724 224 701 q 370 747 315 747 z "},"ę":{"ha":633,"x_min":58,"x_max":574,"o":"m 333 747 q 438 728 393 747 q 513 667 484 709 q 558 561 543 626 q 574 404 574 496 l 574 332 l 178 332 q 217 144 178 204 q 337 85 256 85 q 387 96 364 85 q 426 129 410 107 q 452 180 443 150 q 461 249 461 211 l 574 249 q 541 101 574 162 q 450 10 507 41 q 436 -7 444 3 q 422 -30 429 -18 q 412 -57 416 -43 q 408 -86 408 -71 q 412 -114 408 -100 q 422 -139 415 -128 q 442 -156 430 -150 q 471 -163 454 -163 l 515 -163 l 515 -233 q 473 -248 494 -243 q 431 -253 452 -253 q 385 -247 408 -253 q 343 -226 361 -241 q 312 -188 324 -212 q 300 -127 300 -163 q 310 -64 300 -91 q 338 -16 321 -38 l 334 -16 q 215 5 267 -16 q 129 73 163 26 q 76 192 94 119 q 58 366 58 264 q 127 654 58 562 q 333 747 196 747 m 333 646 q 268 633 295 646 q 222 592 240 619 q 193 526 203 566 q 179 433 183 486 l 454 433 q 424 592 454 538 q 333 646 393 646 z "},"ğ":{"ha":633,"x_min":18,"x_max":619,"o":"m 606 849 q 597 788 606 817 q 573 736 589 759 q 535 697 557 713 q 484 673 512 681 q 531 599 514 642 q 549 501 549 556 q 532 399 549 445 q 485 322 515 354 q 411 274 454 291 q 315 256 368 256 l 239 256 q 213 251 224 256 q 192 237 201 245 q 177 216 182 228 q 172 191 172 204 q 178 165 172 177 q 192 144 183 153 q 213 130 201 135 q 239 125 225 125 l 448 125 q 519 111 487 125 q 573 74 551 98 q 607 20 595 51 q 619 -45 619 -11 q 605 -127 619 -89 q 564 -193 591 -165 q 497 -237 537 -220 q 406 -253 457 -253 l 199 -253 q 120 -239 154 -253 q 63 -202 86 -226 q 29 -147 41 -178 q 18 -79 18 -115 q 24 -28 18 -53 q 43 17 31 -3 q 73 53 56 37 q 113 77 91 68 q 68 124 84 94 q 53 186 53 153 q 81 263 53 231 q 156 313 109 296 q 94 392 116 345 q 71 501 71 439 q 87 604 71 559 q 135 682 104 650 q 210 730 165 713 q 310 747 254 747 q 365 740 338 747 q 415 721 392 733 q 456 749 439 734 q 482 781 472 764 q 497 814 492 798 q 505 849 503 831 l 606 849 m 216 16 q 179 10 195 16 q 152 -8 163 3 q 137 -35 142 -20 q 132 -68 132 -51 q 137 -102 132 -86 q 153 -129 142 -117 q 179 -148 163 -141 q 216 -155 195 -155 l 418 -155 q 452 -148 436 -155 q 479 -129 467 -141 q 497 -102 491 -117 q 504 -68 504 -86 q 499 -35 504 -51 q 483 -8 494 -20 q 456 10 472 3 q 418 16 440 16 l 216 16 m 309 653 q 216 612 248 653 q 185 501 185 572 q 216 389 185 428 q 309 351 248 351 q 401 391 370 351 q 433 501 433 431 q 401 614 433 575 q 309 653 370 653 m 489 1004 q 477 957 489 981 q 443 913 465 932 q 389 882 420 894 q 317 869 357 869 q 245 882 277 869 q 191 913 214 894 q 157 957 169 932 q 145 1004 145 981 l 235 1004 q 242 989 236 997 q 260 974 249 981 q 285 963 271 967 q 317 958 299 958 q 349 963 334 958 q 375 974 364 967 q 392 989 386 981 q 400 1004 399 997 l 489 1004 z "},"ĝ":{"ha":633,"x_min":18,"x_max":619,"o":"m 606 849 q 597 788 606 817 q 573 736 589 759 q 535 697 557 713 q 484 673 512 681 q 531 599 514 642 q 549 501 549 556 q 532 399 549 445 q 485 322 515 354 q 411 274 454 291 q 315 256 368 256 l 239 256 q 213 251 224 256 q 192 237 201 245 q 177 216 182 228 q 172 191 172 204 q 178 165 172 177 q 192 144 183 153 q 213 130 201 135 q 239 125 225 125 l 448 125 q 519 111 487 125 q 573 74 551 98 q 607 20 595 51 q 619 -45 619 -11 q 605 -127 619 -89 q 564 -193 591 -165 q 497 -237 537 -220 q 406 -253 457 -253 l 199 -253 q 120 -239 154 -253 q 63 -202 86 -226 q 29 -147 41 -178 q 18 -79 18 -115 q 24 -28 18 -53 q 43 17 31 -3 q 73 53 56 37 q 113 77 91 68 q 68 124 84 94 q 53 186 53 153 q 81 263 53 231 q 156 313 109 296 q 94 392 116 345 q 71 501 71 439 q 87 604 71 559 q 135 682 104 650 q 210 730 165 713 q 310 747 254 747 q 365 740 338 747 q 415 721 392 733 q 460 746 441 734 q 489 773 478 759 q 506 806 500 788 q 512 849 511 824 l 606 849 m 216 16 q 179 10 195 16 q 152 -8 163 3 q 137 -35 142 -20 q 132 -68 132 -51 q 137 -102 132 -86 q 153 -129 142 -117 q 179 -148 163 -141 q 216 -155 195 -155 l 418 -155 q 452 -148 436 -155 q 479 -129 467 -141 q 497 -102 491 -117 q 504 -68 504 -86 q 499 -35 504 -51 q 483 -8 494 -20 q 456 10 472 3 q 418 16 440 16 l 216 16 m 309 653 q 216 612 248 653 q 185 501 185 572 q 216 389 185 428 q 309 351 248 351 q 401 391 370 351 q 433 501 433 431 q 401 614 433 575 q 309 653 370 653 m 490 815 l 379 815 l 318 925 l 255 815 l 144 815 l 263 1003 l 372 1003 l 490 815 z "},"ģ":{"ha":633,"x_min":18,"x_max":619,"o":"m 606 849 q 597 788 606 817 q 573 736 589 759 q 535 697 557 713 q 484 673 512 681 q 531 599 514 642 q 549 501 549 556 q 532 399 549 445 q 485 322 515 354 q 411 274 454 291 q 315 256 368 256 l 239 256 q 213 251 224 256 q 192 237 201 245 q 177 216 182 228 q 172 191 172 204 q 178 165 172 177 q 192 144 183 153 q 213 130 201 135 q 239 125 225 125 l 448 125 q 519 111 487 125 q 573 74 551 98 q 607 20 595 51 q 619 -45 619 -11 q 605 -127 619 -89 q 564 -193 591 -165 q 497 -237 537 -220 q 406 -253 457 -253 l 199 -253 q 120 -239 154 -253 q 63 -202 86 -226 q 29 -147 41 -178 q 18 -79 18 -115 q 24 -28 18 -53 q 43 17 31 -3 q 73 53 56 37 q 113 77 91 68 q 68 124 84 94 q 53 186 53 153 q 81 263 53 231 q 156 313 109 296 q 94 392 116 345 q 71 501 71 439 q 87 604 71 559 q 135 682 104 650 q 210 730 165 713 q 310 747 254 747 q 365 740 338 747 q 415 721 392 733 q 456 749 439 734 q 482 781 472 764 q 497 814 492 798 q 505 849 503 831 l 606 849 m 216 16 q 179 10 195 16 q 152 -8 163 3 q 137 -35 142 -20 q 132 -68 132 -51 q 137 -102 132 -86 q 153 -129 142 -117 q 179 -148 163 -141 q 216 -155 195 -155 l 418 -155 q 452 -148 436 -155 q 479 -129 467 -141 q 497 -102 491 -117 q 504 -68 504 -86 q 499 -35 504 -51 q 483 -8 494 -20 q 456 10 472 3 q 418 16 440 16 l 216 16 m 309 653 q 216 612 248 653 q 185 501 185 572 q 216 389 185 428 q 309 351 248 351 q 401 391 370 351 q 433 501 433 431 q 401 614 433 575 q 309 653 370 653 m 237 943 l 277 1051 l 339 1051 l 308 953 l 355 953 l 355 827 l 237 827 l 237 943 z "},"ġ":{"ha":633,"x_min":18,"x_max":619,"o":"m 606 849 q 597 788 606 817 q 573 736 589 759 q 535 697 557 713 q 484 673 512 681 q 531 599 514 642 q 549 501 549 556 q 532 399 549 445 q 485 322 515 354 q 411 274 454 291 q 315 256 368 256 l 239 256 q 213 251 224 256 q 192 237 201 245 q 177 216 182 228 q 172 191 172 204 q 178 165 172 177 q 192 144 183 153 q 213 130 201 135 q 239 125 225 125 l 448 125 q 519 111 487 125 q 573 74 551 98 q 607 20 595 51 q 619 -45 619 -11 q 605 -127 619 -89 q 564 -193 591 -165 q 497 -237 537 -220 q 406 -253 457 -253 l 199 -253 q 120 -239 154 -253 q 63 -202 86 -226 q 29 -147 41 -178 q 18 -79 18 -115 q 24 -28 18 -53 q 43 17 31 -3 q 73 53 56 37 q 113 77 91 68 q 68 124 84 94 q 53 186 53 153 q 81 263 53 231 q 156 313 109 296 q 94 392 116 345 q 71 501 71 439 q 87 604 71 559 q 135 682 104 650 q 210 730 165 713 q 310 747 254 747 q 365 740 338 747 q 415 721 392 733 q 456 749 439 734 q 482 781 472 764 q 497 814 492 798 q 505 849 503 831 l 606 849 m 216 16 q 179 10 195 16 q 152 -8 163 3 q 137 -35 142 -20 q 132 -68 132 -51 q 137 -102 132 -86 q 153 -129 142 -117 q 179 -148 163 -141 q 216 -155 195 -155 l 418 -155 q 452 -148 436 -155 q 479 -129 467 -141 q 497 -102 491 -117 q 504 -68 504 -86 q 499 -35 504 -51 q 483 -8 494 -20 q 456 10 472 3 q 418 16 440 16 l 216 16 m 309 653 q 216 612 248 653 q 185 501 185 572 q 216 389 185 428 q 309 351 248 351 q 401 391 370 351 q 433 501 433 431 q 401 614 433 575 q 309 653 370 653 m 378 872 l 256 872 l 256 1004 l 378 1004 l 378 872 z "},"ħ":{"ha":633,"x_min":0,"x_max":550,"o":"m 197 904 l 348 904 l 348 810 l 197 810 l 197 654 l 205 654 q 274 725 234 703 q 370 747 315 747 q 444 736 411 747 q 501 698 477 724 q 537 629 524 671 q 550 526 550 587 l 550 0 l 436 0 l 436 518 q 429 581 436 556 q 408 620 421 606 q 375 641 394 635 q 333 646 356 646 q 281 633 306 646 q 238 593 257 619 q 209 530 220 568 q 197 446 197 493 l 197 0 l 83 0 l 83 810 l 0 810 l 0 904 l 83 904 l 83 1004 l 197 1004 l 197 904 z "},"ĥ":{"ha":633,"x_min":-31,"x_max":550,"o":"m 197 654 l 205 654 q 274 725 234 703 q 370 747 315 747 q 444 736 411 747 q 501 698 477 724 q 537 629 524 671 q 550 526 550 587 l 550 0 l 436 0 l 436 518 q 429 581 436 556 q 408 620 421 606 q 375 641 394 635 q 333 646 356 646 q 281 633 306 646 q 238 593 257 619 q 209 530 220 568 q 197 446 197 493 l 197 0 l 83 0 l 83 1004 l 197 1004 l 197 654 m 317 1038 l 205 1038 l 144 1147 l 81 1038 l -31 1038 l 90 1225 l 198 1225 l 317 1038 z "},"ĭ":{"ha":317,"x_min":-14,"x_max":331,"o":"m 215 0 l 101 0 l 101 730 l 215 730 l 215 0 m 331 1004 q 319 957 331 981 q 285 913 307 932 q 231 882 262 894 q 159 869 199 869 q 87 882 119 869 q 33 913 55 894 q -2 957 10 932 q -14 1004 -14 981 l 77 1004 q 84 989 78 997 q 102 974 91 981 q 127 963 113 967 q 159 958 141 958 q 191 963 176 958 q 217 974 206 967 q 234 989 228 981 q 242 1004 241 997 l 331 1004 z "},"ĳ":{"ha":506,"x_min":70,"x_max":436,"o":"m 183 0 l 70 0 l 70 730 l 183 730 l 183 0 m 183 868 l 70 868 l 70 1004 l 183 1004 l 183 868 m 436 -85 q 429 -146 436 -116 q 406 -200 422 -176 q 361 -238 389 -224 q 292 -253 334 -253 q 240 -248 267 -253 q 196 -236 214 -242 l 196 -157 l 257 -157 q 306 -140 290 -157 q 323 -90 323 -123 l 323 730 l 436 730 l 436 -85 m 436 868 l 323 868 l 323 1004 l 436 1004 l 436 868 z "},"ī":{"ha":317,"x_min":-16,"x_max":333,"o":"m 215 0 l 101 0 l 101 730 l 215 730 l 215 0 m 333 831 l -16 831 l -16 932 l 333 932 l 333 831 z "},"į":{"ha":253,"x_min":33,"x_max":249,"o":"m 184 0 l 174 0 q 152 -38 163 -16 q 142 -86 142 -61 q 145 -114 142 -100 q 156 -139 149 -128 q 175 -156 163 -150 q 205 -163 187 -163 l 249 -163 l 249 -233 q 206 -248 227 -243 q 164 -253 185 -253 q 118 -247 142 -253 q 76 -226 95 -241 q 45 -188 58 -212 q 33 -127 33 -163 q 48 -54 33 -84 q 85 0 63 -24 l 70 0 l 70 730 l 184 730 l 184 0 m 189 872 l 67 872 l 67 1004 l 189 1004 l 189 872 z "},"ĩ":{"ha":317,"x_min":-44,"x_max":361,"o":"m 215 0 l 101 0 l 101 730 l 215 730 l 215 0 m 361 1004 q 355 955 361 980 q 334 908 348 929 q 297 873 319 887 q 243 860 275 860 q 201 867 221 860 q 161 881 180 873 q 123 896 142 889 q 83 903 104 903 q 52 893 64 903 q 37 860 40 884 l -44 860 q -37 909 -44 884 q -16 956 -31 935 q 20 991 -2 977 q 74 1004 43 1004 q 116 998 96 1004 q 156 983 136 991 q 194 968 175 975 q 233 962 213 962 q 265 971 252 962 q 281 1004 277 981 l 361 1004 z "},"ĵ":{"ha":253,"x_min":-57,"x_max":300,"o":"m 183 -85 q 176 -146 183 -116 q 153 -200 170 -176 q 109 -238 136 -224 q 39 -253 81 -253 q -13 -248 14 -253 q -57 -236 -39 -242 l -57 -157 l 4 -157 q 53 -140 37 -157 q 70 -90 70 -123 l 70 730 l 183 730 l 183 -85 m 300 815 l 189 815 l 127 925 l 64 815 l -47 815 l 73 1003 l 181 1003 l 300 815 z "},"ķ":{"ha":570,"x_min":83,"x_max":571,"o":"m 197 392 l 433 730 l 560 730 l 344 431 l 571 0 l 441 0 l 275 333 l 197 249 l 197 0 l 83 0 l 83 1004 l 197 1004 l 197 392 m 345 -200 l 304 -308 l 242 -308 l 273 -210 l 226 -210 l 226 -83 l 345 -83 l 345 -200 z "},"ĸ":{"ha":567,"x_min":83,"x_max":571,"o":"m 344 431 l 571 0 l 441 0 l 275 333 l 197 249 l 197 0 l 83 0 l 83 730 l 197 730 l 197 392 l 433 730 l 560 730 l 344 431 z "},"ĺ":{"ha":253,"x_min":44,"x_max":290,"o":"m 70 0 l 70 1004 l 183 1004 l 183 0 l 70 0 m 140 1043 l 44 1043 l 163 1227 l 288 1227 l 290 1222 l 140 1043 z "},"ľ":{"ha":332,"x_min":70,"x_max":378,"o":"m 183 0 l 70 0 l 70 1004 l 183 1004 l 183 0 m 378 815 l 311 630 l 239 630 l 295 803 l 239 803 l 239 953 l 378 953 l 378 815 z "},"ļ":{"ha":253,"x_min":68,"x_max":186,"o":"m 183 0 l 70 0 l 70 1004 l 183 1004 l 183 0 m 186 -200 l 146 -308 l 84 -308 l 115 -210 l 68 -210 l 68 -83 l 186 -83 l 186 -200 z "},"ŀ":{"ha":448,"x_min":70,"x_max":380,"o":"m 183 0 l 70 0 l 70 1004 l 183 1004 l 183 0 m 380 400 l 239 400 l 239 555 l 380 555 l 380 400 z "},"ſ":{"ha":253,"x_min":12,"x_max":317,"o":"m 220 1015 q 273 1010 246 1015 q 317 998 299 1005 l 317 920 l 256 920 q 207 903 223 920 q 191 853 191 886 l 191 0 l 77 0 l 77 629 l 12 629 l 12 730 l 77 730 l 77 848 q 83 909 77 879 q 107 962 90 939 q 151 1001 123 986 q 220 1015 179 1015 z "},"ł":{"ha":253,"x_min":-30,"x_max":304,"o":"m 183 543 l 304 650 l 304 549 l 183 443 l 183 0 l 70 0 l 70 342 l -30 255 l -30 354 l 70 442 l 70 1004 l 183 1004 l 183 543 z "},"ń":{"ha":633,"x_min":83,"x_max":550,"o":"m 370 747 q 444 736 411 747 q 501 698 477 724 q 537 629 524 671 q 550 526 550 587 l 550 0 l 436 0 l 436 518 q 429 581 436 556 q 408 620 421 606 q 375 641 394 635 q 333 646 356 646 q 281 633 306 646 q 238 593 257 619 q 209 530 220 568 q 197 446 197 493 l 197 0 l 83 0 l 83 730 l 170 730 l 185 646 l 193 646 q 269 724 224 701 q 370 747 315 747 m 330 821 l 234 821 l 353 1004 l 478 1004 l 479 1000 l 330 821 z "},"ŉ":{"ha":795,"x_min":66,"x_max":712,"o":"m 184 834 l 144 726 l 82 726 l 113 825 l 66 825 l 66 951 l 184 951 l 184 834 m 532 747 q 606 736 573 747 q 663 698 640 724 q 699 629 686 671 q 712 526 712 587 l 712 0 l 598 0 l 598 518 q 591 581 598 556 q 570 620 583 606 q 537 641 556 635 q 495 646 518 646 q 444 633 468 646 q 400 593 419 619 q 371 530 382 568 q 359 446 359 493 l 359 0 l 245 0 l 245 730 l 332 730 l 347 646 l 355 646 q 431 724 386 701 q 532 747 477 747 z "},"ň":{"ha":633,"x_min":83,"x_max":550,"o":"m 370 747 q 444 736 411 747 q 501 698 477 724 q 537 629 524 671 q 550 526 550 587 l 550 0 l 436 0 l 436 518 q 429 581 436 556 q 408 620 421 606 q 375 641 394 635 q 333 646 356 646 q 281 633 306 646 q 238 593 257 619 q 209 530 220 568 q 197 446 197 493 l 197 0 l 83 0 l 83 730 l 170 730 l 185 646 l 193 646 q 269 724 224 701 q 370 747 315 747 m 370 817 l 262 817 l 144 1004 l 255 1004 l 317 895 l 379 1004 l 490 1004 l 370 817 z "},"ņ":{"ha":633,"x_min":83,"x_max":550,"o":"m 370 747 q 444 736 411 747 q 501 698 477 724 q 537 629 524 671 q 550 526 550 587 l 550 0 l 436 0 l 436 518 q 429 581 436 556 q 408 620 421 606 q 375 641 394 635 q 333 646 356 646 q 281 633 306 646 q 238 593 257 619 q 209 530 220 568 q 197 446 197 493 l 197 0 l 83 0 l 83 730 l 170 730 l 185 646 l 193 646 q 269 724 224 701 q 370 747 315 747 m 376 -200 l 336 -308 l 274 -308 l 305 -210 l 258 -210 l 258 -83 l 376 -83 l 376 -200 z "},"ŏ":{"ha":633,"x_min":56,"x_max":578,"o":"m 317 747 q 511 654 445 747 q 578 366 578 562 q 511 76 578 169 q 317 -16 445 -16 q 122 76 189 -16 q 56 366 56 169 q 122 654 56 562 q 317 747 189 747 m 317 646 q 210 583 245 646 q 175 392 175 519 l 175 338 q 210 149 175 212 q 317 85 245 85 q 423 149 388 85 q 458 338 458 212 l 458 392 q 423 583 458 519 q 317 646 388 646 m 489 1004 q 477 957 489 981 q 443 913 465 932 q 389 882 420 894 q 317 869 357 869 q 245 882 277 869 q 191 913 214 894 q 157 957 169 932 q 145 1004 145 981 l 235 1004 q 242 989 236 997 q 260 974 249 981 q 285 963 271 967 q 317 958 299 958 q 349 963 334 958 q 375 974 364 967 q 392 989 386 981 q 400 1004 399 997 l 489 1004 z "},"ő":{"ha":633,"x_min":56,"x_max":578,"o":"m 317 747 q 511 654 445 747 q 578 366 578 562 q 511 76 578 169 q 317 -16 445 -16 q 122 76 189 -16 q 56 366 56 169 q 122 654 56 562 q 317 747 189 747 m 317 646 q 210 583 245 646 q 175 392 175 519 l 175 338 q 210 149 175 212 q 317 85 245 85 q 423 149 388 85 q 458 338 458 212 l 458 392 q 423 583 458 519 q 317 646 388 646 m 577 1000 l 460 821 l 365 821 l 451 1004 l 576 1004 l 577 1000 m 396 1000 l 279 821 l 184 821 l 270 1004 l 395 1004 l 396 1000 z "},"ō":{"ha":633,"x_min":56,"x_max":578,"o":"m 317 747 q 511 654 445 747 q 578 366 578 562 q 511 76 578 169 q 317 -16 445 -16 q 122 76 189 -16 q 56 366 56 169 q 122 654 56 562 q 317 747 189 747 m 317 646 q 210 583 245 646 q 175 392 175 519 l 175 338 q 210 149 175 212 q 317 85 245 85 q 423 149 388 85 q 458 338 458 212 l 458 392 q 423 583 458 519 q 317 646 388 646 m 491 831 l 143 831 l 143 932 l 491 932 l 491 831 z "},"ǿ":{"ha":696,"x_min":86,"x_max":608,"o":"m 541 654 q 608 366 608 559 q 542 76 608 169 q 347 -16 475 -16 q 266 -6 303 -16 q 200 26 229 5 l 163 -44 l 86 -44 l 152 77 q 103 195 119 123 q 86 366 86 266 q 153 654 86 562 q 347 747 219 747 q 493 704 435 747 l 532 775 l 608 775 l 541 654 m 256 126 q 347 85 289 85 q 454 149 418 85 q 489 338 489 212 l 489 392 q 485 467 489 433 q 474 528 481 500 l 256 126 m 347 646 q 241 583 276 646 q 205 392 205 519 l 205 338 q 209 264 205 298 q 219 201 212 230 l 439 604 q 347 646 402 646 m 361 821 l 265 821 l 385 1004 l 509 1004 l 511 1000 l 361 821 z "},"ŕ":{"ha":379,"x_min":46,"x_max":371,"o":"m 317 747 q 338 745 328 747 q 355 741 347 743 l 371 736 l 371 618 l 333 618 q 281 609 306 618 q 238 580 257 600 q 209 527 220 560 q 197 446 197 494 l 197 0 l 83 0 l 83 730 l 170 730 l 185 635 l 193 635 q 210 676 200 656 q 235 712 220 696 q 270 738 250 728 q 317 747 290 747 m 142 821 l 46 821 l 165 1004 l 290 1004 l 292 1000 l 142 821 z "},"ř":{"ha":379,"x_min":-4,"x_max":371,"o":"m 317 747 q 338 745 328 747 q 355 741 347 743 l 371 736 l 371 618 l 333 618 q 281 609 306 618 q 238 580 257 600 q 209 527 220 560 q 197 446 197 494 l 197 0 l 83 0 l 83 730 l 170 730 l 185 635 l 193 635 q 210 676 200 656 q 235 712 220 696 q 270 738 250 728 q 317 747 290 747 m 223 817 l 115 817 l -4 1004 l 108 1004 l 170 895 l 232 1004 l 343 1004 l 223 817 z "},"ŗ":{"ha":379,"x_min":83,"x_max":371,"o":"m 317 747 q 338 745 328 747 q 355 741 347 743 l 371 736 l 371 618 l 333 618 q 281 609 306 618 q 238 580 257 600 q 209 527 220 560 q 197 446 197 494 l 197 0 l 83 0 l 83 730 l 170 730 l 185 635 l 193 635 q 210 676 200 656 q 235 712 220 696 q 270 738 250 728 q 317 747 290 747 m 211 -200 l 170 -308 l 109 -308 l 140 -210 l 92 -210 l 92 -83 l 211 -83 l 211 -200 z "},"ś":{"ha":570,"x_min":45,"x_max":514,"o":"m 290 747 q 380 731 341 747 q 446 688 419 715 q 486 624 473 661 q 500 547 500 588 q 499 531 500 540 q 498 521 498 523 l 380 521 l 380 533 q 376 575 380 554 q 359 612 371 595 q 328 638 347 628 q 279 648 309 648 q 230 637 249 648 q 200 612 211 627 q 184 580 189 597 q 180 547 180 562 q 195 498 180 517 q 232 465 209 479 q 286 441 256 452 q 347 420 316 431 q 409 393 378 408 q 462 354 439 378 q 500 294 486 330 q 514 208 514 259 q 496 107 514 149 q 448 37 479 64 q 374 -3 416 9 q 281 -16 331 -16 q 173 2 218 -16 q 100 50 128 20 q 59 118 72 80 q 45 197 45 157 q 46 219 45 212 q 47 228 47 226 l 167 228 l 167 214 q 176 155 167 179 q 201 114 185 130 q 239 91 218 98 q 286 83 261 83 q 328 90 309 83 q 363 111 348 97 q 387 145 378 125 q 396 192 396 165 q 382 249 396 227 q 344 287 368 271 q 291 313 321 302 q 230 336 261 324 q 168 362 198 347 q 115 400 138 377 q 77 456 92 422 q 63 538 63 490 q 79 626 63 587 q 125 691 95 665 q 196 733 155 718 q 290 747 238 747 m 298 821 l 202 821 l 321 1004 l 446 1004 l 448 1000 l 298 821 z "},"ş":{"ha":570,"x_min":45,"x_max":514,"o":"m 290 747 q 380 731 341 747 q 446 688 419 715 q 486 624 473 661 q 500 547 500 588 q 499 531 500 540 q 498 521 498 523 l 380 521 l 380 533 q 376 575 380 554 q 359 612 371 595 q 328 638 347 628 q 279 648 309 648 q 230 637 249 648 q 200 612 211 627 q 184 580 189 597 q 180 547 180 562 q 195 498 180 517 q 232 465 209 479 q 286 441 256 452 q 347 420 316 431 q 409 393 378 408 q 462 354 439 378 q 500 294 486 330 q 514 208 514 259 q 499 113 514 153 q 456 45 484 73 q 391 3 429 18 q 308 -15 353 -12 l 303 -50 q 346 -57 326 -52 q 382 -73 366 -62 q 407 -100 397 -83 q 416 -140 416 -116 q 401 -197 416 -175 q 365 -232 387 -219 q 317 -249 342 -244 q 271 -253 292 -253 q 211 -250 241 -253 q 155 -241 180 -247 l 155 -174 l 260 -174 q 297 -167 283 -174 q 310 -140 310 -160 q 300 -115 310 -123 q 263 -107 290 -107 l 217 -107 l 231 -13 q 146 14 182 -6 q 89 62 111 34 q 56 126 66 91 q 45 197 45 161 q 46 219 45 212 q 47 228 47 226 l 167 228 l 167 214 q 176 155 167 179 q 201 114 185 130 q 239 91 218 98 q 286 83 261 83 q 328 90 309 83 q 363 111 348 97 q 387 145 378 125 q 396 192 396 165 q 382 249 396 227 q 344 287 368 271 q 291 313 321 302 q 230 336 261 324 q 168 362 198 347 q 115 400 138 377 q 77 456 92 422 q 63 538 63 490 q 79 626 63 587 q 125 691 95 665 q 196 733 155 718 q 290 747 238 747 z "},"ŝ":{"ha":570,"x_min":45,"x_max":514,"o":"m 290 747 q 380 731 341 747 q 446 688 419 715 q 486 624 473 661 q 500 547 500 588 q 499 531 500 540 q 498 521 498 523 l 380 521 l 380 533 q 376 575 380 554 q 359 612 371 595 q 328 638 347 628 q 279 648 309 648 q 230 637 249 648 q 200 612 211 627 q 184 580 189 597 q 180 547 180 562 q 195 498 180 517 q 232 465 209 479 q 286 441 256 452 q 347 420 316 431 q 409 393 378 408 q 462 354 439 378 q 500 294 486 330 q 514 208 514 259 q 496 107 514 149 q 448 37 479 64 q 374 -3 416 9 q 281 -16 331 -16 q 173 2 218 -16 q 100 50 128 20 q 59 118 72 80 q 45 197 45 157 q 46 219 45 212 q 47 228 47 226 l 167 228 l 167 214 q 176 155 167 179 q 201 114 185 130 q 239 91 218 98 q 286 83 261 83 q 328 90 309 83 q 363 111 348 97 q 387 145 378 125 q 396 192 396 165 q 382 249 396 227 q 344 287 368 271 q 291 313 321 302 q 230 336 261 324 q 168 362 198 347 q 115 400 138 377 q 77 456 92 422 q 63 538 63 490 q 79 626 63 587 q 125 691 95 665 q 196 733 155 718 q 290 747 238 747 m 458 815 l 347 815 l 286 925 l 223 815 l 112 815 l 231 1003 l 340 1003 l 458 815 z "},"ŧ":{"ha":317,"x_min":19,"x_max":294,"o":"m 196 730 l 294 730 l 294 629 l 196 629 l 196 484 l 288 484 l 288 391 l 196 391 l 196 152 q 212 102 196 119 q 261 85 229 85 l 294 85 l 294 5 q 257 -8 280 -3 q 212 -14 233 -14 q 150 1 175 -14 q 110 39 125 16 q 89 93 95 63 q 82 155 82 123 l 82 391 l 22 391 l 22 484 l 82 484 l 82 629 l 19 629 l 19 730 l 82 730 l 107 933 l 196 933 l 196 730 z "},"ť":{"ha":427,"x_min":19,"x_max":490,"o":"m 196 730 l 294 730 l 294 629 l 196 629 l 196 152 q 212 102 196 119 q 261 85 229 85 l 294 85 l 294 5 q 257 -8 280 -3 q 212 -14 233 -14 q 150 1 175 -14 q 110 39 125 16 q 89 93 95 63 q 82 155 82 123 l 82 629 l 19 629 l 19 730 l 82 730 l 107 933 l 196 933 l 196 730 m 490 815 l 422 630 l 351 630 l 406 803 l 351 803 l 351 953 l 490 953 l 490 815 z "},"ţ":{"ha":317,"x_min":19,"x_max":294,"o":"m 196 730 l 294 730 l 294 629 l 196 629 l 196 152 q 212 102 196 119 q 261 85 229 85 l 294 85 l 294 5 q 257 -8 280 -3 q 212 -14 233 -14 q 150 1 175 -14 q 110 39 125 16 q 89 93 95 63 q 82 155 82 123 l 82 629 l 19 629 l 19 730 l 82 730 l 107 933 l 196 933 l 196 730 m 218 -200 l 178 -308 l 116 -308 l 147 -210 l 100 -210 l 100 -83 l 218 -83 l 218 -200 z "},"ŭ":{"ha":633,"x_min":83,"x_max":550,"o":"m 550 0 l 464 0 l 449 85 l 440 85 q 364 7 410 30 q 264 -16 318 -16 q 190 -5 223 -16 q 133 33 156 7 q 96 101 109 59 q 83 204 83 143 l 83 730 l 197 730 l 197 212 q 205 150 197 174 q 226 111 212 125 q 258 91 239 96 q 300 85 277 85 q 352 98 327 85 q 395 138 376 112 q 425 200 414 163 q 436 285 436 237 l 436 730 l 550 730 l 550 0 m 489 1004 q 477 957 489 981 q 443 913 465 932 q 389 882 420 894 q 317 869 357 869 q 245 882 277 869 q 191 913 214 894 q 157 957 169 932 q 145 1004 145 981 l 235 1004 q 242 989 236 997 q 260 974 249 981 q 285 963 271 967 q 317 958 299 958 q 349 963 334 958 q 375 974 364 967 q 392 989 386 981 q 400 1004 399 997 l 489 1004 z "},"ű":{"ha":633,"x_min":83,"x_max":577,"o":"m 550 0 l 464 0 l 449 85 l 440 85 q 364 7 410 30 q 264 -16 318 -16 q 190 -5 223 -16 q 133 33 156 7 q 96 101 109 59 q 83 204 83 143 l 83 730 l 197 730 l 197 212 q 205 150 197 174 q 226 111 212 125 q 258 91 239 96 q 300 85 277 85 q 352 98 327 85 q 395 138 376 112 q 425 200 414 163 q 436 285 436 237 l 436 730 l 550 730 l 550 0 m 577 1000 l 460 821 l 365 821 l 451 1004 l 576 1004 l 577 1000 m 396 1000 l 279 821 l 184 821 l 270 1004 l 395 1004 l 396 1000 z "},"ū":{"ha":633,"x_min":83,"x_max":550,"o":"m 550 0 l 464 0 l 449 85 l 440 85 q 364 7 410 30 q 264 -16 318 -16 q 190 -5 223 -16 q 133 33 156 7 q 96 101 109 59 q 83 204 83 143 l 83 730 l 197 730 l 197 212 q 205 150 197 174 q 226 111 212 125 q 258 91 239 96 q 300 85 277 85 q 352 98 327 85 q 395 138 376 112 q 425 200 414 163 q 436 285 436 237 l 436 730 l 550 730 l 550 0 m 491 831 l 143 831 l 143 932 l 491 932 l 491 831 z "},"ⁿ":{"ha":415,"x_min":48,"x_max":368,"o":"m 244 1021 q 295 1013 273 1021 q 334 986 318 1004 q 359 939 351 968 q 368 868 368 910 l 368 513 l 286 513 l 286 863 q 281 904 286 888 q 268 930 277 920 q 247 943 259 939 q 219 947 234 947 q 185 939 201 947 q 158 913 170 930 q 139 871 146 896 q 132 815 132 846 l 132 513 l 48 513 l 48 1010 l 113 1010 l 123 953 q 175 1005 142 989 q 244 1021 207 1021 z "},"ų":{"ha":633,"x_min":83,"x_max":615,"o":"m 550 0 l 541 0 q 518 -38 529 -16 q 508 -86 508 -61 q 511 -114 508 -100 q 522 -139 515 -128 q 542 -156 530 -150 q 571 -163 553 -163 l 615 -163 l 615 -233 q 572 -248 593 -243 q 530 -253 551 -253 q 485 -247 508 -253 q 443 -226 461 -241 q 412 -188 424 -212 q 399 -127 399 -163 q 405 -83 399 -103 q 418 -46 410 -63 q 438 -16 427 -30 q 462 12 450 -1 l 449 85 l 440 85 q 364 7 410 30 q 264 -16 318 -16 q 190 -5 223 -16 q 133 33 156 7 q 96 101 109 59 q 83 204 83 143 l 83 730 l 197 730 l 197 212 q 205 150 197 174 q 226 111 212 125 q 258 91 239 96 q 300 85 277 85 q 352 98 327 85 q 395 138 376 112 q 425 200 414 163 q 436 285 436 237 l 436 730 l 550 730 l 550 0 z "},"ů":{"ha":633,"x_min":83,"x_max":550,"o":"m 550 0 l 464 0 l 449 85 l 440 85 q 364 7 410 30 q 264 -16 318 -16 q 190 -5 223 -16 q 133 33 156 7 q 96 101 109 59 q 83 204 83 143 l 83 730 l 197 730 l 197 212 q 205 150 197 174 q 226 111 212 125 q 258 91 239 96 q 300 85 277 85 q 352 98 327 85 q 395 138 376 112 q 425 200 414 163 q 436 285 436 237 l 436 730 l 550 730 l 550 0 m 317 1048 q 369 1037 345 1048 q 411 1008 393 1027 q 439 966 429 990 q 450 915 450 942 q 439 863 450 887 q 411 820 429 838 q 369 792 393 802 q 317 781 345 781 q 265 791 290 781 q 222 820 241 802 q 194 862 204 838 q 183 915 183 886 q 194 967 183 943 q 222 1009 204 991 q 264 1037 240 1027 q 317 1048 289 1048 m 317 985 q 289 980 302 985 q 267 965 276 975 q 251 942 257 955 q 245 915 245 929 q 251 887 245 901 q 267 865 257 874 q 289 849 276 855 q 317 844 302 844 q 343 849 331 844 q 366 865 356 855 q 381 887 376 874 q 387 915 387 901 q 381 942 387 929 q 366 965 376 955 q 343 980 356 975 q 317 985 331 985 z "},"ũ":{"ha":633,"x_min":83,"x_max":550,"o":"m 550 0 l 464 0 l 449 85 l 440 85 q 364 7 410 30 q 264 -16 318 -16 q 190 -5 223 -16 q 133 33 156 7 q 96 101 109 59 q 83 204 83 143 l 83 730 l 197 730 l 197 212 q 205 150 197 174 q 226 111 212 125 q 258 91 239 96 q 300 85 277 85 q 352 98 327 85 q 395 138 376 112 q 425 200 414 163 q 436 285 436 237 l 436 730 l 550 730 l 550 0 m 519 1004 q 513 955 519 980 q 492 908 506 929 q 455 873 477 887 q 401 860 433 860 q 359 867 379 860 q 319 881 338 873 q 281 896 300 889 q 241 903 262 903 q 210 893 222 903 q 195 860 198 884 l 114 860 q 121 909 114 884 q 142 956 127 935 q 178 991 156 977 q 232 1004 201 1004 q 274 998 254 1004 q 314 983 294 991 q 352 968 333 975 q 391 962 371 962 q 423 971 410 962 q 439 1004 435 981 l 519 1004 z "},"ẃ":{"ha":822,"x_min":1,"x_max":819,"o":"m 511 0 l 435 416 q 426 475 429 445 q 418 529 422 505 q 412 585 415 557 l 407 585 q 401 529 404 557 q 394 475 397 505 q 385 416 390 445 l 310 0 l 183 0 l 1 730 l 126 730 l 218 319 q 228 267 223 297 q 237 210 233 237 q 247 146 242 178 l 253 146 q 259 204 256 174 q 266 260 262 230 q 275 319 270 291 l 349 730 l 481 730 l 556 319 q 565 261 561 291 q 572 205 568 231 q 578 146 575 175 l 583 146 q 591 201 587 172 q 600 257 595 227 q 612 319 606 288 l 704 730 l 819 730 l 637 0 l 511 0 m 425 821 l 328 821 l 448 1004 l 572 1004 l 574 1000 l 425 821 z "},"ŵ":{"ha":822,"x_min":1,"x_max":819,"o":"m 637 0 l 511 0 l 435 416 q 426 475 429 445 q 418 529 422 505 q 412 585 415 557 l 407 585 q 401 529 404 557 q 394 475 397 505 q 385 416 390 445 l 310 0 l 183 0 l 1 730 l 126 730 l 218 319 q 228 267 223 297 q 237 210 233 237 q 247 146 242 178 l 253 146 q 259 204 256 174 q 266 260 262 230 q 275 319 270 291 l 349 730 l 481 730 l 556 319 q 565 261 561 291 q 572 205 568 231 q 578 146 575 175 l 583 146 q 591 201 587 172 q 600 257 595 227 q 612 319 606 288 l 704 730 l 819 730 l 637 0 m 585 815 l 473 815 l 412 925 l 349 815 l 238 815 l 357 1003 l 466 1003 l 585 815 z "},"ẅ":{"ha":822,"x_min":1,"x_max":819,"o":"m 637 0 l 511 0 l 435 416 q 426 475 429 445 q 418 529 422 505 q 412 585 415 557 l 407 585 q 401 529 404 557 q 394 475 397 505 q 385 416 390 445 l 310 0 l 183 0 l 1 730 l 126 730 l 218 319 q 228 267 223 297 q 237 210 233 237 q 247 146 242 178 l 253 146 q 259 204 256 174 q 266 260 262 230 q 275 319 270 291 l 349 730 l 481 730 l 556 319 q 565 261 561 291 q 572 205 568 231 q 578 146 575 175 l 583 146 q 591 201 587 172 q 600 257 595 227 q 612 319 606 288 l 704 730 l 819 730 l 637 0 m 576 872 l 454 872 l 454 1004 l 576 1004 l 576 872 m 367 872 l 246 872 l 246 1004 l 367 1004 l 367 872 z "},"ẁ":{"ha":822,"x_min":1,"x_max":819,"o":"m 511 0 l 435 416 q 426 475 429 445 q 418 529 422 505 q 412 585 415 557 l 407 585 q 401 529 404 557 q 394 475 397 505 q 385 416 390 445 l 310 0 l 183 0 l 1 730 l 126 730 l 218 319 q 228 267 223 297 q 237 210 233 237 q 247 146 242 178 l 253 146 q 259 204 256 174 q 266 260 262 230 q 275 319 270 291 l 349 730 l 481 730 l 556 319 q 565 261 561 291 q 572 205 568 231 q 578 146 575 175 l 583 146 q 591 201 587 172 q 600 257 595 227 q 612 319 606 288 l 704 730 l 819 730 l 637 0 l 511 0 m 398 821 l 248 1000 l 249 1004 l 374 1004 l 494 821 l 398 821 z "},"ŷ":{"ha":570,"x_min":14,"x_max":557,"o":"m 371 37 q 334 -75 355 -22 q 284 -168 313 -128 q 219 -230 256 -207 q 134 -253 182 -253 q 91 -251 111 -253 q 53 -241 71 -248 l 53 -163 l 93 -163 q 138 -155 116 -163 q 178 -128 159 -147 q 212 -78 197 -109 q 237 0 227 -47 l 14 730 l 138 730 l 300 164 l 305 164 l 441 730 l 557 730 l 371 37 m 458 815 l 347 815 l 286 925 l 223 815 l 112 815 l 231 1003 l 340 1003 l 458 815 z "},"ỳ":{"ha":570,"x_min":14,"x_max":557,"o":"m 371 37 q 334 -75 355 -22 q 284 -168 313 -128 q 219 -230 256 -207 q 134 -253 182 -253 q 91 -251 111 -253 q 53 -241 71 -248 l 53 -163 l 93 -163 q 138 -155 116 -163 q 178 -128 159 -147 q 212 -78 197 -109 q 237 0 227 -47 l 14 730 l 138 730 l 300 164 l 305 164 l 441 730 l 557 730 l 371 37 m 272 821 l 121 1000 l 123 1004 l 248 1004 l 368 821 l 272 821 z "},"ź":{"ha":570,"x_min":36,"x_max":532,"o":"m 192 101 l 532 101 l 532 0 l 36 0 l 36 54 l 357 629 l 58 629 l 58 730 l 514 730 l 514 678 l 192 101 m 298 821 l 202 821 l 321 1004 l 446 1004 l 448 1000 l 298 821 z "},"ż":{"ha":570,"x_min":36,"x_max":532,"o":"m 514 678 l 192 101 l 532 101 l 532 0 l 36 0 l 36 54 l 357 629 l 58 629 l 58 730 l 514 730 l 514 678 m 346 872 l 224 872 l 224 1004 l 346 1004 l 346 872 z "},"ﬁ":{"ha":570,"x_min":12,"x_max":500,"o":"m 220 1015 q 273 1010 246 1015 q 317 998 299 1005 l 317 920 l 256 920 q 207 903 223 920 q 191 853 191 886 l 191 730 l 317 730 l 317 629 l 191 629 l 191 0 l 77 0 l 77 629 l 12 629 l 12 730 l 77 730 l 77 848 q 83 909 77 879 q 107 962 90 939 q 151 1001 123 986 q 220 1015 179 1015 m 500 0 l 386 0 l 386 730 l 500 730 l 500 0 m 500 868 l 386 868 l 386 1004 l 500 1004 l 500 868 z "},"ﬂ":{"ha":570,"x_min":12,"x_max":500,"o":"m 220 1015 q 273 1010 246 1015 q 317 998 299 1005 l 317 920 l 256 920 q 207 903 223 920 q 191 853 191 886 l 191 730 l 317 730 l 317 629 l 191 629 l 191 0 l 77 0 l 77 629 l 12 629 l 12 730 l 77 730 l 77 848 q 83 909 77 879 q 107 962 90 939 q 151 1001 123 986 q 220 1015 179 1015 m 500 0 l 386 0 l 386 1004 l 500 1004 l 500 0 z "},"∆":{"ha":777,"x_min":22,"x_max":761,"o":"m 22 53 l 313 953 l 469 953 l 761 53 l 761 0 l 22 0 l 22 53 m 162 117 l 606 117 l 391 818 l 385 818 l 162 117 z "},"Ω":{"ha":1067,"x_min":159,"x_max":908,"o":"m 533 970 q 690 939 621 970 q 808 847 760 909 q 882 693 857 785 q 908 477 908 601 q 874 263 908 354 q 779 111 841 173 q 825 115 802 113 q 873 117 848 117 l 908 117 l 908 0 l 578 0 l 578 85 q 663 120 625 95 q 727 187 701 146 q 767 286 753 229 q 781 418 781 344 l 781 511 q 763 663 781 598 q 714 771 746 728 q 636 836 682 814 q 533 857 591 857 q 430 836 476 857 q 352 771 385 814 q 303 663 320 728 q 286 511 286 598 l 286 423 q 340 190 286 275 q 488 85 394 106 l 488 0 l 159 0 l 159 117 l 193 117 q 233 115 210 117 q 286 111 256 113 q 192 263 224 173 q 159 477 159 354 q 184 693 159 601 q 258 847 210 785 q 376 939 307 909 q 533 970 446 970 z "},"π":{"ha":772,"x_min":16,"x_max":747,"o":"m 736 629 l 627 629 l 627 216 q 629 140 627 174 q 632 81 630 107 q 638 35 635 55 q 646 0 642 16 l 534 0 q 519 68 525 17 q 514 204 514 120 l 514 629 l 296 629 q 289 529 294 584 q 279 414 285 473 q 264 294 273 354 q 247 178 256 233 q 227 77 237 123 q 205 0 216 31 l 93 0 q 115 85 104 37 q 135 189 125 134 q 153 302 144 243 q 167 419 161 361 q 177 530 173 477 q 182 629 180 584 q 130 628 153 629 q 90 625 107 627 q 58 619 72 623 q 33 611 44 616 l 16 689 q 88 720 40 709 q 218 730 136 730 l 747 730 l 736 629 z "},"⁄":{"ha":191,"x_min":-241,"x_max":422,"o":"m -155 -16 l -241 -16 l 336 970 l 422 970 l -155 -16 z "},"⅛":{"ha":950,"x_min":40,"x_max":895,"o":"m 244 -16 l 157 -16 l 734 970 l 821 970 l 244 -16 m 237 475 l 338 475 l 338 395 l 41 395 l 41 475 l 152 475 l 152 833 l 40 833 l 40 893 q 77 901 56 895 q 119 914 98 906 q 161 932 140 922 q 197 953 181 942 l 237 953 l 237 475 m 736 241 q 682 218 701 241 q 664 153 664 194 q 682 87 664 111 q 736 64 701 64 q 789 87 772 64 q 807 153 807 111 q 789 218 807 194 q 736 241 772 241 m 736 567 q 800 554 772 567 q 847 519 828 541 q 875 467 865 496 q 885 404 885 437 q 870 336 885 368 q 827 282 855 304 q 880 228 865 260 q 895 153 895 195 q 886 88 895 119 q 858 34 877 58 q 808 -3 838 11 q 736 -16 779 -16 q 663 -3 693 -16 q 613 34 633 11 q 585 88 594 58 q 576 153 576 119 q 593 229 576 195 q 643 283 610 262 q 602 336 617 305 q 587 404 587 368 q 597 467 587 437 q 625 519 606 496 q 672 554 644 541 q 736 567 699 567 m 736 486 q 690 465 707 486 q 673 404 673 443 q 690 343 673 365 q 736 321 707 321 q 782 343 764 321 q 799 404 799 365 q 782 465 799 443 q 736 486 764 486 z "},"⅜":{"ha":950,"x_min":54,"x_max":895,"o":"m 236 -16 l 149 -16 l 726 970 l 812 970 l 236 -16 m 736 241 q 682 218 701 241 q 664 153 664 194 q 682 87 664 111 q 736 64 701 64 q 789 87 772 64 q 807 153 807 111 q 789 218 807 194 q 736 241 772 241 m 215 970 q 278 959 250 970 q 326 928 306 949 q 357 878 347 908 q 368 810 368 848 q 350 734 368 763 q 301 686 332 706 q 355 636 334 669 q 376 553 376 602 q 365 483 376 514 q 332 431 353 452 q 282 398 311 410 q 218 387 253 387 q 96 434 138 387 q 54 562 54 481 l 54 576 l 142 576 l 142 559 q 212 467 142 467 q 268 488 247 467 q 289 557 289 510 q 282 599 289 583 q 265 625 276 616 q 240 639 254 635 q 211 643 226 643 l 163 643 l 163 722 l 212 722 q 260 743 240 722 q 281 806 281 763 q 275 844 281 828 q 261 870 270 860 q 241 886 252 881 q 216 890 229 890 q 171 869 189 890 q 152 803 152 848 l 152 785 l 64 785 l 64 810 q 76 876 64 846 q 106 926 87 905 q 154 958 126 947 q 215 970 182 970 m 736 567 q 800 554 772 567 q 847 519 828 541 q 875 467 865 496 q 885 404 885 437 q 870 336 885 368 q 827 282 855 304 q 880 228 865 260 q 895 153 895 195 q 886 88 895 119 q 858 34 877 58 q 808 -3 838 11 q 736 -16 779 -16 q 663 -3 693 -16 q 613 34 633 11 q 585 88 594 58 q 576 153 576 119 q 593 229 576 195 q 643 283 610 262 q 602 336 617 305 q 587 404 587 368 q 597 467 587 437 q 625 519 606 496 q 672 554 644 541 q 736 567 699 567 m 736 486 q 690 465 707 486 q 673 404 673 443 q 690 343 673 365 q 736 321 707 321 q 782 343 764 321 q 799 404 799 365 q 782 465 799 443 q 736 486 764 486 z "},"⅝":{"ha":950,"x_min":47,"x_max":904,"o":"m 241 -16 l 155 -16 l 732 970 l 818 970 l 241 -16 m 351 864 l 156 864 l 147 725 q 183 751 162 740 q 233 763 205 763 q 288 751 262 763 q 332 716 313 740 q 361 658 351 693 q 372 576 372 623 q 330 430 372 481 q 211 378 287 378 q 144 390 174 378 q 92 426 113 403 q 59 484 71 450 q 47 562 47 518 l 136 562 q 158 486 136 513 q 211 458 180 458 q 263 487 243 458 q 283 576 283 515 q 265 655 283 627 q 216 684 246 684 q 175 667 194 684 q 141 623 155 651 l 63 637 l 82 953 l 351 953 l 351 864 m 746 241 q 692 218 710 241 q 673 153 673 194 q 692 87 673 111 q 746 64 710 64 q 799 87 781 64 q 817 153 817 111 q 799 218 817 194 q 746 241 781 241 m 746 567 q 810 554 783 567 q 857 519 838 541 q 885 467 876 496 q 895 404 895 437 q 880 336 895 368 q 837 282 865 304 q 889 228 875 260 q 904 153 904 195 q 895 88 904 119 q 867 34 886 58 q 818 -3 848 11 q 746 -16 788 -16 q 673 -3 703 -16 q 623 34 642 11 q 595 88 604 58 q 586 153 586 119 q 603 229 586 195 q 653 283 619 262 q 612 336 627 305 q 597 404 597 368 q 607 467 597 437 q 635 519 616 496 q 682 554 654 541 q 746 567 709 567 m 746 486 q 701 465 718 486 q 684 404 684 443 q 701 343 684 365 q 746 321 718 321 q 791 343 774 321 q 808 404 808 365 q 791 465 808 443 q 746 486 774 486 z "},"⅞":{"ha":950,"x_min":82,"x_max":909,"o":"m 219 -16 l 132 -16 l 709 970 l 795 970 l 219 -16 m 751 241 q 697 218 715 241 q 680 153 680 194 q 697 87 680 111 q 751 64 715 64 q 805 87 787 64 q 822 153 822 111 q 805 218 822 194 q 751 241 787 241 m 410 900 l 408 895 q 351 802 380 852 q 298 693 322 751 q 258 574 274 636 q 243 448 243 512 q 243 424 243 437 q 245 397 244 411 l 149 397 q 162 534 149 468 q 198 660 176 600 q 247 771 220 720 q 300 865 274 823 l 82 865 l 82 953 l 410 953 l 410 900 m 751 567 q 816 554 788 567 q 862 519 844 541 q 890 467 881 496 q 900 404 900 437 q 885 336 900 368 q 843 282 871 304 q 895 228 881 260 q 909 153 909 195 q 901 88 909 119 q 873 34 892 58 q 824 -3 854 11 q 751 -16 793 -16 q 678 -3 709 -16 q 628 34 648 11 q 600 88 609 58 q 591 153 591 119 q 608 229 591 195 q 659 283 625 262 q 617 336 632 305 q 603 404 603 368 q 612 467 603 437 q 641 519 622 496 q 687 554 660 541 q 751 567 715 567 m 751 486 q 706 465 723 486 q 689 404 689 443 q 706 343 689 365 q 751 321 723 321 q 797 343 780 321 q 814 404 814 365 q 797 465 814 443 q 751 486 780 486 z "},"‼":{"ha":633,"x_min":83,"x_max":538,"o":"m 538 953 q 534 890 536 933 q 529 788 532 846 q 523 660 526 730 q 516 517 519 590 q 509 372 513 444 q 503 237 506 300 l 416 237 q 400 595 408 417 q 382 953 393 774 l 538 953 m 232 0 l 93 0 l 93 151 l 232 151 l 232 0 m 530 0 l 392 0 l 392 151 l 530 151 l 530 0 m 240 953 q 236 890 238 933 q 230 788 233 846 q 224 660 227 730 q 217 517 221 590 q 210 372 214 444 q 204 237 207 300 l 118 237 q 102 595 110 417 q 83 953 94 774 l 240 953 z "},"′":{"ha":218,"x_min":32,"x_max":193,"o":"m 193 949 l 127 730 l 32 730 l 67 953 l 192 953 l 193 949 z "},"″":{"ha":404,"x_min":32,"x_max":370,"o":"m 370 949 l 304 730 l 208 730 l 243 953 l 368 953 l 370 949 m 193 949 l 127 730 l 32 730 l 67 953 l 192 953 l 193 949 z "},"‗":{"ha":694,"x_min":32,"x_max":664,"o":"m 664 -172 l 32 -172 l 32 -98 l 664 -98 l 664 -172 m 664 -301 l 32 -301 l 32 -228 l 664 -228 l 664 -301 z "},"‾":{"ha":694,"x_min":0,"x_max":696,"o":"m 696 1099 l 0 1099 l 0 1173 l 696 1173 l 696 1099 z "},"‛":{"ha":253,"x_min":57,"x_max":196,"o":"m 196 803 l 140 803 l 196 630 l 123 630 l 57 815 l 57 953 l 196 953 l 196 803 z "},"₣":{"ha":700,"x_min":83,"x_max":682,"o":"m 682 517 l 644 517 q 593 508 617 517 q 550 479 568 499 q 520 426 531 458 q 509 345 509 393 l 509 0 l 395 0 l 395 422 l 205 422 l 205 0 l 83 0 l 83 953 l 553 953 l 553 842 l 205 842 l 205 533 l 395 533 l 395 629 l 481 629 l 496 533 l 504 533 q 521 574 511 554 q 547 610 532 594 q 582 636 562 626 q 628 646 602 646 q 649 644 640 646 q 667 640 659 642 q 682 635 675 637 l 682 517 z "},"₤":{"ha":633,"x_min":26,"x_max":574,"o":"m 351 970 q 443 956 401 970 q 513 909 484 941 q 558 826 542 878 q 574 700 574 774 l 574 682 l 460 682 l 460 704 q 432 828 460 789 q 351 868 404 868 q 269 831 297 868 q 241 715 241 795 l 241 587 l 426 587 l 426 488 l 241 488 l 241 418 l 426 418 l 426 319 l 241 319 l 228 110 l 574 110 l 574 0 l 41 0 l 41 110 l 126 110 l 126 319 l 26 319 l 26 418 l 126 418 l 126 488 l 26 488 l 26 587 l 126 587 l 126 693 q 185 901 126 831 q 351 970 245 970 z "},"₧":{"ha":1324,"x_min":97,"x_max":1287,"o":"m 757 730 l 962 730 q 1010 743 984 739 q 1064 747 1036 747 q 1154 731 1115 747 q 1220 688 1193 715 q 1260 624 1246 661 q 1274 547 1274 588 q 1273 531 1274 540 q 1272 521 1272 523 l 1154 521 l 1154 533 q 1149 574 1154 554 q 1133 611 1144 595 q 1101 636 1121 627 q 1053 646 1082 646 q 1004 636 1023 646 q 974 611 985 626 q 959 579 963 597 q 956 547 956 562 q 970 498 956 517 q 1007 465 984 479 q 1061 441 1031 452 q 1121 420 1090 431 q 1182 393 1152 408 q 1235 354 1212 378 q 1273 294 1259 330 q 1287 208 1287 259 q 1270 107 1287 149 q 1221 37 1252 64 q 1147 -4 1190 9 q 1054 -17 1105 -17 q 930 8 979 -17 q 856 72 882 33 l 856 5 q 818 -8 841 -3 q 774 -14 795 -14 q 711 0 736 -14 q 671 35 686 13 q 649 84 656 56 q 643 140 643 112 l 643 629 l 607 629 q 578 531 600 575 q 519 455 555 487 q 434 407 484 424 q 325 390 385 390 l 220 390 l 220 0 l 97 0 l 97 953 l 325 953 q 435 937 387 953 q 519 892 484 921 q 576 822 554 863 q 606 730 597 781 l 643 730 l 668 933 l 757 933 l 757 730 m 940 228 l 940 214 q 949 155 940 179 q 975 115 958 130 q 1013 92 991 99 q 1060 85 1035 85 q 1102 92 1082 85 q 1136 112 1122 98 q 1159 145 1151 125 q 1168 192 1168 165 q 1154 249 1168 227 q 1116 287 1139 271 q 1063 313 1093 302 q 1002 336 1033 324 q 941 362 971 347 q 888 400 911 377 q 850 456 865 422 q 836 539 836 490 q 852 629 836 589 l 757 629 l 757 151 q 771 102 757 119 q 815 85 786 85 l 847 85 q 826 138 833 110 q 819 197 819 167 q 820 219 819 212 q 821 228 821 226 l 940 228 m 220 842 l 220 501 l 321 501 q 387 513 357 501 q 438 547 416 525 q 471 601 459 570 q 482 672 482 633 q 472 742 482 711 q 441 795 461 773 q 390 830 420 818 q 321 842 360 842 l 220 842 z "},"≈":{"ha":762,"x_min":48,"x_max":711,"o":"m 519 185 q 595 200 560 185 q 654 234 629 216 q 694 269 680 253 q 711 287 709 285 l 711 157 q 664 106 692 128 q 604 70 640 86 q 519 54 568 54 q 448 67 481 54 q 380 97 414 81 q 313 126 347 113 q 240 140 279 140 q 164 124 199 140 q 104 90 130 109 q 64 55 79 71 q 48 37 50 39 l 48 168 q 96 220 68 197 q 123 239 108 229 q 156 255 138 248 q 195 267 174 262 q 240 271 216 271 q 311 258 277 271 q 378 228 345 244 q 446 199 412 212 q 519 185 481 185 m 519 481 q 595 496 560 481 q 654 530 629 511 q 694 565 680 549 q 711 583 709 581 l 711 453 q 664 401 692 424 q 604 366 640 382 q 519 351 568 351 q 448 364 481 351 q 380 393 414 377 q 313 423 347 410 q 240 436 279 436 q 188 429 212 436 q 142 410 163 421 q 104 386 121 399 q 75 362 87 373 q 56 342 63 351 q 48 333 49 334 l 48 464 q 96 515 68 493 q 123 534 108 525 q 156 551 138 544 q 195 563 174 558 q 240 567 216 567 q 311 553 277 567 q 378 524 345 540 q 446 494 412 508 q 519 481 481 481 z "},"≡":{"ha":664,"x_min":60,"x_max":604,"o":"m 604 600 l 60 600 l 60 717 l 604 717 l 604 600 m 604 9 l 60 9 l 60 125 l 604 125 l 604 9 m 604 304 l 60 304 l 60 420 l 604 420 l 604 304 z "},"≥":{"ha":762,"x_min":109,"x_max":654,"o":"m 654 566 l 654 416 l 110 144 l 110 270 l 541 492 l 110 713 l 110 839 l 654 566 m 653 0 l 109 0 l 109 115 l 653 115 l 653 0 z "},"∞":{"ha":990,"x_min":66,"x_max":924,"o":"m 718 629 q 804 612 766 629 q 869 565 842 595 q 909 496 895 536 q 924 412 924 457 q 910 328 924 368 q 870 260 896 289 q 806 214 844 231 q 720 197 768 197 q 651 208 682 197 q 592 237 619 219 q 541 280 564 256 q 494 330 517 304 q 448 280 472 304 q 396 237 424 256 q 338 208 369 219 q 270 197 307 197 q 184 214 222 197 q 120 260 146 231 q 80 328 94 289 q 66 412 66 368 q 80 496 66 457 q 120 565 94 536 q 185 612 146 595 q 271 629 223 629 q 338 618 307 629 q 396 588 369 607 q 448 545 424 570 q 494 494 472 521 q 541 545 517 521 q 592 588 564 570 q 650 618 619 607 q 718 629 682 629 m 271 524 q 232 515 250 524 q 199 490 213 506 q 176 454 184 475 q 168 410 168 433 q 176 366 168 386 q 198 330 184 345 q 230 306 212 315 q 270 297 249 297 q 314 306 293 297 q 354 331 334 315 q 392 368 373 347 q 429 412 410 389 q 392 456 411 435 q 354 491 374 476 q 314 515 335 506 q 271 524 294 524 m 718 524 q 674 515 694 524 q 634 491 653 506 q 596 456 614 476 q 559 412 577 435 q 596 368 577 389 q 634 331 614 347 q 675 306 654 315 q 720 297 696 297 q 759 306 741 297 q 791 330 777 315 q 812 366 804 345 q 821 410 821 386 q 812 454 821 433 q 790 490 804 475 q 758 515 777 506 q 718 524 739 524 z "},"∫":{"ha":380,"x_min":45,"x_max":345,"o":"m 345 1125 q 298 1121 320 1125 q 260 1108 276 1117 q 234 1084 243 1099 q 225 1046 225 1069 q 244 583 236 798 q 249 459 246 522 q 254 336 252 396 q 258 219 256 275 q 261 114 260 163 q 263 26 262 65 q 264 -40 264 -14 q 247 -120 264 -90 q 200 -168 229 -151 q 130 -190 170 -184 q 45 -196 90 -196 l 45 -126 q 93 -122 71 -126 q 131 -109 115 -118 q 155 -84 146 -100 q 164 -45 164 -68 q 145 416 153 201 q 140 539 142 477 q 136 662 138 602 q 132 778 134 722 q 129 883 130 834 q 127 970 127 931 q 126 1037 126 1010 q 144 1117 126 1086 q 191 1164 161 1147 q 261 1187 221 1181 q 345 1193 300 1193 l 345 1125 z "},"∩":{"ha":1003,"x_min":133,"x_max":867,"o":"m 500 939 q 643 912 576 939 q 760 835 710 885 q 839 715 810 785 q 867 559 867 645 l 867 0 l 765 0 l 765 548 q 744 671 765 616 q 688 765 724 726 q 604 826 652 804 q 500 847 555 847 q 396 826 445 847 q 312 765 348 804 q 256 671 277 726 q 235 548 235 616 l 235 0 l 133 0 l 133 559 q 162 715 133 645 q 240 835 191 785 q 357 912 290 885 q 500 939 424 939 z "},"≤":{"ha":762,"x_min":109,"x_max":654,"o":"m 653 713 l 220 492 l 653 270 l 653 144 l 109 416 l 109 566 l 653 839 l 653 713 m 654 0 l 110 0 l 110 115 l 654 115 l 654 0 z "},"−":{"ha":665,"x_min":60,"x_max":604,"o":"m 604 296 l 60 296 l 60 412 l 604 412 l 604 296 z "},"≠":{"ha":762,"x_min":114,"x_max":659,"o":"m 532 559 l 659 559 l 659 441 l 473 441 l 382 262 l 659 262 l 659 147 l 323 147 l 267 35 l 182 35 l 239 147 l 114 147 l 114 262 l 297 262 l 387 441 l 114 441 l 114 559 l 448 559 l 505 672 l 590 672 l 532 559 z "},"∟":{"ha":1360,"x_min":245,"x_max":1114,"o":"m 349 92 l 1114 92 l 1114 0 l 245 0 l 245 868 l 349 868 l 349 92 z "},"∂":{"ha":686,"x_min":78,"x_max":606,"o":"m 309 1021 q 418 993 365 1021 q 513 907 471 966 q 580 755 555 848 q 606 532 606 662 q 586 302 606 404 q 527 129 566 200 q 431 21 488 58 q 301 -16 374 -16 q 204 8 246 -16 q 135 73 163 32 q 92 169 106 114 q 78 283 78 223 q 99 426 78 363 q 154 532 119 488 q 233 600 189 576 q 326 623 278 623 q 387 613 360 623 q 435 589 414 604 q 469 558 455 574 q 489 528 482 541 l 494 528 q 495 536 495 530 q 496 549 496 543 l 496 575 q 480 713 496 649 q 438 824 465 777 q 374 898 411 871 q 294 925 338 925 q 215 911 248 925 q 159 878 182 897 l 159 981 q 222 1009 187 998 q 309 1021 258 1021 m 344 530 q 285 510 312 530 q 238 455 258 490 q 207 375 218 420 q 196 279 196 330 q 204 200 196 235 q 227 138 212 164 q 263 99 241 113 q 311 85 284 85 q 378 113 348 85 q 430 186 408 140 q 466 292 452 233 q 485 415 480 351 q 467 455 479 434 q 437 492 454 475 q 396 519 419 509 q 344 530 372 530 z "},"∏":{"ha":1143,"x_min":147,"x_max":996,"o":"m 996 893 l 881 893 l 881 -178 l 768 -178 l 768 893 l 374 893 l 374 -178 l 261 -178 l 261 893 l 147 893 l 147 1004 l 996 1004 l 996 893 z "},"√":{"ha":762,"x_min":41,"x_max":762,"o":"m 536 -205 l 411 -205 q 293 101 351 -52 q 176 407 235 253 l 70 366 l 41 449 l 267 543 q 354 302 310 421 q 443 62 399 182 q 460 6 454 32 q 473 -41 467 -20 l 663 1190 l 762 1190 l 536 -205 z "},"∑":{"ha":990,"x_min":121,"x_max":920,"o":"m 896 896 l 300 896 l 300 890 l 664 437 l 271 -50 l 271 -56 l 920 -56 l 920 -178 l 121 -178 l 121 -90 l 524 415 l 133 911 l 133 1004 l 896 1004 l 896 896 z "},"∙":{"ha":379,"x_min":118,"x_max":258,"o":"m 258 400 l 118 400 l 118 555 l 258 555 l 258 400 z "},"↔":{"ha":1389,"x_min":58,"x_max":1332,"o":"m 1332 366 l 1332 336 l 1059 110 l 1000 110 l 1081 300 l 316 300 l 391 110 l 332 110 l 58 336 l 58 366 l 332 591 l 391 591 l 316 401 l 1081 401 l 1000 591 l 1059 591 l 1332 366 z "},"↓":{"ha":694,"x_min":107,"x_max":589,"o":"m 399 -38 l 589 43 l 589 -16 l 363 -289 l 333 -289 l 107 -16 l 107 43 l 297 -38 l 297 986 l 399 986 l 399 -38 z "},"←":{"ha":1389,"x_min":58,"x_max":1333,"o":"m 309 401 l 1333 401 l 1333 300 l 309 300 l 391 110 l 332 110 l 58 336 l 58 366 l 332 591 l 391 591 l 309 401 z "},"→":{"ha":1389,"x_min":57,"x_max":1332,"o":"m 1332 366 l 1332 336 l 1059 110 l 1000 110 l 1081 300 l 57 300 l 57 401 l 1081 401 l 1000 591 l 1059 591 l 1332 366 z "},"↑":{"ha":694,"x_min":107,"x_max":589,"o":"m 589 713 l 589 654 l 399 735 l 399 -289 l 297 -289 l 297 735 l 107 654 l 107 713 l 333 986 l 363 986 l 589 713 z "},"↕":{"ha":694,"x_min":106,"x_max":587,"o":"m 587 714 l 587 655 l 397 730 l 397 -35 l 587 46 l 587 -13 l 361 -286 l 332 -286 l 106 -13 l 106 46 l 296 -35 l 296 730 l 106 655 l 106 714 l 332 987 l 361 987 l 587 714 z "},"℮":{"ha":833,"x_min":63,"x_max":777,"o":"m 419 747 q 568 718 502 747 q 681 635 634 688 q 752 510 727 583 q 777 352 777 437 l 777 344 l 212 344 l 212 115 q 302 61 251 80 q 419 41 354 41 q 579 82 511 41 q 684 193 648 123 l 730 164 q 677 89 709 122 q 607 32 646 56 q 521 -4 568 9 q 419 -16 473 -16 q 270 12 336 -16 q 158 92 204 41 q 87 213 112 142 q 63 366 63 283 q 87 518 63 448 q 158 639 112 588 q 270 719 204 690 q 419 747 336 747 m 419 689 q 302 669 354 689 q 212 614 251 650 l 212 403 l 626 403 l 626 612 q 535 669 587 649 q 419 689 483 689 z "},"":{"ha":379,"x_min":133,"x_max":252,"o":"m 252 -200 l 211 -308 l 149 -308 l 180 -210 l 133 -210 l 133 -83 l 252 -83 l 252 -200 z "},"ˉ":{"ha":694,"x_min":0,"x_max":696,"o":"m 696 1099 l 0 1099 l 0 1173 l 696 1173 l 696 1099 z "},"˘":{"ha":379,"x_min":15,"x_max":359,"o":"m 359 1004 q 347 957 359 981 q 313 913 335 932 q 258 882 290 894 q 186 869 227 869 q 115 882 146 869 q 61 913 83 894 q 27 957 39 932 q 15 1004 15 981 l 104 1004 q 112 989 106 997 q 130 974 119 981 q 155 963 140 967 q 186 958 169 958 q 219 963 204 958 q 245 974 234 967 q 262 989 256 981 q 270 1004 269 997 l 359 1004 z "},"ˇ":{"ha":379,"x_min":14,"x_max":360,"o":"m 240 817 l 132 817 l 14 1004 l 125 1004 l 186 895 l 249 1004 l 360 1004 l 240 817 z "},"˙":{"ha":379,"x_min":129,"x_max":250,"o":"m 250 872 l 129 872 l 129 1004 l 250 1004 l 250 872 z "},"˝":{"ha":379,"x_min":5,"x_max":399,"o":"m 399 1000 l 282 821 l 186 821 l 273 1004 l 397 1004 l 399 1000 m 218 1000 l 101 821 l 5 821 l 92 1004 l 216 1004 l 218 1000 z "},"˛":{"ha":379,"x_min":100,"x_max":315,"o":"m 250 11 q 237 -7 244 3 q 223 -30 229 -18 q 212 -57 216 -43 q 208 -86 208 -71 q 212 -114 208 -100 q 222 -139 215 -128 q 242 -156 230 -150 q 271 -163 254 -163 l 315 -163 l 315 -233 q 273 -248 294 -243 q 231 -253 252 -253 q 185 -247 208 -253 q 143 -226 161 -241 q 112 -188 124 -212 q 100 -127 100 -163 q 105 -82 100 -102 q 120 -44 111 -61 q 141 -12 130 -26 q 167 16 153 3 l 250 16 l 250 11 z "},"˚":{"ha":379,"x_min":60,"x_max":326,"o":"m 193 1048 q 246 1037 222 1048 q 288 1008 270 1027 q 316 966 306 990 q 326 915 326 942 q 316 863 326 887 q 287 820 305 838 q 245 792 269 802 q 193 781 221 781 q 142 791 166 781 q 99 820 117 802 q 70 862 81 838 q 60 915 60 886 q 70 967 60 943 q 99 1009 81 991 q 141 1037 117 1027 q 193 1048 165 1048 m 193 985 q 166 980 179 985 q 143 965 153 975 q 128 942 134 955 q 122 915 122 929 q 128 887 122 901 q 143 865 134 874 q 166 849 153 855 q 193 844 179 844 q 220 849 208 844 q 242 865 233 855 q 258 887 252 874 q 264 915 264 901 q 258 942 264 929 q 242 965 252 955 q 220 980 233 975 q 193 985 208 985 z "},"Ǽ":{"ha":1139,"x_min":-1,"x_max":1088,"o":"m 718 1043 l 623 1043 l 742 1226 l 867 1226 l 868 1222 l 718 1043 m 629 0 l 582 212 l 203 212 l 121 0 l -1 0 l 387 953 l 1079 953 l 1079 842 l 570 842 l 637 543 l 1018 543 l 1018 432 l 663 432 l 734 111 l 1088 111 l 1088 0 l 629 0 m 245 323 l 558 323 l 464 754 q 458 781 460 766 q 453 809 455 795 q 449 840 450 825 l 443 840 q 433 808 438 824 q 423 780 428 795 q 414 754 418 766 l 245 323 z "},"―":{"ha":1139,"x_min":141,"x_max":993,"o":"m 993 323 l 141 323 l 141 427 l 993 427 l 993 323 z "},"℅":{"ha":1053,"x_min":67,"x_max":986,"o":"m 273 -16 l 185 -16 l 763 970 l 849 970 l 273 -16 m 249 970 q 372 914 334 970 q 410 753 410 858 l 314 753 q 300 853 314 821 q 249 885 286 885 q 184 843 205 885 q 164 717 164 802 l 164 682 q 184 557 164 598 q 249 515 205 515 q 302 549 286 515 q 318 648 318 583 l 410 648 q 401 565 410 604 q 373 496 392 526 q 323 448 354 466 q 249 431 292 431 q 167 447 201 431 q 111 495 133 463 q 78 579 88 528 q 67 700 67 630 q 112 904 67 839 q 249 970 156 970 m 799 437 q 708 270 708 437 l 708 235 q 799 67 708 67 q 890 235 890 67 l 890 270 q 799 437 890 437 m 799 522 q 939 456 892 522 q 986 252 986 391 q 939 48 986 113 q 799 -18 891 -18 q 660 48 707 -18 q 612 252 612 113 q 660 456 612 390 q 799 522 707 522 z "},"ℓ":{"ha":485,"x_min":57,"x_max":432,"o":"m 288 1021 q 351 1005 324 1021 q 396 960 378 989 q 423 893 414 932 q 432 808 432 854 q 415 686 432 747 q 368 565 398 625 q 294 445 337 505 q 199 328 251 386 l 199 275 q 208 184 199 222 q 234 124 218 147 q 272 90 250 100 q 319 79 294 79 q 372 91 348 79 q 415 121 395 102 l 415 19 q 362 -7 389 1 q 301 -16 334 -16 q 211 3 248 -16 q 150 57 174 23 q 116 136 127 91 q 104 233 105 182 l 104 253 q 82 231 94 242 q 57 208 70 220 l 57 305 q 79 328 68 317 q 103 355 90 339 l 103 705 q 119 855 103 795 q 161 952 135 916 q 220 1005 187 989 q 288 1021 253 1021 m 289 932 q 256 920 272 932 q 227 882 239 909 q 207 812 214 856 q 199 705 199 769 l 199 441 q 260 531 231 486 q 309 624 288 577 q 342 717 330 670 q 355 810 355 764 q 339 900 355 867 q 289 932 323 932 z "},"№":{"ha":1222,"x_min":89,"x_max":1170,"o":"m 717 0 l 615 0 l 258 607 q 239 644 249 623 q 219 686 229 665 q 197 734 208 709 l 193 733 q 196 685 195 708 q 198 644 197 665 q 199 607 199 622 l 199 0 l 89 0 l 89 953 l 195 953 l 549 355 q 566 319 556 341 q 586 277 576 297 q 607 227 597 252 l 611 228 q 609 279 610 255 q 607 322 608 300 q 607 355 607 343 l 607 953 l 717 953 l 717 0 m 1154 281 l 811 281 l 811 367 l 1154 367 l 1154 281 m 982 884 q 916 841 938 884 q 895 713 895 798 l 895 678 q 916 551 895 594 q 982 508 938 508 q 1048 551 1027 508 q 1069 678 1069 594 l 1069 713 q 1048 841 1069 798 q 982 884 1027 884 m 982 970 q 1122 904 1074 970 q 1170 696 1170 838 q 1122 488 1170 554 q 982 422 1074 422 q 842 488 890 422 q 794 696 794 554 q 842 904 794 838 q 982 970 890 970 z "},"↨":{"ha":694,"x_min":104,"x_max":590,"o":"m 587 714 l 587 655 l 397 730 l 397 -35 l 587 46 l 587 -13 l 361 -286 l 332 -286 l 106 -13 l 106 46 l 296 -35 l 296 730 l 106 655 l 106 714 l 332 987 l 361 987 l 587 714 m 590 -420 l 104 -420 l 104 -355 l 590 -355 l 590 -420 z "},"⌂":{"ha":833,"x_min":104,"x_max":729,"o":"m 729 431 l 729 0 l 104 0 l 104 431 l 416 782 l 729 431 m 193 399 l 193 83 l 642 83 l 642 399 l 416 650 l 193 399 z "}}}
